<?xml version="1.0" encoding="UTF-8"?>
<svg xmlns="http://www.w3.org/2000/svg" xmlns:xlink="http://www.w3.org/1999/xlink" width="521pt" height="428pt" viewBox="0 0 521 428" version="1.1">
<defs>
<g>
<symbol overflow="visible" id="glyph0-0">
<path style="stroke:none;" d=""/>
</symbol>
<symbol overflow="visible" id="glyph0-1">
<path style="stroke:none;" d="M 4.40625 -11.34375 C 3.34375 -11.34375 2.390625 -10.875 1.796875 -10.09375 C 1.0625 -9.109375 0.6875 -7.578125 0.6875 -5.484375 C 0.6875 -1.65625 1.96875 0.375 4.40625 0.375 C 6.796875 0.375 8.109375 -1.65625 8.109375 -5.390625 C 8.109375 -7.59375 7.765625 -9.078125 7.015625 -10.09375 C 6.421875 -10.890625 5.46875 -11.34375 4.40625 -11.34375 Z M 4.40625 -10.09375 C 5.921875 -10.09375 6.671875 -8.5625 6.671875 -5.515625 C 6.671875 -2.296875 5.9375 -0.796875 4.375 -0.796875 C 2.875 -0.796875 2.125 -2.375 2.125 -5.46875 C 2.125 -8.578125 2.875 -10.09375 4.40625 -10.09375 Z M 4.40625 -10.09375 "/>
</symbol>
<symbol overflow="visible" id="glyph0-2">
<path style="stroke:none;" d="M 7.609375 -11.34375 L 1.765625 -11.34375 L 0.90625 -5.171875 L 2.203125 -5.171875 C 2.859375 -5.953125 3.40625 -6.21875 4.28125 -6.21875 C 5.8125 -6.21875 6.765625 -5.1875 6.765625 -3.5 C 6.765625 -1.875 5.828125 -0.875 4.28125 -0.875 C 3.0625 -0.875 2.296875 -1.5 1.96875 -2.78125 L 0.5625 -2.78125 C 0.75 -1.859375 0.90625 -1.40625 1.25 -0.984375 C 1.890625 -0.125 3.046875 0.375 4.3125 0.375 C 6.609375 0.375 8.203125 -1.296875 8.203125 -3.703125 C 8.203125 -5.9375 6.71875 -7.46875 4.546875 -7.46875 C 3.75 -7.46875 3.109375 -7.265625 2.453125 -6.78125 L 2.890625 -9.953125 L 7.609375 -9.953125 Z M 7.609375 -11.34375 "/>
</symbol>
<symbol overflow="visible" id="glyph0-3">
<path style="stroke:none;" d="M 4.140625 -8.078125 L 4.140625 0 L 5.546875 0 L 5.546875 -11.34375 L 4.625 -11.34375 C 4.125 -9.59375 3.8125 -9.359375 1.625 -9.09375 L 1.625 -8.078125 Z M 4.140625 -8.078125 "/>
</symbol>
<symbol overflow="visible" id="glyph0-4">
<path style="stroke:none;" d="M 8.09375 -1.390625 L 2.125 -1.390625 C 2.265625 -2.3125 2.78125 -2.90625 4.171875 -3.734375 L 5.78125 -4.59375 C 7.359375 -5.453125 8.171875 -6.625 8.171875 -8.015625 C 8.171875 -8.953125 7.796875 -9.84375 7.125 -10.453125 C 6.453125 -11.0625 5.609375 -11.34375 4.546875 -11.34375 C 3.109375 -11.34375 2.03125 -10.828125 1.40625 -9.875 C 1.015625 -9.265625 0.828125 -8.5625 0.796875 -7.40625 L 2.203125 -7.40625 C 2.25 -8.171875 2.359375 -8.640625 2.546875 -9.015625 C 2.90625 -9.703125 3.640625 -10.109375 4.5 -10.109375 C 5.78125 -10.109375 6.734375 -9.203125 6.734375 -7.984375 C 6.734375 -7.09375 6.203125 -6.3125 5.203125 -5.75 L 3.734375 -4.90625 C 1.359375 -3.5625 0.671875 -2.5 0.546875 0 L 8.09375 0 Z M 8.09375 -1.390625 "/>
</symbol>
<symbol overflow="visible" id="glyph0-5">
<path style="stroke:none;" d="M 3.53125 -5.203125 L 3.71875 -5.203125 L 4.296875 -5.21875 C 5.859375 -5.21875 6.65625 -4.515625 6.65625 -3.15625 C 6.65625 -1.734375 5.78125 -0.875 4.296875 -0.875 C 2.765625 -0.875 2.015625 -1.640625 1.921875 -3.296875 L 0.515625 -3.296875 C 0.578125 -2.390625 0.734375 -1.796875 1.015625 -1.28125 C 1.578125 -0.1875 2.703125 0.375 4.25 0.375 C 6.59375 0.375 8.09375 -1.03125 8.09375 -3.171875 C 8.09375 -4.609375 7.53125 -5.40625 6.171875 -5.875 C 7.234375 -6.28125 7.765625 -7.09375 7.765625 -8.21875 C 7.765625 -10.171875 6.46875 -11.34375 4.296875 -11.34375 C 2.015625 -11.34375 0.796875 -10.09375 0.75 -7.6875 L 2.15625 -7.6875 C 2.171875 -8.375 2.234375 -8.75 2.421875 -9.109375 C 2.734375 -9.734375 3.4375 -10.109375 4.3125 -10.109375 C 5.5625 -10.109375 6.3125 -9.375 6.3125 -8.171875 C 6.3125 -7.375 6.03125 -6.890625 5.40625 -6.640625 C 5.03125 -6.484375 4.53125 -6.421875 3.53125 -6.40625 Z M 3.53125 -5.203125 "/>
</symbol>
<symbol overflow="visible" id="glyph0-6">
<path style="stroke:none;" d="M 3.0625 -1.65625 L 1.390625 -1.65625 L 1.390625 0 L 3.0625 0 Z M 3.0625 -1.65625 "/>
</symbol>
<symbol overflow="visible" id="glyph0-7">
<path style="stroke:none;" d="M 5.234375 -2.71875 L 5.234375 0 L 6.640625 0 L 6.640625 -2.71875 L 8.3125 -2.71875 L 8.3125 -3.984375 L 6.640625 -3.984375 L 6.640625 -11.34375 L 5.59375 -11.34375 L 0.453125 -4.203125 L 0.453125 -2.71875 Z M 5.234375 -3.984375 L 1.6875 -3.984375 L 5.234375 -8.9375 Z M 5.234375 -3.984375 "/>
</symbol>
<symbol overflow="visible" id="glyph0-8">
<path style="stroke:none;" d="M 7.96875 -8.390625 C 7.703125 -10.234375 6.484375 -11.34375 4.75 -11.34375 C 3.5 -11.34375 2.390625 -10.734375 1.71875 -9.734375 C 1.015625 -8.625 0.6875 -7.234375 0.6875 -5.171875 C 0.6875 -3.265625 0.96875 -2.046875 1.640625 -1.046875 C 2.25 -0.125 3.25 0.375 4.5 0.375 C 6.65625 0.375 8.203125 -1.234375 8.203125 -3.453125 C 8.203125 -5.5625 6.765625 -7.0625 4.734375 -7.0625 C 3.609375 -7.0625 2.734375 -6.625 2.125 -5.796875 C 2.140625 -8.5625 3.046875 -10.09375 4.65625 -10.09375 C 5.640625 -10.09375 6.34375 -9.46875 6.5625 -8.390625 Z M 4.5625 -5.8125 C 5.921875 -5.8125 6.765625 -4.859375 6.765625 -3.34375 C 6.765625 -1.921875 5.8125 -0.875 4.515625 -0.875 C 3.203125 -0.875 2.203125 -1.96875 2.203125 -3.421875 C 2.203125 -4.828125 3.171875 -5.8125 4.5625 -5.8125 Z M 4.5625 -5.8125 "/>
</symbol>
<symbol overflow="visible" id="glyph0-9">
<path style="stroke:none;" d="M 8.3125 -11.34375 L 0.734375 -11.34375 L 0.734375 -9.953125 L 6.859375 -9.953125 C 4.15625 -6.09375 3.0625 -3.734375 2.203125 0 L 3.71875 0 C 4.34375 -3.625 5.765625 -6.75 8.3125 -10.15625 Z M 8.3125 -11.34375 "/>
</symbol>
<symbol overflow="visible" id="glyph0-10">
<path style="stroke:none;" d="M 6.25 -5.96875 C 7.421875 -6.671875 7.8125 -7.25 7.8125 -8.3125 C 7.8125 -10.09375 6.421875 -11.34375 4.40625 -11.34375 C 2.40625 -11.34375 0.984375 -10.09375 0.984375 -8.3125 C 0.984375 -7.265625 1.375 -6.6875 2.53125 -5.96875 C 1.234375 -5.34375 0.59375 -4.40625 0.59375 -3.15625 C 0.59375 -1.078125 2.15625 0.375 4.40625 0.375 C 6.640625 0.375 8.203125 -1.078125 8.203125 -3.140625 C 8.203125 -4.40625 7.5625 -5.34375 6.25 -5.96875 Z M 4.40625 -10.09375 C 5.59375 -10.09375 6.375 -9.390625 6.375 -8.28125 C 6.375 -7.234375 5.578125 -6.53125 4.40625 -6.53125 C 3.21875 -6.53125 2.4375 -7.234375 2.4375 -8.296875 C 2.4375 -9.390625 3.21875 -10.09375 4.40625 -10.09375 Z M 4.40625 -5.34375 C 5.8125 -5.34375 6.765625 -4.453125 6.765625 -3.125 C 6.765625 -1.78125 5.8125 -0.875 4.375 -0.875 C 2.984375 -0.875 2.03125 -1.796875 2.03125 -3.125 C 2.03125 -4.453125 2.984375 -5.34375 4.40625 -5.34375 Z M 4.40625 -5.34375 "/>
</symbol>
<symbol overflow="visible" id="glyph0-11">
<path style="stroke:none;" d="M 2.921875 -5.3125 L 9.28125 -5.3125 L 9.28125 -6.625 L 2.921875 -6.625 L 2.921875 -10.359375 L 9.515625 -10.359375 L 9.515625 -11.65625 L 1.4375 -11.65625 L 1.4375 0 L 9.8125 0 L 9.8125 -1.3125 L 2.921875 -1.3125 Z M 2.921875 -5.3125 "/>
</symbol>
<symbol overflow="visible" id="glyph0-12">
<path style="stroke:none;" d="M 4.5625 0 L 7.78125 -8.390625 L 6.265625 -8.390625 L 3.90625 -1.578125 L 1.65625 -8.390625 L 0.15625 -8.390625 L 3.109375 0 Z M 4.5625 0 "/>
</symbol>
<symbol overflow="visible" id="glyph0-13">
<path style="stroke:none;" d="M 4.359375 -8.625 C 2 -8.625 0.578125 -6.9375 0.578125 -4.125 C 0.578125 -1.3125 1.984375 0.375 4.375 0.375 C 6.71875 0.375 8.15625 -1.3125 8.15625 -4.0625 C 8.15625 -6.953125 6.765625 -8.625 4.359375 -8.625 Z M 4.375 -7.390625 C 5.875 -7.390625 6.765625 -6.15625 6.765625 -4.078125 C 6.765625 -2.109375 5.84375 -0.859375 4.375 -0.859375 C 2.875 -0.859375 1.96875 -2.09375 1.96875 -4.125 C 1.96875 -6.140625 2.875 -7.390625 4.375 -7.390625 Z M 4.375 -7.390625 "/>
</symbol>
<symbol overflow="visible" id="glyph0-14">
<path style="stroke:none;" d="M 2.4375 -11.65625 L 1.09375 -11.65625 L 1.09375 0 L 2.4375 0 Z M 2.4375 -11.65625 "/>
</symbol>
<symbol overflow="visible" id="glyph0-15">
<path style="stroke:none;" d="M 7.71875 0 L 7.71875 -8.390625 L 6.390625 -8.390625 L 6.390625 -3.625 C 6.390625 -1.921875 5.484375 -0.796875 4.09375 -0.796875 C 3.046875 -0.796875 2.375 -1.4375 2.375 -2.453125 L 2.375 -8.390625 L 1.046875 -8.390625 L 1.046875 -1.921875 C 1.046875 -0.53125 2.078125 0.375 3.71875 0.375 C 4.9375 0.375 5.734375 -0.0625 6.515625 -1.171875 L 6.515625 0 Z M 7.71875 0 "/>
</symbol>
<symbol overflow="visible" id="glyph0-16">
<path style="stroke:none;" d="M 4.0625 -8.390625 L 2.6875 -8.390625 L 2.6875 -10.6875 L 1.359375 -10.6875 L 1.359375 -8.390625 L 0.21875 -8.390625 L 0.21875 -7.296875 L 1.359375 -7.296875 L 1.359375 -0.953125 C 1.359375 -0.109375 1.9375 0.375 2.96875 0.375 C 3.296875 0.375 3.609375 0.34375 4.0625 0.25 L 4.0625 -0.859375 C 3.890625 -0.8125 3.6875 -0.796875 3.421875 -0.796875 C 2.84375 -0.796875 2.6875 -0.953125 2.6875 -1.546875 L 2.6875 -7.296875 L 4.0625 -7.296875 Z M 4.0625 -8.390625 "/>
</symbol>
<symbol overflow="visible" id="glyph0-17">
<path style="stroke:none;" d="M 2.40625 -8.390625 L 1.078125 -8.390625 L 1.078125 0 L 2.40625 0 Z M 2.40625 -11.65625 L 1.0625 -11.65625 L 1.0625 -9.984375 L 2.40625 -9.984375 Z M 2.40625 -11.65625 "/>
</symbol>
<symbol overflow="visible" id="glyph0-18">
<path style="stroke:none;" d="M 1.125 -8.390625 L 1.125 0 L 2.46875 0 L 2.46875 -4.625 C 2.46875 -6.34375 3.359375 -7.453125 4.734375 -7.453125 C 5.796875 -7.453125 6.46875 -6.8125 6.46875 -5.8125 L 6.46875 0 L 7.796875 0 L 7.796875 -6.34375 C 7.796875 -7.734375 6.75 -8.625 5.140625 -8.625 C 3.890625 -8.625 3.09375 -8.140625 2.359375 -6.96875 L 2.359375 -8.390625 Z M 1.125 -8.390625 "/>
</symbol>
<symbol overflow="visible" id="glyph0-19">
<path style="stroke:none;" d=""/>
</symbol>
<symbol overflow="visible" id="glyph0-20">
<path style="stroke:none;" d="M 4.125 -8.390625 L 2.734375 -8.390625 L 2.734375 -9.703125 C 2.734375 -10.25 3.0625 -10.546875 3.65625 -10.546875 C 3.78125 -10.546875 3.828125 -10.546875 4.125 -10.53125 L 4.125 -11.625 C 3.828125 -11.703125 3.640625 -11.71875 3.375 -11.71875 C 2.140625 -11.71875 1.40625 -11.015625 1.40625 -9.8125 L 1.40625 -8.390625 L 0.28125 -8.390625 L 0.28125 -7.296875 L 1.40625 -7.296875 L 1.40625 0 L 2.734375 0 L 2.734375 -7.296875 L 4.125 -7.296875 Z M 4.125 -8.390625 "/>
</symbol>
<symbol overflow="visible" id="glyph0-21">
<path style="stroke:none;" d="M 1.125 -11.65625 L 1.125 0 L 2.453125 0 L 2.453125 -4.625 C 2.453125 -6.34375 3.34375 -7.453125 4.71875 -7.453125 C 5.15625 -7.453125 5.578125 -7.3125 5.90625 -7.078125 C 6.28125 -6.796875 6.453125 -6.40625 6.453125 -5.8125 L 6.453125 0 L 7.78125 0 L 7.78125 -6.34375 C 7.78125 -7.75 6.765625 -8.625 5.140625 -8.625 C 3.953125 -8.625 3.234375 -8.25 2.453125 -7.234375 L 2.453125 -11.65625 Z M 1.125 -11.65625 "/>
</symbol>
<symbol overflow="visible" id="glyph0-22">
<path style="stroke:none;" d="M 1.109375 -8.390625 L 1.109375 0 L 2.453125 0 L 2.453125 -4.359375 C 2.453125 -5.546875 2.75 -6.34375 3.390625 -6.796875 C 3.8125 -7.109375 4.203125 -7.203125 5.140625 -7.21875 L 5.140625 -8.578125 C 4.90625 -8.609375 4.796875 -8.625 4.625 -8.625 C 3.765625 -8.625 3.109375 -8.109375 2.34375 -6.859375 L 2.34375 -8.390625 Z M 1.109375 -8.390625 "/>
</symbol>
<symbol overflow="visible" id="glyph0-23">
<path style="stroke:none;" d="M 6.59375 -8.390625 L 6.59375 -7.171875 C 5.921875 -8.15625 5.109375 -8.625 4.03125 -8.625 C 1.90625 -8.625 0.46875 -6.765625 0.46875 -4.046875 C 0.46875 -2.671875 0.828125 -1.546875 1.515625 -0.75 C 2.140625 -0.046875 3.046875 0.375 3.921875 0.375 C 4.96875 0.375 5.71875 -0.078125 6.46875 -1.140625 L 6.46875 -0.703125 C 6.46875 0.4375 6.3125 1.125 5.984375 1.578125 C 5.625 2.078125 4.9375 2.375 4.125 2.375 C 3.515625 2.375 2.96875 2.203125 2.609375 1.921875 C 2.296875 1.6875 2.171875 1.453125 2.09375 0.953125 L 0.734375 0.953125 C 0.875 2.546875 2.109375 3.484375 4.078125 3.484375 C 5.328125 3.484375 6.40625 3.09375 6.9375 2.421875 C 7.578125 1.640625 7.828125 0.59375 7.828125 -1.375 L 7.828125 -8.390625 Z M 4.171875 -7.390625 C 5.609375 -7.390625 6.46875 -6.171875 6.46875 -4.078125 C 6.46875 -2.078125 5.59375 -0.859375 4.1875 -0.859375 C 2.734375 -0.859375 1.859375 -2.09375 1.859375 -4.125 C 1.859375 -6.140625 2.75 -7.390625 4.171875 -7.390625 Z M 4.171875 -7.390625 "/>
</symbol>
<symbol overflow="visible" id="glyph0-24">
<path style="stroke:none;" d="M 0.859375 3.484375 L 2.203125 3.484375 L 2.203125 -0.875 C 2.90625 -0.015625 3.703125 0.375 4.78125 0.375 C 6.9375 0.375 8.375 -1.375 8.375 -4.046875 C 8.375 -6.859375 6.984375 -8.625 4.765625 -8.625 C 3.625 -8.625 2.71875 -8.109375 2.09375 -7.125 L 2.09375 -8.390625 L 0.859375 -8.390625 Z M 4.546875 -7.375 C 6.015625 -7.375 6.96875 -6.078125 6.96875 -4.078125 C 6.96875 -2.171875 6 -0.875 4.546875 -0.875 C 3.140625 -0.875 2.203125 -2.15625 2.203125 -4.125 C 2.203125 -6.09375 3.140625 -7.375 4.546875 -7.375 Z M 4.546875 -7.375 "/>
</symbol>
<symbol overflow="visible" id="glyph0-25">
<path style="stroke:none;" d="M 8.859375 0 L 11.328125 -8.390625 L 9.828125 -8.390625 L 8.15625 -1.859375 L 6.515625 -8.390625 L 4.875 -8.390625 L 3.28125 -1.859375 L 1.5625 -8.390625 L 0.09375 -8.390625 L 2.53125 0 L 4.03125 0 L 5.640625 -6.578125 L 7.34375 0 Z M 8.859375 0 "/>
</symbol>
<symbol overflow="visible" id="glyph1-0">
<path style="stroke:none;" d=""/>
</symbol>
<symbol overflow="visible" id="glyph1-1">
<path style="stroke:none;" d="M 1.265625 0.984375 C 1.265625 1.84375 1.140625 2.9375 0.96875 3.546875 L 2.28125 3.546875 C 2.5 3.1875 2.546875 2.75 2.546875 1.5 L 2.546875 -0.671875 C 3.390625 -0.03125 4.09375 0.203125 5.03125 0.203125 C 6.921875 0.203125 8.234375 -1.203125 8.234375 -3.265625 C 8.234375 -4.96875 7.390625 -6.171875 5.625 -6.921875 C 6.84375 -7.578125 7.421875 -8.3125 7.421875 -9.234375 C 7.421875 -10.65625 6 -11.84375 4.28125 -11.84375 C 2.5625 -11.84375 1.265625 -10.703125 1.265625 -9.1875 Z M 2.546875 -9.34375 C 2.546875 -10.46875 3.21875 -11.25 4.15625 -11.25 C 5.171875 -11.25 5.890625 -10.3125 5.890625 -9.046875 C 5.890625 -8.1875 5.4375 -7.28125 5.03125 -7.28125 C 4.96875 -7.28125 4.921875 -7.28125 4.671875 -7.34375 C 4.4375 -7.390625 4.296875 -7.40625 4.171875 -7.40625 C 3.796875 -7.40625 3.484375 -7.15625 3.484375 -6.84375 C 3.484375 -6.546875 3.78125 -6.359375 4.1875 -6.359375 C 4.28125 -6.359375 4.375 -6.375 4.53125 -6.40625 C 4.71875 -6.453125 4.875 -6.46875 5.015625 -6.46875 C 5.21875 -6.46875 5.328125 -6.4375 5.421875 -6.34375 C 6.140625 -5.65625 6.578125 -4.453125 6.578125 -3.140625 C 6.578125 -1.53125 5.875 -0.59375 4.6875 -0.59375 C 3.890625 -0.59375 3.09375 -0.953125 2.546875 -1.578125 Z M 2.546875 -9.34375 "/>
</symbol>
<symbol overflow="visible" id="glyph1-2">
<path style="stroke:none;" d="M 4.21875 -10.96875 C 3.59375 -10.96875 2.953125 -10.71875 2.375 -10.21875 C 1.28125 -9.34375 0.6875 -7.609375 0.6875 -5.375 C 0.6875 -3.28125 1.21875 -1.625 2.15625 -0.71875 C 2.78125 -0.125 3.53125 0.203125 4.21875 0.203125 C 4.84375 0.203125 5.46875 -0.046875 6.078125 -0.546875 C 7.15625 -1.421875 7.765625 -3.140625 7.765625 -5.296875 C 7.765625 -7.484375 7.25 -9.125 6.28125 -10.046875 C 5.65625 -10.640625 4.921875 -10.96875 4.21875 -10.96875 Z M 6.109375 -4.984375 C 6.078125 -3.171875 5.890625 -2.125 5.421875 -1.28125 C 5.140625 -0.78125 4.625 -0.421875 4.21875 -0.421875 C 3.8125 -0.421875 3.296875 -0.796875 3.03125 -1.28125 C 2.5625 -2.125 2.375 -3.171875 2.34375 -4.984375 Z M 2.34375 -5.890625 C 2.375 -7.625 2.578125 -8.6875 3.03125 -9.515625 C 3.296875 -10 3.828125 -10.390625 4.21875 -10.390625 C 4.625 -10.390625 5.15625 -10 5.421875 -9.515625 C 5.875 -8.6875 6.078125 -7.625 6.109375 -5.890625 Z M 2.34375 -5.890625 "/>
</symbol>
<symbol overflow="visible" id="glyph2-0">
<path style="stroke:none;" d=""/>
</symbol>
<symbol overflow="visible" id="glyph2-1">
<path style="stroke:none;" d="M -5.03125 -2.96875 L -5.03125 -6.8125 C -5.03125 -8.140625 -4.390625 -8.734375 -2.9375 -8.734375 L -1.90625 -8.71875 C -1.1875 -8.71875 -0.484375 -8.84375 0 -9.0625 L 0 -10.859375 L -0.375 -10.859375 C -0.75 -10.296875 -1.171875 -10.1875 -2.71875 -10.15625 C -4.640625 -10.140625 -5.21875 -9.84375 -5.765625 -8.578125 C -6.40625 -9.890625 -7.21875 -10.421875 -8.546875 -10.421875 C -10.5625 -10.421875 -11.65625 -9.15625 -11.65625 -6.859375 L -11.65625 -1.484375 L 0 -1.484375 L 0 -2.96875 Z M -6.34375 -2.96875 L -10.359375 -2.96875 L -10.359375 -6.578125 C -10.359375 -7.40625 -10.21875 -7.890625 -9.90625 -8.25 C -9.5625 -8.65625 -9.046875 -8.859375 -8.34375 -8.859375 C -6.953125 -8.859375 -6.34375 -8.15625 -6.34375 -6.578125 Z M -6.34375 -2.96875 "/>
</symbol>
<symbol overflow="visible" id="glyph2-2">
<path style="stroke:none;" d="M -11.65625 -3.78125 C -9.5625 -2.171875 -6.65625 -1.171875 -4.140625 -1.171875 C -1.609375 -1.171875 1.296875 -2.171875 3.390625 -3.78125 L 3.390625 -4.65625 C 1.109375 -3.25 -1.578125 -2.46875 -4.140625 -2.46875 C -6.6875 -2.46875 -9.390625 -3.25 -11.65625 -4.65625 Z M -11.65625 -3.78125 "/>
</symbol>
<symbol overflow="visible" id="glyph2-3">
<path style="stroke:none;" d="M -8.390625 -4.0625 L -8.390625 -2.6875 L -10.6875 -2.6875 L -10.6875 -1.359375 L -8.390625 -1.359375 L -8.390625 -0.21875 L -7.296875 -0.21875 L -7.296875 -1.359375 L -0.953125 -1.359375 C -0.109375 -1.359375 0.375 -1.9375 0.375 -2.96875 C 0.375 -3.296875 0.34375 -3.609375 0.25 -4.0625 L -0.859375 -4.0625 C -0.8125 -3.890625 -0.796875 -3.6875 -0.796875 -3.421875 C -0.796875 -2.84375 -0.953125 -2.6875 -1.546875 -2.6875 L -7.296875 -2.6875 L -7.296875 -4.0625 Z M -8.390625 -4.0625 "/>
</symbol>
<symbol overflow="visible" id="glyph2-4">
<path style="stroke:none;" d="M 3.390625 -1.484375 C 1.296875 -3.09375 -1.609375 -4.09375 -4.125 -4.09375 C -6.65625 -4.09375 -9.5625 -3.09375 -11.65625 -1.484375 L -11.65625 -0.609375 C -9.375 -2.015625 -6.6875 -2.796875 -4.125 -2.796875 C -1.578125 -2.796875 1.125 -2.015625 3.390625 -0.609375 Z M 3.390625 -1.484375 "/>
</symbol>
<symbol overflow="visible" id="glyph2-5">
<path style="stroke:none;" d="M -11.65625 -3.65625 L 0.3125 0.125 L 0.3125 -0.75 L -11.65625 -4.546875 Z M -11.65625 -3.65625 "/>
</symbol>
<symbol overflow="visible" id="glyph2-6">
<path style="stroke:none;" d=""/>
</symbol>
<symbol overflow="visible" id="glyph2-7">
<path style="stroke:none;" d="M -11.65625 -4 L -11.65625 -1.03125 L 3.390625 -1.03125 L 3.390625 -4 L 2.234375 -4 L 2.234375 -2.359375 L -10.515625 -2.359375 L -10.515625 -4 Z M -11.65625 -4 "/>
</symbol>
<symbol overflow="visible" id="glyph2-8">
<path style="stroke:none;" d="M -11.65625 -0.859375 L 0 -0.859375 L 0 -2.0625 L -1.078125 -2.0625 C -0.09375 -2.703125 0.375 -3.546875 0.375 -4.71875 C 0.375 -6.921875 -1.4375 -8.375 -4.21875 -8.375 C -6.9375 -8.375 -8.625 -6.984375 -8.625 -4.78125 C -8.625 -3.625 -8.1875 -2.8125 -7.25 -2.1875 L -11.65625 -2.1875 Z M -7.375 -4.53125 C -7.375 -6.015625 -6.078125 -6.96875 -4.078125 -6.96875 C -2.171875 -6.96875 -0.875 -5.984375 -0.875 -4.53125 C -0.875 -3.125 -2.15625 -2.1875 -4.125 -2.1875 C -6.09375 -2.1875 -7.375 -3.125 -7.375 -4.53125 Z M -7.375 -4.53125 "/>
</symbol>
<symbol overflow="visible" id="glyph2-9">
<path style="stroke:none;" d="M 3.484375 -0.859375 L 3.484375 -2.203125 L -0.875 -2.203125 C -0.015625 -2.90625 0.375 -3.703125 0.375 -4.78125 C 0.375 -6.9375 -1.375 -8.375 -4.046875 -8.375 C -6.859375 -8.375 -8.625 -6.984375 -8.625 -4.765625 C -8.625 -3.625 -8.109375 -2.71875 -7.125 -2.09375 L -8.390625 -2.09375 L -8.390625 -0.859375 Z M -7.375 -4.546875 C -7.375 -6.015625 -6.078125 -6.96875 -4.078125 -6.96875 C -2.171875 -6.96875 -0.875 -6 -0.875 -4.546875 C -0.875 -3.140625 -2.15625 -2.203125 -4.125 -2.203125 C -6.09375 -2.203125 -7.375 -3.140625 -7.375 -4.546875 Z M -7.375 -4.546875 "/>
</symbol>
<symbol overflow="visible" id="glyph2-10">
<path style="stroke:none;" d="M -6.046875 -7.015625 C -7.703125 -6.984375 -8.625 -5.90625 -8.625 -3.96875 C -8.625 -2.015625 -7.609375 -0.75 -6.0625 -0.75 C -4.75 -0.75 -4.125 -1.421875 -3.640625 -3.40625 L -3.34375 -4.65625 C -3.125 -5.578125 -2.78125 -5.953125 -2.171875 -5.953125 C -1.390625 -5.953125 -0.859375 -5.171875 -0.859375 -4 C -0.859375 -3.28125 -1.078125 -2.671875 -1.421875 -2.34375 C -1.65625 -2.125 -1.90625 -2.03125 -2.5 -1.953125 L -2.5 -0.546875 C -0.5625 -0.609375 0.375 -1.703125 0.375 -3.890625 C 0.375 -6 -0.671875 -7.34375 -2.28125 -7.34375 C -3.53125 -7.34375 -4.21875 -6.640625 -4.625 -4.96875 L -4.921875 -3.703125 C -5.1875 -2.609375 -5.53125 -2.140625 -6.125 -2.140625 C -6.890625 -2.140625 -7.390625 -2.828125 -7.390625 -3.921875 C -7.390625 -4.984375 -6.921875 -5.5625 -6.046875 -5.59375 Z M -6.046875 -7.015625 "/>
</symbol>
<symbol overflow="visible" id="glyph2-11">
<path style="stroke:none;" d="M 3.390625 -0.375 L 3.390625 -3.34375 L -11.65625 -3.34375 L -11.65625 -0.375 L -10.515625 -0.375 L -10.515625 -2.015625 L 2.234375 -2.015625 L 2.234375 -0.375 Z M 3.390625 -0.375 "/>
</symbol>
<symbol overflow="visible" id="glyph3-0">
<path style="stroke:none;" d=""/>
</symbol>
<symbol overflow="visible" id="glyph3-1">
<path style="stroke:none;" d="M -9.125 -1.203125 C -10.03125 -1.3125 -10.5625 -1.78125 -10.5625 -2.5 C -10.5625 -3.015625 -10.15625 -3.4375 -9.4375 -3.6875 C -9.125 -3.796875 -8.59375 -3.9375 -7.984375 -4.078125 L 0 -0.390625 L 0 -1.890625 L -5.734375 -4.609375 C -2.609375 -5.125 -1.46875 -5.375 -0.84375 -5.65625 C -0.15625 -6.015625 0.203125 -6.53125 0.203125 -7.125 C 0.203125 -7.75 -0.171875 -8.234375 -0.875 -8.515625 C -1.3125 -8.6875 -1.75 -8.75 -2.5 -8.765625 L -2.5 -8.4375 C -1.65625 -8.296875 -1.203125 -7.9375 -1.203125 -7.359375 C -1.203125 -6.875 -1.5 -6.46875 -2.0625 -6.203125 C -2.484375 -6 -2.890625 -5.890625 -4.078125 -5.65625 L -6.140625 -5.234375 C -6.1875 -5.21875 -6.296875 -5.203125 -6.46875 -5.171875 C -8.53125 -4.796875 -10.484375 -4.21875 -11.0625 -3.84375 C -11.5625 -3.484375 -11.84375 -3.015625 -11.84375 -2.484375 C -11.84375 -1.5 -11.015625 -0.984375 -9.125 -0.8125 Z M -9.125 -1.203125 "/>
</symbol>
<symbol overflow="visible" id="glyph4-0">
<path style="stroke:none;" d=""/>
</symbol>
<symbol overflow="visible" id="glyph4-1">
<path style="stroke:none;" d=""/>
</symbol>
<symbol overflow="visible" id="glyph5-0">
<path style="stroke:none;" d=""/>
</symbol>
<symbol overflow="visible" id="glyph5-1">
<path style="stroke:none;" d="M 3.109375 -6.0625 L 3.109375 0 L 4.15625 0 L 4.15625 -8.515625 L 3.46875 -8.515625 C 3.09375 -7.203125 2.859375 -7.015625 1.21875 -6.8125 L 1.21875 -6.0625 Z M 3.109375 -6.0625 "/>
</symbol>
<symbol overflow="visible" id="glyph5-2">
<path style="stroke:none;" d="M 6.078125 -1.046875 L 1.59375 -1.046875 C 1.703125 -1.734375 2.09375 -2.1875 3.125 -2.796875 L 4.328125 -3.4375 C 5.515625 -4.09375 6.125 -4.96875 6.125 -6.015625 C 6.125 -6.71875 5.84375 -7.375 5.34375 -7.84375 C 4.84375 -8.296875 4.21875 -8.515625 3.40625 -8.515625 C 2.328125 -8.515625 1.53125 -8.125 1.0625 -7.40625 C 0.75 -6.953125 0.625 -6.421875 0.59375 -5.5625 L 1.65625 -5.5625 C 1.6875 -6.125 1.765625 -6.484375 1.90625 -6.75 C 2.1875 -7.265625 2.734375 -7.578125 3.375 -7.578125 C 4.328125 -7.578125 5.046875 -6.90625 5.046875 -5.984375 C 5.046875 -5.3125 4.65625 -4.734375 3.90625 -4.3125 L 2.796875 -3.6875 C 1.015625 -2.671875 0.5 -1.875 0.40625 0 L 6.078125 0 Z M 6.078125 -1.046875 "/>
</symbol>
</g>
<clipPath id="clip1">
  <path d="M 0.5 3 L 521 3 L 521 427.601562 L 0.5 427.601562 Z M 0.5 3 "/>
</clipPath>
<clipPath id="clip2">
  <path d="M 75 41 L 508.332031 41 L 508.332031 275 L 75 275 Z M 75 41 "/>
</clipPath>
<clipPath id="clip3">
  <path d="M 75 298 L 508.332031 298 L 508.332031 357 L 75 357 Z M 75 298 "/>
</clipPath>
</defs>
<g id="surface1">
<g clip-path="url(#clip1)" clip-rule="nonzero">
<path style=" stroke:none;fill-rule:nonzero;fill:rgb(100%,100%,100%);fill-opacity:1;" d="M 0 428 L 563.082031 428 L 563.082031 3 L 0 3 Z M 0 428 "/>
</g>
<path style=" stroke:none;fill-rule:evenodd;fill:rgb(100%,100%,100%);fill-opacity:1;" d="M 61.917969 387.582031 L 508.25 387.582031 L 508.25 35.417969 L 61.917969 35.417969 Z M 61.917969 387.582031 "/>
<path style="fill:none;stroke-width:5;stroke-linecap:butt;stroke-linejoin:round;stroke:rgb(100%,100%,100%);stroke-opacity:1;stroke-miterlimit:10;" d="M 619.179688 404.179688 L 619.179688 3925.820312 L 5082.5 3925.820312 L 5082.5 404.179688 L 619.179688 404.179688 " transform="matrix(0.1,0,0,-0.1,0,428)"/>
<path style="fill:none;stroke-width:5;stroke-linecap:butt;stroke-linejoin:round;stroke:rgb(0%,0%,0%);stroke-opacity:1;stroke-miterlimit:10;" d="M 619.179688 404.179688 L 5082.5 404.179688 " transform="matrix(0.1,0,0,-0.1,0,428)"/>
<path style="fill:none;stroke-width:5;stroke-linecap:butt;stroke-linejoin:round;stroke:rgb(0%,0%,0%);stroke-opacity:1;stroke-miterlimit:10;" d="M 619.179688 3925.820312 L 5082.5 3925.820312 " transform="matrix(0.1,0,0,-0.1,0,428)"/>
<path style="fill:none;stroke-width:5;stroke-linecap:butt;stroke-linejoin:round;stroke:rgb(0%,0%,0%);stroke-opacity:1;stroke-miterlimit:10;" d="M 619.179688 404.179688 L 619.179688 3925.820312 " transform="matrix(0.1,0,0,-0.1,0,428)"/>
<path style="fill:none;stroke-width:5;stroke-linecap:butt;stroke-linejoin:round;stroke:rgb(0%,0%,0%);stroke-opacity:1;stroke-miterlimit:10;" d="M 5082.5 404.179688 L 5082.5 3925.820312 " transform="matrix(0.1,0,0,-0.1,0,428)"/>
<path style="fill:none;stroke-width:5;stroke-linecap:butt;stroke-linejoin:round;stroke:rgb(0%,0%,0%);stroke-opacity:1;stroke-miterlimit:10;" d="M 619.179688 404.179688 L 5082.5 404.179688 " transform="matrix(0.1,0,0,-0.1,0,428)"/>
<path style="fill:none;stroke-width:5;stroke-linecap:butt;stroke-linejoin:round;stroke:rgb(0%,0%,0%);stroke-opacity:1;stroke-miterlimit:10;" d="M 619.179688 404.179688 L 619.179688 3925.820312 " transform="matrix(0.1,0,0,-0.1,0,428)"/>
<path style="fill:none;stroke-width:5;stroke-linecap:butt;stroke-linejoin:round;stroke:rgb(0%,0%,0%);stroke-opacity:1;stroke-miterlimit:10;" d="M 619.179688 404.179688 L 619.179688 449.179688 " transform="matrix(0.1,0,0,-0.1,0,428)"/>
<path style="fill:none;stroke-width:5;stroke-linecap:butt;stroke-linejoin:round;stroke:rgb(0%,0%,0%);stroke-opacity:1;stroke-miterlimit:10;" d="M 619.179688 3925.820312 L 619.179688 3881.679688 " transform="matrix(0.1,0,0,-0.1,0,428)"/>
<g style="fill:rgb(0%,0%,0%);fill-opacity:1;">
  <use xlink:href="#glyph0-1" x="57.5" y="405.25"/>
</g>
<path style="fill:none;stroke-width:5;stroke-linecap:butt;stroke-linejoin:round;stroke:rgb(0%,0%,0%);stroke-opacity:1;stroke-miterlimit:10;" d="M 1362.5 404.179688 L 1362.5 449.179688 " transform="matrix(0.1,0,0,-0.1,0,428)"/>
<path style="fill:none;stroke-width:5;stroke-linecap:butt;stroke-linejoin:round;stroke:rgb(0%,0%,0%);stroke-opacity:1;stroke-miterlimit:10;" d="M 1362.5 3925.820312 L 1362.5 3881.679688 " transform="matrix(0.1,0,0,-0.1,0,428)"/>
<g style="fill:rgb(0%,0%,0%);fill-opacity:1;">
  <use xlink:href="#glyph0-2" x="131.833" y="405.25"/>
</g>
<path style="fill:none;stroke-width:5;stroke-linecap:butt;stroke-linejoin:round;stroke:rgb(0%,0%,0%);stroke-opacity:1;stroke-miterlimit:10;" d="M 2106.679688 404.179688 L 2106.679688 449.179688 " transform="matrix(0.1,0,0,-0.1,0,428)"/>
<path style="fill:none;stroke-width:5;stroke-linecap:butt;stroke-linejoin:round;stroke:rgb(0%,0%,0%);stroke-opacity:1;stroke-miterlimit:10;" d="M 2106.679688 3925.820312 L 2106.679688 3881.679688 " transform="matrix(0.1,0,0,-0.1,0,428)"/>
<g style="fill:rgb(0%,0%,0%);fill-opacity:1;">
  <use xlink:href="#glyph0-3" x="201.833" y="405.25"/>
  <use xlink:href="#glyph0-1" x="210.729" y="405.25"/>
</g>
<path style="fill:none;stroke-width:5;stroke-linecap:butt;stroke-linejoin:round;stroke:rgb(0%,0%,0%);stroke-opacity:1;stroke-miterlimit:10;" d="M 2850.820312 404.179688 L 2850.820312 449.179688 " transform="matrix(0.1,0,0,-0.1,0,428)"/>
<path style="fill:none;stroke-width:5;stroke-linecap:butt;stroke-linejoin:round;stroke:rgb(0%,0%,0%);stroke-opacity:1;stroke-miterlimit:10;" d="M 2850.820312 3925.820312 L 2850.820312 3881.679688 " transform="matrix(0.1,0,0,-0.1,0,428)"/>
<g style="fill:rgb(0%,0%,0%);fill-opacity:1;">
  <use xlink:href="#glyph0-3" x="276.25" y="405.25"/>
  <use xlink:href="#glyph0-2" x="285.146" y="405.25"/>
</g>
<path style="fill:none;stroke-width:5;stroke-linecap:butt;stroke-linejoin:round;stroke:rgb(0%,0%,0%);stroke-opacity:1;stroke-miterlimit:10;" d="M 3594.179688 404.179688 L 3594.179688 449.179688 " transform="matrix(0.1,0,0,-0.1,0,428)"/>
<path style="fill:none;stroke-width:5;stroke-linecap:butt;stroke-linejoin:round;stroke:rgb(0%,0%,0%);stroke-opacity:1;stroke-miterlimit:10;" d="M 3594.179688 3925.820312 L 3594.179688 3881.679688 " transform="matrix(0.1,0,0,-0.1,0,428)"/>
<g style="fill:rgb(0%,0%,0%);fill-opacity:1;">
  <use xlink:href="#glyph0-4" x="350.583" y="405.25"/>
  <use xlink:href="#glyph0-1" x="359.479" y="405.25"/>
</g>
<path style="fill:none;stroke-width:5;stroke-linecap:butt;stroke-linejoin:round;stroke:rgb(0%,0%,0%);stroke-opacity:1;stroke-miterlimit:10;" d="M 4338.320312 404.179688 L 4338.320312 449.179688 " transform="matrix(0.1,0,0,-0.1,0,428)"/>
<path style="fill:none;stroke-width:5;stroke-linecap:butt;stroke-linejoin:round;stroke:rgb(0%,0%,0%);stroke-opacity:1;stroke-miterlimit:10;" d="M 4338.320312 3925.820312 L 4338.320312 3881.679688 " transform="matrix(0.1,0,0,-0.1,0,428)"/>
<g style="fill:rgb(0%,0%,0%);fill-opacity:1;">
  <use xlink:href="#glyph0-4" x="425" y="405.25"/>
  <use xlink:href="#glyph0-2" x="433.896" y="405.25"/>
</g>
<path style="fill:none;stroke-width:5;stroke-linecap:butt;stroke-linejoin:round;stroke:rgb(0%,0%,0%);stroke-opacity:1;stroke-miterlimit:10;" d="M 5082.5 404.179688 L 5082.5 449.179688 " transform="matrix(0.1,0,0,-0.1,0,428)"/>
<path style="fill:none;stroke-width:5;stroke-linecap:butt;stroke-linejoin:round;stroke:rgb(0%,0%,0%);stroke-opacity:1;stroke-miterlimit:10;" d="M 5082.5 3925.820312 L 5082.5 3881.679688 " transform="matrix(0.1,0,0,-0.1,0,428)"/>
<g style="fill:rgb(0%,0%,0%);fill-opacity:1;">
  <use xlink:href="#glyph0-5" x="499.417" y="405.25"/>
  <use xlink:href="#glyph0-1" x="508.313" y="405.25"/>
</g>
<path style="fill:none;stroke-width:5;stroke-linecap:butt;stroke-linejoin:round;stroke:rgb(0%,0%,0%);stroke-opacity:1;stroke-miterlimit:10;" d="M 619.179688 404.179688 L 663.320312 404.179688 " transform="matrix(0.1,0,0,-0.1,0,428)"/>
<path style="fill:none;stroke-width:5;stroke-linecap:butt;stroke-linejoin:round;stroke:rgb(0%,0%,0%);stroke-opacity:1;stroke-miterlimit:10;" d="M 5082.5 404.179688 L 5037.5 404.179688 " transform="matrix(0.1,0,0,-0.1,0,428)"/>
<g style="fill:rgb(0%,0%,0%);fill-opacity:1;">
  <use xlink:href="#glyph0-1" x="36.8332" y="393.5"/>
  <use xlink:href="#glyph0-6" x="45.7292" y="393.5"/>
  <use xlink:href="#glyph0-7" x="50.1772" y="393.5"/>
</g>
<path style="fill:none;stroke-width:5;stroke-linecap:butt;stroke-linejoin:round;stroke:rgb(0%,0%,0%);stroke-opacity:1;stroke-miterlimit:10;" d="M 619.179688 845 L 663.320312 845 " transform="matrix(0.1,0,0,-0.1,0,428)"/>
<path style="fill:none;stroke-width:5;stroke-linecap:butt;stroke-linejoin:round;stroke:rgb(0%,0%,0%);stroke-opacity:1;stroke-miterlimit:10;" d="M 5082.5 845 L 5037.5 845 " transform="matrix(0.1,0,0,-0.1,0,428)"/>
<g style="fill:rgb(0%,0%,0%);fill-opacity:1;">
  <use xlink:href="#glyph0-1" x="27.9168" y="349.4168"/>
  <use xlink:href="#glyph0-6" x="36.8128" y="349.4168"/>
  <use xlink:href="#glyph0-7" x="41.2608" y="349.4168"/>
  <use xlink:href="#glyph0-2" x="50.1568" y="349.4168"/>
</g>
<path style="fill:none;stroke-width:5;stroke-linecap:butt;stroke-linejoin:round;stroke:rgb(0%,0%,0%);stroke-opacity:1;stroke-miterlimit:10;" d="M 619.179688 1285 L 663.320312 1285 " transform="matrix(0.1,0,0,-0.1,0,428)"/>
<path style="fill:none;stroke-width:5;stroke-linecap:butt;stroke-linejoin:round;stroke:rgb(0%,0%,0%);stroke-opacity:1;stroke-miterlimit:10;" d="M 5082.5 1285 L 5037.5 1285 " transform="matrix(0.1,0,0,-0.1,0,428)"/>
<g style="fill:rgb(0%,0%,0%);fill-opacity:1;">
  <use xlink:href="#glyph0-1" x="36.8332" y="305.417"/>
  <use xlink:href="#glyph0-6" x="45.7292" y="305.417"/>
  <use xlink:href="#glyph0-2" x="50.1772" y="305.417"/>
</g>
<path style="fill:none;stroke-width:5;stroke-linecap:butt;stroke-linejoin:round;stroke:rgb(0%,0%,0%);stroke-opacity:1;stroke-miterlimit:10;" d="M 619.179688 1725 L 663.320312 1725 " transform="matrix(0.1,0,0,-0.1,0,428)"/>
<path style="fill:none;stroke-width:5;stroke-linecap:butt;stroke-linejoin:round;stroke:rgb(0%,0%,0%);stroke-opacity:1;stroke-miterlimit:10;" d="M 5082.5 1725 L 5037.5 1725 " transform="matrix(0.1,0,0,-0.1,0,428)"/>
<g style="fill:rgb(0%,0%,0%);fill-opacity:1;">
  <use xlink:href="#glyph0-1" x="27.9168" y="261.417"/>
  <use xlink:href="#glyph0-6" x="36.8128" y="261.417"/>
  <use xlink:href="#glyph0-2" x="41.2608" y="261.417"/>
  <use xlink:href="#glyph0-2" x="50.1568" y="261.417"/>
</g>
<path style="fill:none;stroke-width:5;stroke-linecap:butt;stroke-linejoin:round;stroke:rgb(0%,0%,0%);stroke-opacity:1;stroke-miterlimit:10;" d="M 619.179688 2165.820312 L 663.320312 2165.820312 " transform="matrix(0.1,0,0,-0.1,0,428)"/>
<path style="fill:none;stroke-width:5;stroke-linecap:butt;stroke-linejoin:round;stroke:rgb(0%,0%,0%);stroke-opacity:1;stroke-miterlimit:10;" d="M 5082.5 2165.820312 L 5037.5 2165.820312 " transform="matrix(0.1,0,0,-0.1,0,428)"/>
<g style="fill:rgb(0%,0%,0%);fill-opacity:1;">
  <use xlink:href="#glyph0-1" x="36.8332" y="217.333"/>
  <use xlink:href="#glyph0-6" x="45.7292" y="217.333"/>
  <use xlink:href="#glyph0-8" x="50.1772" y="217.333"/>
</g>
<path style="fill:none;stroke-width:5;stroke-linecap:butt;stroke-linejoin:round;stroke:rgb(0%,0%,0%);stroke-opacity:1;stroke-miterlimit:10;" d="M 619.179688 2605.820312 L 663.320312 2605.820312 " transform="matrix(0.1,0,0,-0.1,0,428)"/>
<path style="fill:none;stroke-width:5;stroke-linecap:butt;stroke-linejoin:round;stroke:rgb(0%,0%,0%);stroke-opacity:1;stroke-miterlimit:10;" d="M 5082.5 2605.820312 L 5037.5 2605.820312 " transform="matrix(0.1,0,0,-0.1,0,428)"/>
<g style="fill:rgb(0%,0%,0%);fill-opacity:1;">
  <use xlink:href="#glyph0-1" x="27.9168" y="173.333"/>
  <use xlink:href="#glyph0-6" x="36.8128" y="173.333"/>
  <use xlink:href="#glyph0-8" x="41.2608" y="173.333"/>
  <use xlink:href="#glyph0-2" x="50.1568" y="173.333"/>
</g>
<path style="fill:none;stroke-width:5;stroke-linecap:butt;stroke-linejoin:round;stroke:rgb(0%,0%,0%);stroke-opacity:1;stroke-miterlimit:10;" d="M 619.179688 3045.820312 L 663.320312 3045.820312 " transform="matrix(0.1,0,0,-0.1,0,428)"/>
<path style="fill:none;stroke-width:5;stroke-linecap:butt;stroke-linejoin:round;stroke:rgb(0%,0%,0%);stroke-opacity:1;stroke-miterlimit:10;" d="M 5082.5 3045.820312 L 5037.5 3045.820312 " transform="matrix(0.1,0,0,-0.1,0,428)"/>
<g style="fill:rgb(0%,0%,0%);fill-opacity:1;">
  <use xlink:href="#glyph0-1" x="36.8332" y="129.333"/>
  <use xlink:href="#glyph0-6" x="45.7292" y="129.333"/>
  <use xlink:href="#glyph0-9" x="50.1772" y="129.333"/>
</g>
<path style="fill:none;stroke-width:5;stroke-linecap:butt;stroke-linejoin:round;stroke:rgb(0%,0%,0%);stroke-opacity:1;stroke-miterlimit:10;" d="M 619.179688 3485.820312 L 663.320312 3485.820312 " transform="matrix(0.1,0,0,-0.1,0,428)"/>
<path style="fill:none;stroke-width:5;stroke-linecap:butt;stroke-linejoin:round;stroke:rgb(0%,0%,0%);stroke-opacity:1;stroke-miterlimit:10;" d="M 5082.5 3485.820312 L 5037.5 3485.820312 " transform="matrix(0.1,0,0,-0.1,0,428)"/>
<g style="fill:rgb(0%,0%,0%);fill-opacity:1;">
  <use xlink:href="#glyph0-1" x="27.9168" y="85.333"/>
  <use xlink:href="#glyph0-6" x="36.8128" y="85.333"/>
  <use xlink:href="#glyph0-9" x="41.2608" y="85.333"/>
  <use xlink:href="#glyph0-2" x="50.1568" y="85.333"/>
</g>
<path style="fill:none;stroke-width:5;stroke-linecap:butt;stroke-linejoin:round;stroke:rgb(0%,0%,0%);stroke-opacity:1;stroke-miterlimit:10;" d="M 619.179688 3925.820312 L 663.320312 3925.820312 " transform="matrix(0.1,0,0,-0.1,0,428)"/>
<path style="fill:none;stroke-width:5;stroke-linecap:butt;stroke-linejoin:round;stroke:rgb(0%,0%,0%);stroke-opacity:1;stroke-miterlimit:10;" d="M 5082.5 3925.820312 L 5037.5 3925.820312 " transform="matrix(0.1,0,0,-0.1,0,428)"/>
<g style="fill:rgb(0%,0%,0%);fill-opacity:1;">
  <use xlink:href="#glyph0-1" x="36.8332" y="41.333"/>
  <use xlink:href="#glyph0-6" x="45.7292" y="41.333"/>
  <use xlink:href="#glyph0-10" x="50.1772" y="41.333"/>
</g>
<path style="fill:none;stroke-width:5;stroke-linecap:butt;stroke-linejoin:round;stroke:rgb(0%,0%,0%);stroke-opacity:1;stroke-miterlimit:10;" d="M 619.179688 404.179688 L 5082.5 404.179688 " transform="matrix(0.1,0,0,-0.1,0,428)"/>
<path style="fill:none;stroke-width:5;stroke-linecap:butt;stroke-linejoin:round;stroke:rgb(0%,0%,0%);stroke-opacity:1;stroke-miterlimit:10;" d="M 619.179688 3925.820312 L 5082.5 3925.820312 " transform="matrix(0.1,0,0,-0.1,0,428)"/>
<path style="fill:none;stroke-width:5;stroke-linecap:butt;stroke-linejoin:round;stroke:rgb(0%,0%,0%);stroke-opacity:1;stroke-miterlimit:10;" d="M 619.179688 404.179688 L 619.179688 3925.820312 " transform="matrix(0.1,0,0,-0.1,0,428)"/>
<path style="fill:none;stroke-width:5;stroke-linecap:butt;stroke-linejoin:round;stroke:rgb(0%,0%,0%);stroke-opacity:1;stroke-miterlimit:10;" d="M 5082.5 404.179688 L 5082.5 3925.820312 " transform="matrix(0.1,0,0,-0.1,0,428)"/>
<g clip-path="url(#clip2)" clip-rule="nonzero">
<path style="fill:none;stroke-width:20;stroke-linecap:butt;stroke-linejoin:round;stroke:rgb(0%,33.59375%,50.78125%);stroke-opacity:1;stroke-dasharray:5,40,60,40;stroke-miterlimit:10;" d="M 767.5 3858.320312 L 916.679688 3190 L 1065 2815.820312 L 1214.179688 2570.820312 L 1362.5 2397.5 L 1511.679688 2265.820312 L 1660 2163.320312 L 1809.179688 2080.820312 L 1957.5 2013.320312 L 2106.679688 1955.820312 L 2255 1907.5 L 2404.179688 1865.820312 L 2552.5 1829.179688 L 2701.679688 1796.679688 L 2850.820312 1768.320312 L 2999.179688 1742.5 L 3148.320312 1720 L 3296.679688 1699.179688 L 3445.820312 1680.820312 L 3594.179688 1663.320312 L 3743.320312 1647.5 L 3891.679688 1633.320312 L 4040.820312 1620 L 4189.179688 1607.5 L 4338.320312 1595.820312 L 4486.679688 1585 L 4635.820312 1575 L 4784.179688 1565.820312 L 4933.320312 1557.5 L 5082.5 1549.179688 " transform="matrix(0.1,0,0,-0.1,0,428)"/>
</g>
<g clip-path="url(#clip3)" clip-rule="nonzero">
<path style="fill:none;stroke-width:20;stroke-linecap:butt;stroke-linejoin:round;stroke:rgb(0%,50.389099%,25.389099%);stroke-opacity:1;stroke-miterlimit:10;" d="M 767.5 729.179688 L 916.679688 1016.679688 L 1065 1122.5 L 1214.179688 1174.179688 L 1362.5 1204.179688 L 1511.679688 1223.320312 L 1660 1235.820312 L 1809.179688 1245 L 1957.5 1252.5 L 2106.679688 1257.5 L 2255 1261.679688 L 2404.179688 1264.179688 L 2552.5 1266.679688 L 2701.679688 1269.179688 L 2850.820312 1270.820312 L 2999.179688 1272.5 L 3148.320312 1273.320312 L 3296.679688 1275 L 3445.820312 1275.820312 L 3594.179688 1276.679688 L 3743.320312 1277.5 L 3891.679688 1277.5 L 4040.820312 1278.320312 L 4189.179688 1279.179688 L 4338.320312 1279.179688 L 4486.679688 1280 L 4784.179688 1280 L 4933.320312 1280.820312 L 5082.5 1280.820312 " transform="matrix(0.1,0,0,-0.1,0,428)"/>
</g>
<g style="fill:rgb(0%,0%,0%);fill-opacity:1;">
  <use xlink:href="#glyph1-1" x="280.583" y="420.8332"/>
</g>
<g style="fill:rgb(0%,0%,0%);fill-opacity:1;">
  <use xlink:href="#glyph2-1" x="18.6668" y="250.833"/>
  <use xlink:href="#glyph2-2" x="18.6668" y="239.281"/>
  <use xlink:href="#glyph2-3" x="18.6668" y="233.953"/>
  <use xlink:href="#glyph2-4" x="18.6668" y="229.505"/>
  <use xlink:href="#glyph2-5" x="18.6668" y="224.177"/>
</g>
<g style="fill:rgb(0%,0%,0%);fill-opacity:1;">
  <use xlink:href="#glyph3-1" x="18.6668" y="219.7498"/>
</g>
<g style="fill:rgb(0%,0%,0%);fill-opacity:1;">
  <use xlink:href="#glyph2-6" x="18.6668" y="210.9998"/>
  <use xlink:href="#glyph2-7" x="18.6668" y="206.5518"/>
  <use xlink:href="#glyph2-8" x="18.6668" y="202.1038"/>
  <use xlink:href="#glyph2-9" x="18.6668" y="193.2078"/>
  <use xlink:href="#glyph2-10" x="18.6668" y="184.3118"/>
  <use xlink:href="#glyph2-11" x="18.6668" y="176.3118"/>
</g>
<g style="fill:rgb(0%,0%,0%);fill-opacity:1;">
  <use xlink:href="#glyph0-11" x="180.333" y="21.667"/>
  <use xlink:href="#glyph0-12" x="191.005" y="21.667"/>
  <use xlink:href="#glyph0-13" x="199.005" y="21.667"/>
  <use xlink:href="#glyph0-14" x="207.901" y="21.667"/>
  <use xlink:href="#glyph0-15" x="211.453" y="21.667"/>
  <use xlink:href="#glyph0-16" x="220.349" y="21.667"/>
  <use xlink:href="#glyph0-17" x="224.797" y="21.667"/>
  <use xlink:href="#glyph0-13" x="228.349" y="21.667"/>
  <use xlink:href="#glyph0-18" x="237.245" y="21.667"/>
  <use xlink:href="#glyph0-19" x="246.141" y="21.667"/>
  <use xlink:href="#glyph0-13" x="250.589" y="21.667"/>
  <use xlink:href="#glyph0-20" x="259.485" y="21.667"/>
  <use xlink:href="#glyph0-19" x="263.933" y="21.667"/>
  <use xlink:href="#glyph0-16" x="268.381" y="21.667"/>
  <use xlink:href="#glyph0-21" x="272.829" y="21.667"/>
  <use xlink:href="#glyph0-22" x="281.725" y="21.667"/>
  <use xlink:href="#glyph0-13" x="287.053" y="21.667"/>
  <use xlink:href="#glyph0-15" x="295.949" y="21.667"/>
  <use xlink:href="#glyph0-23" x="304.845" y="21.667"/>
  <use xlink:href="#glyph0-21" x="313.741" y="21.667"/>
  <use xlink:href="#glyph0-24" x="322.637" y="21.667"/>
  <use xlink:href="#glyph0-15" x="331.533" y="21.667"/>
  <use xlink:href="#glyph0-16" x="340.429" y="21.667"/>
  <use xlink:href="#glyph0-19" x="344.877" y="21.667"/>
  <use xlink:href="#glyph0-25" x="349.325" y="21.667"/>
  <use xlink:href="#glyph0-17" x="360.877" y="21.667"/>
  <use xlink:href="#glyph0-16" x="364.429" y="21.667"/>
  <use xlink:href="#glyph0-21" x="368.877" y="21.667"/>
  <use xlink:href="#glyph0-19" x="377.773" y="21.667"/>
</g>
<g style="fill:rgb(0%,0%,0%);fill-opacity:1;">
  <use xlink:href="#glyph1-1" x="381.75" y="21.667"/>
</g>
<g style="fill:rgb(0%,0%,0%);fill-opacity:1;">
  <use xlink:href="#glyph4-1" x="60.5" y="391.167"/>
</g>
<g style="fill:rgb(0%,0%,0%);fill-opacity:1;">
  <use xlink:href="#glyph4-1" x="506.917" y="38.917"/>
</g>
<path style=" stroke:none;fill-rule:evenodd;fill:rgb(100%,100%,100%);fill-opacity:1;" d="M 446.167969 98.75 L 503.332031 98.75 L 503.332031 40.417969 L 446.167969 40.417969 Z M 446.167969 98.75 "/>
<path style="fill:none;stroke-width:5;stroke-linecap:butt;stroke-linejoin:round;stroke:rgb(100%,100%,100%);stroke-opacity:1;stroke-miterlimit:10;" d="M 4461.679688 3292.5 L 4461.679688 3875.820312 L 5033.320312 3875.820312 L 5033.320312 3292.5 L 4461.679688 3292.5 " transform="matrix(0.1,0,0,-0.1,0,428)"/>
<path style="fill:none;stroke-width:5;stroke-linecap:butt;stroke-linejoin:round;stroke:rgb(0%,0%,0%);stroke-opacity:1;stroke-miterlimit:10;" d="M 4461.679688 3292.5 L 5033.320312 3292.5 " transform="matrix(0.1,0,0,-0.1,0,428)"/>
<path style="fill:none;stroke-width:5;stroke-linecap:butt;stroke-linejoin:round;stroke:rgb(0%,0%,0%);stroke-opacity:1;stroke-miterlimit:10;" d="M 4461.679688 3875.820312 L 5033.320312 3875.820312 " transform="matrix(0.1,0,0,-0.1,0,428)"/>
<path style="fill:none;stroke-width:5;stroke-linecap:butt;stroke-linejoin:round;stroke:rgb(0%,0%,0%);stroke-opacity:1;stroke-miterlimit:10;" d="M 4461.679688 3292.5 L 4461.679688 3875.820312 " transform="matrix(0.1,0,0,-0.1,0,428)"/>
<path style="fill:none;stroke-width:5;stroke-linecap:butt;stroke-linejoin:round;stroke:rgb(0%,0%,0%);stroke-opacity:1;stroke-miterlimit:10;" d="M 5033.320312 3292.5 L 5033.320312 3875.820312 " transform="matrix(0.1,0,0,-0.1,0,428)"/>
<path style="fill:none;stroke-width:5;stroke-linecap:butt;stroke-linejoin:round;stroke:rgb(0%,0%,0%);stroke-opacity:1;stroke-miterlimit:10;" d="M 4461.679688 3292.5 L 5033.320312 3292.5 " transform="matrix(0.1,0,0,-0.1,0,428)"/>
<path style="fill:none;stroke-width:5;stroke-linecap:butt;stroke-linejoin:round;stroke:rgb(0%,0%,0%);stroke-opacity:1;stroke-miterlimit:10;" d="M 4461.679688 3292.5 L 4461.679688 3875.820312 " transform="matrix(0.1,0,0,-0.1,0,428)"/>
<path style="fill:none;stroke-width:5;stroke-linecap:butt;stroke-linejoin:round;stroke:rgb(0%,0%,0%);stroke-opacity:1;stroke-miterlimit:10;" d="M 4461.679688 3292.5 L 5033.320312 3292.5 " transform="matrix(0.1,0,0,-0.1,0,428)"/>
<path style="fill:none;stroke-width:5;stroke-linecap:butt;stroke-linejoin:round;stroke:rgb(0%,0%,0%);stroke-opacity:1;stroke-miterlimit:10;" d="M 4461.679688 3875.820312 L 5033.320312 3875.820312 " transform="matrix(0.1,0,0,-0.1,0,428)"/>
<path style="fill:none;stroke-width:5;stroke-linecap:butt;stroke-linejoin:round;stroke:rgb(0%,0%,0%);stroke-opacity:1;stroke-miterlimit:10;" d="M 4461.679688 3292.5 L 4461.679688 3875.820312 " transform="matrix(0.1,0,0,-0.1,0,428)"/>
<path style="fill:none;stroke-width:5;stroke-linecap:butt;stroke-linejoin:round;stroke:rgb(0%,0%,0%);stroke-opacity:1;stroke-miterlimit:10;" d="M 5033.320312 3292.5 L 5033.320312 3875.820312 " transform="matrix(0.1,0,0,-0.1,0,428)"/>
<g style="fill:rgb(0%,0%,0%);fill-opacity:1;">
  <use xlink:href="#glyph1-2" x="484.167" y="53.667"/>
</g>
<g style="fill:rgb(0%,0%,0%);fill-opacity:1;">
  <use xlink:href="#glyph5-1" x="492.5002" y="61.667"/>
</g>
<path style="fill:none;stroke-width:20;stroke-linecap:butt;stroke-linejoin:round;stroke:rgb(0%,33.59375%,50.78125%);stroke-opacity:1;stroke-dasharray:5,40,60,40;stroke-miterlimit:10;" d="M 4520 3722.5 L 4811.679688 3722.5 " transform="matrix(0.1,0,0,-0.1,0,428)"/>
<g style="fill:rgb(0%,0%,0%);fill-opacity:1;">
  <use xlink:href="#glyph1-2" x="484.167" y="81.25"/>
</g>
<g style="fill:rgb(0%,0%,0%);fill-opacity:1;">
  <use xlink:href="#glyph5-2" x="492.5002" y="89.25"/>
</g>
<path style="fill:none;stroke-width:20;stroke-linecap:butt;stroke-linejoin:round;stroke:rgb(0%,50.389099%,25.389099%);stroke-opacity:1;stroke-miterlimit:10;" d="M 4520 3446.679688 L 4811.679688 3446.679688 " transform="matrix(0.1,0,0,-0.1,0,428)"/>
</g>
</svg>
