<?xml version="1.0" encoding="UTF-8" standalone="no"?>
<svg
   xmlns:dc="http://purl.org/dc/elements/1.1/"
   xmlns:cc="http://creativecommons.org/ns#"
   xmlns:rdf="http://www.w3.org/1999/02/22-rdf-syntax-ns#"
   xmlns:svg="http://www.w3.org/2000/svg"
   xmlns="http://www.w3.org/2000/svg"
   xmlns:sodipodi="http://sodipodi.sourceforge.net/DTD/sodipodi-0.dtd"
   xmlns:inkscape="http://www.inkscape.org/namespaces/inkscape"
   width="380"
   height="230"
   viewBox="114 89 201.08333 124.05234"
   id="svg2"
   version="1.1"
   inkscape:version="0.48.5 r10040"
   sodipodi:docname="LTE_relay_setup.svg">
  <sodipodi:namedview
     pagecolor="#ffffff"
     bordercolor="#666666"
     borderopacity="1"
     objecttolerance="10"
     gridtolerance="10"
     guidetolerance="10"
     inkscape:pageopacity="0"
     inkscape:pageshadow="2"
     inkscape:window-width="1855"
     inkscape:window-height="1176"
     id="namedview244"
     showgrid="false"
     showguides="true"
     inkscape:guide-bbox="true"
     inkscape:zoom="2.2883093"
     inkscape:cx="154.74591"
     inkscape:cy="83.229294"
     inkscape:window-x="1985"
     inkscape:window-y="24"
     inkscape:window-maximized="1"
     inkscape:current-layer="svg2" />
  <metadata
     id="metadata248">
    <rdf:RDF>
      <cc:Work
         rdf:about="">
        <dc:format>image/svg+xml</dc:format>
        <dc:type
           rdf:resource="http://purl.org/dc/dcmitype/StillImage" />
        <dc:title />
      </cc:Work>
    </rdf:RDF>
  </metadata>
  <defs
     id="defs246">
    <marker
       style="overflow:visible;"
       id="Arrow1Lend"
       refX="0.0"
       refY="0.0"
       orient="auto"
       inkscape:stockid="Arrow1Lend">
      <path
         transform="scale(0.8) rotate(180) translate(12.5,0)"
         style="fill-rule:evenodd;stroke:#000000;stroke-width:1.0pt;"
         d="M 0.0,0.0 L 5.0,-5.0 L -12.5,0.0 L 5.0,5.0 L 0.0,0.0 z "
         id="path4074" />
    </marker>
    <marker
       style="overflow:visible"
       id="Arrow1Lstart"
       refX="0.0"
       refY="0.0"
       orient="auto"
       inkscape:stockid="Arrow1Lstart">
      <path
         transform="scale(0.8) translate(12.5,0)"
         style="fill-rule:evenodd;stroke:#000000;stroke-width:1.0pt"
         d="M 0.0,0.0 L 5.0,-5.0 L -12.5,0.0 L 5.0,5.0 L 0.0,0.0 z "
         id="path4071" />
    </marker>
    <marker
       style="overflow:visible"
       id="Arrow1Mstart"
       refX="0.0"
       refY="0.0"
       orient="auto"
       inkscape:stockid="Arrow1Mstart">
      <path
         transform="scale(0.4) translate(10,0)"
         style="fill-rule:evenodd;stroke:#000000;stroke-width:1.0pt"
         d="M 0.0,0.0 L 5.0,-5.0 L -12.5,0.0 L 5.0,5.0 L 0.0,0.0 z "
         id="path4077" />
    </marker>
    <marker
       style="overflow:visible"
       id="Arrow2Mend"
       refX="0"
       refY="0"
       orient="auto"
       inkscape:stockid="Arrow2Mend">
      <path
         inkscape:connector-curvature="0"
         transform="scale(-0.6,-0.6)"
         d="M 8.7185878,4.0337352 -2.2072895,0.01601326 8.7185884,-4.0017078 c -1.7454984,2.3720609 -1.7354408,5.6174519 -6e-7,8.035443 z"
         style="fill-rule:evenodd;stroke-width:0.625;stroke-linejoin:round"
         id="path4024" />
    </marker>
    <marker
       style="overflow:visible"
       id="Arrow2Send"
       refX="0"
       refY="0"
       orient="auto"
       inkscape:stockid="Arrow2Send">
      <path
         inkscape:connector-curvature="0"
         transform="matrix(-0.3,0,0,-0.3,0.69,0)"
         d="M 8.7185878,4.0337352 -2.2072895,0.01601326 8.7185884,-4.0017078 c -1.7454984,2.3720609 -1.7354408,5.6174519 -6e-7,8.035443 z"
         style="fill-rule:evenodd;stroke-width:0.625;stroke-linejoin:round"
         id="path4030" />
    </marker>
    <marker
       style="overflow:visible"
       id="Arrow2Lend"
       refX="0"
       refY="0"
       orient="auto"
       inkscape:stockid="Arrow2Lend">
      <path
         inkscape:connector-curvature="0"
         transform="matrix(-1.1,0,0,-1.1,-1.1,0)"
         d="M 8.7185878,4.0337352 -2.2072895,0.01601326 8.7185884,-4.0017078 c -1.7454984,2.3720609 -1.7354408,5.6174519 -6e-7,8.035443 z"
         style="fill-rule:evenodd;stroke-width:0.625;stroke-linejoin:round"
         id="path4018" />
    </marker>
  </defs>
  <g
     transform="translate(0.97182558,-50.492957)"
     id="g4">
    <polygon
       id="polygon6"
       points="124,157 128,157 128,183 124,183 "
       style="fill:#ffffff" />
    <polygon
       id="polygon8"
       points="124,157 128,157 128,183 124,183 "
       style="fill:none;stroke:#000000;stroke-width:2;stroke-linejoin:round" />
    <ellipse
       sodipodi:ry="2"
       sodipodi:rx="4"
       sodipodi:cy="243"
       sodipodi:cx="126"
       d="m 130,243 c 0,1.10457 -1.79086,2 -4,2 -2.20914,0 -4,-0.89543 -4,-2 0,-1.10457 1.79086,-2 4,-2 2.20914,0 4,0.89543 4,2 z"
       id="ellipse10"
       ry="2"
       rx="4"
       cy="243"
       cx="126"
       style="fill:#ffffff" />
    <path
       inkscape:connector-curvature="0"
       id="path12"
       d="m 122,243 a 4,2 0 1 0 8,0"
       style="fill:none;stroke:#000000;stroke-width:2;stroke-linejoin:round" />
    <rect
       id="rect14"
       height="80"
       width="8"
       y="163"
       x="122"
       style="fill:#ffffff" />
    <line
       id="line16"
       y2="243"
       x2="122"
       y1="163"
       x1="122"
       style="fill:none;stroke:#000000;stroke-width:2;stroke-linejoin:round" />
    <line
       id="line18"
       y2="243"
       x2="130"
       y1="163"
       x1="130"
       style="fill:none;stroke:#000000;stroke-width:2;stroke-linejoin:round" />
    <ellipse
       sodipodi:ry="2"
       sodipodi:rx="4"
       sodipodi:cy="163"
       sodipodi:cx="126"
       d="m 130,163 c 0,1.10457 -1.79086,2 -4,2 -2.20914,0 -4,-0.89543 -4,-2 0,-1.10457 1.79086,-2 4,-2 2.20914,0 4,0.89543 4,2 z"
       id="ellipse20"
       ry="2"
       rx="4"
       cy="163"
       cx="126"
       style="fill:#ffffff" />
    <ellipse
       sodipodi:ry="2"
       sodipodi:rx="4"
       sodipodi:cy="163"
       sodipodi:cx="126"
       d="m 130,163 c 0,1.10457 -1.79086,2 -4,2 -2.20914,0 -4,-0.89543 -4,-2 0,-1.10457 1.79086,-2 4,-2 2.20914,0 4,0.89543 4,2 z"
       id="ellipse22"
       ry="2"
       rx="4"
       cy="163"
       cx="126"
       style="fill:none;stroke:#000000;stroke-width:2;stroke-linejoin:round" />
    <polygon
       id="polygon24"
       points="128,163 132,159 132,179 128,183 "
       style="fill:#ffffff" />
    <polygon
       id="polygon26"
       points="128,163 132,159 132,179 128,183 "
       style="fill:none;stroke:#000000;stroke-width:2;stroke-linejoin:round" />
    <polygon
       id="polygon28"
       points="124,163 120,159 120,179 124,183 "
       style="fill:#ffffff" />
    <polygon
       id="polygon30"
       points="124,163 120,159 120,179 124,183 "
       style="fill:none;stroke:#000000;stroke-width:2;stroke-linejoin:round" />
    <text
       id="text32"
       y="258.89999"
       x="126"
       style="font-size:12.80000019px;font-style:normal;font-weight:normal;text-anchor:middle;fill:#000000;font-family:monospace"
       font-size="12.8">
      <tspan
         id="tspan34"
         y="258.89999"
         x="126">eNB</tspan>
    </text>
  </g>
  <path
     style="fill:#ffffff;stroke:#000000;stroke-width:0.29119799;stroke-miterlimit:4;stroke-dasharray:none"
     d="m 223.03836,156.56954 11.583,-6.255 11.584,6.255 -11.584,5.56 z"
     id="polygon160"
     inkscape:connector-curvature="0" />
  <path
     style="fill:none;stroke:#000000;stroke-width:0.58239597;stroke-miterlimit:4;stroke-dasharray:none"
     d="m 233.46336,109.54154 1.158,0.463"
     id="path162"
     inkscape:connector-curvature="0" />
  <path
     style="fill:none;stroke:#000000;stroke-width:0.58239597;stroke-miterlimit:4;stroke-dasharray:none"
     d="m 232.30536,114.40654 2.316,1.158"
     id="path164"
     inkscape:connector-curvature="0" />
  <path
     style="fill:none;stroke:#000000;stroke-width:0.58239597;stroke-miterlimit:4;stroke-dasharray:none"
     d="m 229.98836,125.06254 4.633,2.317"
     id="path168"
     inkscape:connector-curvature="0" />
  <path
     style="fill:none;stroke:#000000;stroke-width:0.58239597;stroke-miterlimit:4;stroke-dasharray:none"
     d="m 227.67136,135.48754 6.95,3.707"
     id="path172"
     inkscape:connector-curvature="0" />
  <path
     style="fill:none;stroke:#000000;stroke-width:0.58239597;stroke-miterlimit:4;stroke-dasharray:none"
     d="m 225.35536,145.91254 9.266,4.402"
     id="path176"
     inkscape:connector-curvature="0" />
  <path
     style="fill:none;stroke:#000000;stroke-width:0.58239597;stroke-miterlimit:4;stroke-dasharray:none"
     d="m 235.78036,109.54154 -1.159,0.463"
     id="path180"
     inkscape:connector-curvature="0" />
  <path
     style="fill:none;stroke:#000000;stroke-width:0.58239597;stroke-miterlimit:4;stroke-dasharray:none"
     d="m 236.93836,114.40654 -2.317,1.158"
     id="path182"
     inkscape:connector-curvature="0" />
  <path
     style="fill:none;stroke:#000000;stroke-width:0.58239597;stroke-miterlimit:4;stroke-dasharray:none"
     d="m 239.02336,125.06254 -4.402,2.317"
     id="path186"
     inkscape:connector-curvature="0" />
  <path
     style="fill:none;stroke:#000000;stroke-width:0.58239597;stroke-miterlimit:4;stroke-dasharray:none"
     d="m 241.80336,135.48754 -7.182,3.707"
     id="path190"
     inkscape:connector-curvature="0" />
  <path
     style="fill:none;stroke:#000000;stroke-width:0.58239597;stroke-miterlimit:4;stroke-dasharray:none"
     d="m 243.88836,145.91254 -9.267,4.402"
     id="path194"
     inkscape:connector-curvature="0" />
  <path
     style="fill:none;stroke:#000000;stroke-width:0.58239597;stroke-miterlimit:4;stroke-dasharray:none"
     d="m 234.62136,104.44454 -1.39,-6.254997 1.39,3.127997 -2.895,-8.687997"
     id="path198"
     inkscape:connector-curvature="0" />
  <path
     style="fill:none;stroke:#000000;stroke-width:1.16479194;stroke-miterlimit:4;stroke-dasharray:none"
     d="m 234.62136,104.44454 11.584,52.125 -11.584,5.56 -11.583,-5.56 z"
     id="polygon200"
     inkscape:connector-curvature="0" />
  <path
     style="fill:none;stroke:#000000;stroke-width:1.16479194;stroke-miterlimit:4;stroke-dasharray:none"
     d="m 223.03836,156.56954 11.583,-6.255 11.584,6.255"
     id="path202"
     inkscape:connector-curvature="0" />
  <path
     style="fill:none;stroke:#000000;stroke-width:1.16479194;stroke-miterlimit:4;stroke-dasharray:none"
     d="m 234.62136,104.44454 0,57.685"
     id="path204"
     inkscape:connector-curvature="0" />
  <g
     transform="translate(0,-47.947657)"
     style="font-size:12.80000019px;font-style:normal;font-weight:normal;text-anchor:middle;fill:#000000;font-family:sans-serif"
     id="text206" />
  <text
     id="text210"
     y="181.72141"
     x="234.62035"
     style="font-size:12.80000019px;font-style:normal;font-weight:normal;text-anchor:middle;fill:#000000;font-family:sans-serif"
     font-size="12.8">
    <tspan
       id="tspan212"
       y="181.72141"
       x="234.62035">RN</tspan>
    <tspan
       id="tspan214"
       y="197.72141"
       x="234.62035" />
  </text>
  <g
     transform="translate(-24.295642,1.129543)"
     id="g3875">
    <g
       id="g36"
       transform="translate(0,-50.303431)">
      <path
         style="fill:#7a7a5a"
         d="m 312.219,218.616 c -0.415,-1.483 -2.122,-8.915 -2.201,-9.952 -0.08,-1.037 0.303,-2.328 0.861,-2.599 -0.032,-0.367 -0.032,-0.575 -0.032,-0.575 0.128,-0.047 0.271,-0.095 0.399,-0.159 l -0.048,0.016 c 0,0 -0.383,-1.659 -0.622,-2.807 -0.431,-2.201 -0.479,-3.317 -0.479,-3.317 0.016,-0.304 0.096,-0.575 0.367,-0.654 l 1.292,-0.351 c 0.271,-0.08 0.463,0.095 0.638,0.367 0,0 0.51,1.02 1.212,3.126 0.383,1.1 0.734,2.503 0.734,2.503 l -0.016,0 c 0.765,-0.255 1.547,-0.478 2.328,-0.701 2.01,-0.558 4.004,-0.973 6.013,-1.276 0,0 0.096,0.175 0.271,0.51 0.606,-0.064 1.595,0.861 2.058,1.786 0.462,0.925 2.807,8.182 3.221,9.665 0.415,1.484 1.196,5.279 1.547,7.161 0.351,1.882 0.67,5.168 1.882,9.538 0.718,2.583 1.866,6.443 2.472,8.038 0.16,0.43 1.42,2.552 -0.414,3.285 -1.803,0.718 -4.498,1.484 -5.854,1.866 -1.355,0.367 -4.051,1.085 -5.964,1.404 -1.946,0.319 -1.962,-2.169 -2.042,-2.616 -0.303,-1.674 -1.292,-5.582 -1.993,-8.166 -1.213,-4.385 -2.632,-7.352 -3.302,-9.154 -0.654,-1.802 -1.914,-5.455 -2.328,-6.938 z"
         id="path38"
         inkscape:connector-curvature="0" />
      <path
         style="fill:none;stroke:#000000;stroke-width:0.80000001"
         d="m 312.219,218.616 c -0.415,-1.483 -2.122,-8.915 -2.201,-9.952 -0.08,-1.037 0.303,-2.328 0.861,-2.599 -0.032,-0.367 -0.032,-0.575 -0.032,-0.575 0.128,-0.047 0.271,-0.095 0.399,-0.159 l -0.048,0.016 c 0,0 -0.383,-1.659 -0.622,-2.807 -0.431,-2.201 -0.479,-3.317 -0.479,-3.317 0.016,-0.304 0.096,-0.575 0.367,-0.654 l 1.292,-0.351 c 0.271,-0.08 0.463,0.095 0.638,0.367 0,0 0.51,1.02 1.212,3.126 0.383,1.1 0.734,2.503 0.734,2.503 l -0.016,0 c 0.765,-0.255 1.547,-0.478 2.328,-0.701 2.01,-0.558 4.004,-0.973 6.013,-1.276 0,0 0.096,0.175 0.271,0.51 l 0,0 c 0.606,-0.064 1.595,0.861 2.058,1.786 0.462,0.925 2.807,8.182 3.221,9.665 0.415,1.484 1.196,5.279 1.547,7.161 0.351,1.882 0.67,5.168 1.882,9.538 0.718,2.583 1.866,6.443 2.472,8.038 0.16,0.43 1.42,2.552 -0.414,3.285 -1.803,0.718 -4.498,1.484 -5.854,1.866 -1.355,0.367 -4.051,1.085 -5.964,1.404 -1.946,0.319 -1.962,-2.169 -2.042,-2.616 -0.303,-1.674 -1.292,-5.582 -1.993,-8.166 -1.213,-4.385 -2.632,-7.352 -3.302,-9.154 -0.654,-1.802 -1.914,-5.455 -2.328,-6.938"
         id="path40"
         inkscape:connector-curvature="0" />
      <path
         style="fill:#b7b79d"
         d="m 314.212,218.808 c -0.414,-1.484 -2.121,-8.916 -2.201,-9.937 -0.079,-1.036 0.303,-2.344 0.862,-2.599 -0.032,-0.367 -0.032,-0.574 -0.032,-0.574 0.127,-0.064 0.271,-0.112 0.398,-0.16 l -0.032,0.016 c 0,0 -0.398,-1.659 -0.637,-2.807 -0.431,-2.217 -0.463,-3.333 -0.463,-3.333 0,-0.303 0.08,-0.558 0.351,-0.638 l 1.292,-0.351 c 0.271,-0.08 0.462,0.096 0.638,0.367 0,0 0.51,1.021 1.212,3.11 0.383,1.116 0.733,2.504 0.733,2.504 l -0.016,0.016 c 0.766,-0.255 1.548,-0.495 2.329,-0.702 2.01,-0.558 4.019,-0.989 6.013,-1.292 0,0 0.095,0.192 0.271,0.511 0.606,-0.048 1.595,0.861 2.057,1.786 0.463,0.925 2.807,8.182 3.222,9.681 0.415,1.483 1.196,5.263 1.547,7.145 0.351,1.882 0.67,5.167 1.882,9.553 0.718,2.584 1.866,6.427 2.472,8.038 0.159,0.415 1.419,2.552 -0.415,3.286 -1.802,0.701 -4.497,1.483 -5.853,1.85 -1.356,0.382 -4.051,1.084 -5.965,1.403 -1.946,0.319 -1.962,-2.153 -2.041,-2.599 -0.303,-1.691 -1.292,-5.583 -1.994,-8.166 -1.212,-4.386 -2.631,-7.369 -3.301,-9.171 -0.654,-1.786 -1.914,-5.438 -2.329,-6.937 z"
         id="path42"
         inkscape:connector-curvature="0" />
      <path
         style="fill:none;stroke:#000000;stroke-width:0.80000001"
         d="m 314.212,218.808 c -0.414,-1.484 -2.121,-8.916 -2.201,-9.937 -0.079,-1.036 0.303,-2.344 0.862,-2.599 -0.032,-0.367 -0.032,-0.574 -0.032,-0.574 0.127,-0.064 0.271,-0.112 0.398,-0.16 l -0.032,0.016 c 0,0 -0.398,-1.659 -0.637,-2.807 -0.431,-2.217 -0.463,-3.333 -0.463,-3.333 0,-0.303 0.08,-0.558 0.351,-0.638 l 1.292,-0.351 c 0.271,-0.08 0.462,0.096 0.638,0.367 0,0 0.51,1.021 1.212,3.11 0.383,1.116 0.733,2.504 0.733,2.504 l -0.016,0.016 c 0.766,-0.255 1.548,-0.495 2.329,-0.702 2.01,-0.558 4.019,-0.989 6.013,-1.292 0,0 0.095,0.192 0.271,0.511 l 0,0 c 0.606,-0.048 1.595,0.861 2.057,1.786 0.463,0.925 2.807,8.182 3.222,9.681 0.415,1.483 1.196,5.263 1.547,7.145 0.351,1.882 0.67,5.167 1.882,9.553 0.718,2.584 1.866,6.427 2.472,8.038 0.159,0.415 1.419,2.552 -0.415,3.286 -1.802,0.701 -4.497,1.483 -5.853,1.85 -1.356,0.382 -4.051,1.084 -5.965,1.403 -1.946,0.319 -1.962,-2.153 -2.041,-2.599 -0.303,-1.691 -1.292,-5.583 -1.994,-8.166 -1.212,-4.386 -2.631,-7.369 -3.301,-9.171 -0.654,-1.786 -1.914,-5.438 -2.329,-6.937"
         id="path44"
         inkscape:connector-curvature="0" />
      <path
         style="fill:#c9c9b6"
         d="m 324.403,202.476 c 0,0 2.632,5.375 4.147,10.829 1.786,6.491 2.042,8.644 1.77,11.659 -0.047,0.622 -0.669,1.387 -1.355,1.579 -0.271,0.063 -0.59,0.159 -0.718,0.191 -0.143,0.048 -0.654,0.16 -1.068,0.494 -0.431,0.335 -0.527,0.415 -0.782,0.543 -0.239,0.143 -0.287,0.239 -0.989,0.43 -0.701,0.192 -0.781,0.144 -1.068,0.144 -0.287,0.016 -0.415,0 -0.957,-0.064 -0.527,-0.08 -1.021,0.08 -1.164,0.112 -0.128,0.048 -0.447,0.127 -0.718,0.207 -0.686,0.191 -1.611,-0.143 -1.978,-0.654 -1.77,-2.44 -2.663,-4.434 -4.45,-10.925 -1.499,-5.454 -1.993,-11.419 -1.993,-11.419 l 11.323,-3.126 z"
         id="path46"
         inkscape:connector-curvature="0" />
      <path
         style="fill:none;stroke:#ecece7;stroke-width:0.80000001"
         d="m 324.403,202.476 c 0,0 2.632,5.375 4.147,10.829 1.786,6.491 2.042,8.644 1.77,11.659 -0.047,0.622 -0.669,1.387 -1.355,1.579 -0.271,0.063 -0.59,0.159 -0.718,0.191 -0.143,0.048 -0.654,0.16 -1.068,0.494 -0.431,0.335 -0.527,0.415 -0.782,0.543 -0.239,0.143 -0.287,0.239 -0.989,0.43 -0.701,0.192 -0.781,0.144 -1.068,0.144 -0.287,0.016 -0.415,0 -0.957,-0.064 -0.527,-0.08 -1.021,0.08 -1.164,0.112 -0.128,0.048 -0.447,0.127 -0.718,0.207 -0.686,0.191 -1.611,-0.143 -1.978,-0.654 -1.77,-2.44 -2.663,-4.434 -4.45,-10.925 -1.499,-5.454 -1.993,-11.419 -1.993,-11.419 l 11.323,-3.126"
         id="path48"
         inkscape:connector-curvature="0" />
      <path
         style="fill:#000000"
         d="m 321.214,224.996 c 0.462,1.706 2.233,2.695 3.923,2.232 1.707,-0.462 2.695,-2.232 2.233,-3.923 -0.479,-1.706 -2.233,-2.695 -3.923,-2.233 -1.707,0.479 -2.696,2.233 -2.233,3.924 z"
         id="path50"
         inkscape:connector-curvature="0" />
      <path
         style="fill:#000000"
         d="m 327.099,219.764 c -0.431,0.128 -0.766,0.304 -0.925,0.399 -0.16,0.112 -0.208,0.255 -0.064,0.351 0.144,0.096 0.399,0.287 0.542,0.415 0.176,0.143 0.287,0.175 0.527,0.032 0.43,-0.24 1.339,-0.893 1.563,-1.197 0.127,-0.159 0.016,-0.223 -0.224,-0.239 -0.319,-0.016 -0.957,0.112 -1.419,0.239 z"
         id="path52"
         inkscape:connector-curvature="0" />
      <path
         style="fill:#ff0000"
         d="m 329.364,223.13 c -0.24,0.079 -0.814,0.366 -0.973,0.494 -0.176,0.112 -0.431,0.383 -0.415,0.702 0.032,0.367 0,1.148 -0.159,1.403 -0.208,0.335 -0.176,0.479 0.127,0.431 0.239,-0.048 0.861,-0.271 1.037,-0.367 0.175,-0.08 0.43,-0.239 0.51,-0.478 0.16,-0.495 0.207,-1.515 0.112,-2.026 -0.032,-0.207 -0.128,-0.207 -0.239,-0.159 z"
         id="path54"
         inkscape:connector-curvature="0" />
      <path
         style="fill:none;stroke:#ffffff;stroke-width:0.80000001"
         d="m 321.214,224.996 c 0.462,1.706 2.233,2.695 3.923,2.232 1.707,-0.462 2.695,-2.232 2.233,-3.923 -0.479,-1.706 -2.233,-2.695 -3.923,-2.233 -1.707,0.479 -2.696,2.233 -2.233,3.924"
         id="path56"
         inkscape:connector-curvature="0" />
      <path
         style="fill:none;stroke:#ffffff;stroke-width:0.80000001"
         d="m 327.099,219.764 c -0.431,0.128 -0.766,0.304 -0.925,0.399 -0.16,0.112 -0.208,0.255 -0.064,0.351 0.144,0.096 0.399,0.287 0.542,0.415 0.176,0.143 0.287,0.175 0.527,0.032 0.43,-0.24 1.339,-0.893 1.563,-1.197 0.127,-0.159 0.016,-0.223 -0.224,-0.239 -0.319,-0.016 -0.957,0.112 -1.419,0.239"
         id="path58"
         inkscape:connector-curvature="0" />
      <path
         style="fill:none;stroke:#ffffff;stroke-width:0.80000001"
         d="m 329.364,223.13 c -0.24,0.079 -0.814,0.366 -0.973,0.494 -0.176,0.112 -0.431,0.383 -0.415,0.702 0.032,0.367 0,1.148 -0.159,1.403 -0.208,0.335 -0.176,0.479 0.127,0.431 0.239,-0.048 0.861,-0.271 1.037,-0.367 0.175,-0.08 0.43,-0.239 0.51,-0.478 0.16,-0.495 0.207,-1.515 0.112,-2.026 -0.032,-0.207 -0.128,-0.207 -0.239,-0.159"
         id="path60"
         inkscape:connector-curvature="0" />
      <path
         style="fill:#000000"
         d="m 319.635,221.822 c 0.43,-0.112 0.797,-0.128 0.989,-0.128 0.191,0.016 0.303,0.112 0.239,0.255 -0.08,0.16 -0.207,0.463 -0.255,0.638 -0.08,0.208 -0.16,0.303 -0.431,0.319 -0.494,0 -1.611,-0.095 -1.962,-0.239 -0.175,-0.08 -0.111,-0.191 0.08,-0.319 0.271,-0.175 0.877,-0.399 1.34,-0.526 z"
         id="path62"
         inkscape:connector-curvature="0" />
      <path
         style="fill:#00ff00"
         d="m 319.412,225.873 c 0.239,-0.064 0.893,-0.096 1.1,-0.08 0.191,0.016 0.558,0.112 0.702,0.399 0.159,0.335 0.59,0.989 0.861,1.132 0.351,0.176 0.399,0.319 0.112,0.415 -0.224,0.096 -0.878,0.223 -1.069,0.239 -0.207,0.016 -0.494,0.016 -0.686,-0.159 -0.414,-0.335 -0.957,-1.197 -1.148,-1.675 -0.08,-0.191 0,-0.239 0.128,-0.271 z"
         id="path64"
         inkscape:connector-curvature="0" />
      <path
         style="fill:none;stroke:#ffffff;stroke-width:0.80000001"
         d="m 319.635,221.822 c 0.43,-0.112 0.797,-0.128 0.989,-0.128 0.191,0.016 0.303,0.112 0.239,0.255 -0.08,0.16 -0.207,0.463 -0.255,0.638 -0.08,0.208 -0.16,0.303 -0.431,0.319 -0.494,0 -1.611,-0.095 -1.962,-0.239 -0.175,-0.08 -0.111,-0.191 0.08,-0.319 0.271,-0.175 0.877,-0.399 1.34,-0.526"
         id="path66"
         inkscape:connector-curvature="0" />
      <path
         style="fill:none;stroke:#ffffff;stroke-width:0.80000001"
         d="m 319.412,225.873 c 0.239,-0.064 0.893,-0.096 1.1,-0.08 0.191,0.016 0.558,0.112 0.702,0.399 0.159,0.335 0.59,0.989 0.861,1.132 0.351,0.176 0.399,0.319 0.112,0.415 -0.224,0.096 -0.878,0.223 -1.069,0.239 -0.207,0.016 -0.494,0.016 -0.686,-0.159 -0.414,-0.335 -0.957,-1.197 -1.148,-1.675 -0.08,-0.191 0,-0.239 0.128,-0.271"
         id="path68"
         inkscape:connector-curvature="0" />
      <path
         style="fill:none;stroke:#ffffff;stroke-width:0.80000001"
         d="m 319.938,207.452 -1.053,-3.812"
         id="path70"
         inkscape:connector-curvature="0" />
      <path
         style="fill:none;stroke:#ffffff;stroke-width:0.80000001"
         d="m 319.587,207.548 -1.053,-3.812"
         id="path72"
         inkscape:connector-curvature="0" />
      <path
         style="fill:none;stroke:#000000;stroke-width:0.80000001"
         d="m 312.107,199.254 c 0,0 0.606,-0.175 1.116,-0.303 0.447,-0.127 1.085,-0.303 1.085,-0.303"
         id="path74"
         inkscape:connector-curvature="0" />
      <path
         style="fill:none;stroke:#000000;stroke-width:0.80000001"
         d="m 314.212,218.808 c -0.414,-1.484 -2.121,-8.916 -2.201,-9.937 -0.079,-1.036 0.303,-2.344 0.862,-2.599 -0.032,-0.367 -0.032,-0.574 -0.032,-0.574 0.127,-0.064 0.271,-0.112 0.398,-0.16 l -0.032,0.016 c 0,0 -0.398,-1.659 -0.637,-2.807 -0.431,-2.217 -0.463,-3.333 -0.463,-3.333 0,-0.303 0.08,-0.558 0.351,-0.638 l 1.292,-0.351 c 0.271,-0.08 0.462,0.096 0.638,0.367 0,0 0.51,1.021 1.212,3.11 0.383,1.116 0.733,2.504 0.733,2.504 l -0.016,0.016 c 0.766,-0.255 1.548,-0.495 2.329,-0.702 2.01,-0.558 4.019,-0.989 6.013,-1.292 0,0 0.095,0.192 0.271,0.511 l 0,0 c 0.606,-0.048 1.595,0.861 2.057,1.786 0.463,0.925 2.807,8.182 3.222,9.681 0.415,1.483 1.196,5.263 1.547,7.145 0.351,1.882 0.67,5.167 1.882,9.553 0.718,2.584 1.866,6.427 2.472,8.038 0.159,0.415 1.419,2.552 -0.415,3.286 -1.802,0.701 -4.497,1.483 -5.853,1.85 -1.356,0.382 -4.051,1.084 -5.965,1.403 -1.946,0.319 -1.962,-2.153 -2.041,-2.599 -0.303,-1.691 -1.292,-5.583 -1.994,-8.166 -1.212,-4.386 -2.631,-7.369 -3.301,-9.171 -0.654,-1.786 -1.914,-5.438 -2.329,-6.937"
         id="path76"
         inkscape:connector-curvature="0" />
      <path
         style="fill:#000000"
         d="m 328.247,229.238 c 0.207,0.75 0.989,1.196 1.755,0.989 0.765,-0.207 1.212,-0.989 1.004,-1.755 -0.223,-0.765 -1.004,-1.212 -1.77,-1.004 -0.766,0.207 -1.212,1.004 -0.989,1.77 z"
         id="path78"
         inkscape:connector-curvature="0" />
      <path
         style="fill:none;stroke:#ffffff;stroke-width:0.02"
         d="m 328.247,229.238 c 0.207,0.75 0.989,1.196 1.755,0.989 0.765,-0.207 1.212,-0.989 1.004,-1.755 -0.223,-0.765 -1.004,-1.212 -1.77,-1.004 -0.766,0.207 -1.212,1.004 -0.989,1.77"
         id="path80"
         inkscape:connector-curvature="0" />
      <path
         style="fill:#000000"
         d="m 324.627,230.753 c 0.207,0.766 1.005,1.212 1.77,1.005 0.75,-0.207 1.196,-1.005 0.989,-1.754 -0.207,-0.766 -0.989,-1.213 -1.754,-1.005 -0.766,0.207 -1.213,1.005 -1.005,1.754 z"
         id="path82"
         inkscape:connector-curvature="0" />
      <path
         style="fill:none;stroke:#ffffff;stroke-width:0.02"
         d="m 324.627,230.753 c 0.207,0.766 1.005,1.212 1.77,1.005 0.75,-0.207 1.196,-1.005 0.989,-1.754 -0.207,-0.766 -0.989,-1.213 -1.754,-1.005 -0.766,0.207 -1.213,1.005 -1.005,1.754"
         id="path84"
         inkscape:connector-curvature="0" />
      <path
         style="fill:#000000"
         d="m 320.735,231.311 c 0.208,0.75 1.005,1.197 1.771,0.989 0.749,-0.207 1.196,-0.989 0.988,-1.754 -0.207,-0.766 -0.988,-1.212 -1.754,-1.005 -0.765,0.207 -1.212,1.005 -1.005,1.77 z"
         id="path86"
         inkscape:connector-curvature="0" />
      <path
         style="fill:none;stroke:#ffffff;stroke-width:0.02"
         d="m 320.735,231.311 c 0.208,0.75 1.005,1.197 1.771,0.989 0.749,-0.207 1.196,-0.989 0.988,-1.754 -0.207,-0.766 -0.988,-1.212 -1.754,-1.005 -0.765,0.207 -1.212,1.005 -1.005,1.77"
         id="path88"
         inkscape:connector-curvature="0" />
      <path
         style="fill:#000000"
         d="m 329.108,232.38 c 0.208,0.765 1.005,1.212 1.755,0.989 0.765,-0.208 1.212,-0.989 1.005,-1.755 -0.208,-0.765 -1.005,-1.212 -1.755,-1.004 -0.765,0.223 -1.212,1.004 -1.005,1.77 z"
         id="path90"
         inkscape:connector-curvature="0" />
      <path
         style="fill:none;stroke:#ffffff;stroke-width:0.02"
         d="m 329.108,232.38 c 0.208,0.765 1.005,1.212 1.755,0.989 0.765,-0.208 1.212,-0.989 1.005,-1.755 -0.208,-0.765 -1.005,-1.212 -1.755,-1.004 -0.765,0.223 -1.212,1.004 -1.005,1.77"
         id="path92"
         inkscape:connector-curvature="0" />
      <path
         style="fill:#000000"
         d="m 325.504,233.911 c 0.207,0.766 0.989,1.212 1.754,0.989 0.766,-0.208 1.212,-0.989 1.005,-1.755 -0.223,-0.765 -1.005,-1.212 -1.77,-1.004 -0.75,0.223 -1.212,1.004 -0.989,1.77 z"
         id="path94"
         inkscape:connector-curvature="0" />
      <path
         style="fill:none;stroke:#ffffff;stroke-width:0.02"
         d="m 325.504,233.911 c 0.207,0.766 0.989,1.212 1.754,0.989 0.766,-0.208 1.212,-0.989 1.005,-1.755 -0.223,-0.765 -1.005,-1.212 -1.77,-1.004 -0.75,0.223 -1.212,1.004 -0.989,1.77"
         id="path96"
         inkscape:connector-curvature="0" />
      <path
         style="fill:#000000"
         d="m 321.597,234.453 c 0.223,0.75 1.004,1.212 1.77,0.989 0.765,-0.207 1.212,-0.989 1.005,-1.754 -0.224,-0.766 -1.005,-1.212 -1.771,-1.005 -0.765,0.223 -1.212,1.005 -1.004,1.77 z"
         id="path98"
         inkscape:connector-curvature="0" />
      <path
         style="fill:none;stroke:#ffffff;stroke-width:0.02"
         d="m 321.597,234.453 c 0.223,0.75 1.004,1.212 1.77,0.989 0.765,-0.207 1.212,-0.989 1.005,-1.754 -0.224,-0.766 -1.005,-1.212 -1.771,-1.005 -0.765,0.223 -1.212,1.005 -1.004,1.77"
         id="path100"
         inkscape:connector-curvature="0" />
      <path
         style="fill:#000000"
         d="m 329.97,235.522 c 0.207,0.765 1.004,1.212 1.77,1.005 0.75,-0.208 1.212,-1.005 0.989,-1.771 -0.208,-0.749 -0.989,-1.212 -1.755,-0.989 -0.765,0.208 -1.212,0.989 -1.004,1.755 z"
         id="path102"
         inkscape:connector-curvature="0" />
      <path
         style="fill:none;stroke:#ffffff;stroke-width:0.02"
         d="m 329.97,235.522 c 0.207,0.765 1.004,1.212 1.77,1.005 0.75,-0.208 1.212,-1.005 0.989,-1.771 -0.208,-0.749 -0.989,-1.212 -1.755,-0.989 -0.765,0.208 -1.212,0.989 -1.004,1.755"
         id="path104"
         inkscape:connector-curvature="0" />
      <path
         style="fill:#000000"
         d="m 326.365,237.053 c 0.208,0.765 1.005,1.212 1.755,1.005 0.765,-0.208 1.212,-1.005 1.004,-1.771 -0.207,-0.765 -1.004,-1.196 -1.754,-0.988 -0.766,0.207 -1.212,0.988 -1.005,1.754 z"
         id="path106"
         inkscape:connector-curvature="0" />
      <path
         style="fill:none;stroke:#ffffff;stroke-width:0.02"
         d="m 326.365,237.053 c 0.208,0.765 1.005,1.212 1.755,1.005 0.765,-0.208 1.212,-1.005 1.004,-1.771 -0.207,-0.765 -1.004,-1.196 -1.754,-0.988 -0.766,0.207 -1.212,0.988 -1.005,1.754"
         id="path108"
         inkscape:connector-curvature="0" />
      <path
         style="fill:#000000"
         d="m 322.474,237.595 c 0.207,0.766 1.004,1.212 1.754,0.989 0.766,-0.207 1.212,-0.989 1.005,-1.754 -0.208,-0.766 -1.005,-1.212 -1.755,-0.989 -0.765,0.207 -1.212,0.989 -1.004,1.754 z"
         id="path110"
         inkscape:connector-curvature="0" />
      <path
         style="fill:none;stroke:#ffffff;stroke-width:0.02"
         d="m 322.474,237.595 c 0.207,0.766 1.004,1.212 1.754,0.989 0.766,-0.207 1.212,-0.989 1.005,-1.754 -0.208,-0.766 -1.005,-1.212 -1.755,-0.989 -0.765,0.207 -1.212,0.989 -1.004,1.754"
         id="path112"
         inkscape:connector-curvature="0" />
      <path
         style="fill:#000000"
         d="m 330.847,238.664 c 0.207,0.765 1.005,1.212 1.754,1.004 0.766,-0.207 1.212,-0.988 1.005,-1.754 -0.207,-0.765 -1.005,-1.212 -1.754,-1.005 -0.766,0.208 -1.213,1.005 -1.005,1.771 l 0,-0.016 z"
         id="path114"
         inkscape:connector-curvature="0" />
      <path
         style="fill:none;stroke:#ffffff;stroke-width:0.02"
         d="m 330.847,238.664 c 0.207,0.765 1.005,1.212 1.754,1.004 0.766,-0.207 1.212,-0.988 1.005,-1.754 -0.207,-0.765 -1.005,-1.212 -1.754,-1.005 -0.766,0.208 -1.213,1.005 -1.005,1.771 l 0,-0.016"
         id="path116"
         inkscape:connector-curvature="0" />
      <path
         style="fill:#000000"
         d="m 327.226,240.195 c 0.224,0.765 1.005,1.212 1.771,1.005 0.765,-0.208 1.212,-1.005 0.989,-1.755 -0.208,-0.765 -0.989,-1.212 -1.755,-1.005 -0.765,0.208 -1.212,1.005 -1.005,1.755 z"
         id="path118"
         inkscape:connector-curvature="0" />
      <path
         style="fill:none;stroke:#ffffff;stroke-width:0.02"
         d="m 327.226,240.195 c 0.224,0.765 1.005,1.212 1.771,1.005 0.765,-0.208 1.212,-1.005 0.989,-1.755 -0.208,-0.765 -0.989,-1.212 -1.755,-1.005 -0.765,0.208 -1.212,1.005 -1.005,1.755"
         id="path120"
         inkscape:connector-curvature="0" />
      <path
         style="fill:#000000"
         d="m 323.335,240.737 c 0.223,0.766 1.005,1.212 1.77,1.005 0.766,-0.208 1.212,-1.005 0.989,-1.77 -0.207,-0.75 -0.989,-1.197 -1.754,-0.989 -0.766,0.207 -1.212,0.989 -1.005,1.754 z"
         id="path122"
         inkscape:connector-curvature="0" />
      <path
         style="fill:none;stroke:#ffffff;stroke-width:0.02"
         d="m 323.335,240.737 c 0.223,0.766 1.005,1.212 1.77,1.005 0.766,-0.208 1.212,-1.005 0.989,-1.77 -0.207,-0.75 -0.989,-1.197 -1.754,-0.989 -0.766,0.207 -1.212,0.989 -1.005,1.754"
         id="path124"
         inkscape:connector-curvature="0" />
      <path
         style="fill:none;stroke:#ffffff;stroke-width:0.80000001"
         d="m 329.045,242.332 c 0.016,0.064 0.143,0.096 0.287,0.064 0.127,-0.048 0.223,-0.128 0.191,-0.208 -0.016,-0.063 -0.143,-0.095 -0.271,-0.063 -0.128,0.031 -0.223,0.127 -0.207,0.191"
         id="path126"
         inkscape:connector-curvature="0" />
      <path
         style="fill:none;stroke:#ffffff;stroke-width:0.80000001"
         d="m 329.523,242.188 0.463,1.643"
         id="path128"
         inkscape:connector-curvature="0" />
      <path
         style="fill:none;stroke:#ffffff;stroke-width:0.80000001"
         d="m 329.459,242.332 0.415,1.531"
         id="path130"
         inkscape:connector-curvature="0" />
      <path
         style="fill:none;stroke:#ffffff;stroke-width:0.80000001"
         d="m 329.045,242.332 0.462,1.627"
         id="path132"
         inkscape:connector-curvature="0" />
      <path
         style="fill:none;stroke:#ffffff;stroke-width:0.80000001"
         d="m 329.188,242.396 0.415,1.531"
         id="path134"
         inkscape:connector-curvature="0" />
      <path
         style="fill:none;stroke:#ffffff;stroke-width:0.80000001"
         d="m 326.285,218.616 0.319,1.133"
         id="path136"
         inkscape:connector-curvature="0" />
      <path
         style="fill:none;stroke:#ffffff;stroke-width:0.80000001"
         d="m 326.158,218.648 0.319,1.148"
         id="path138"
         inkscape:connector-curvature="0" />
      <path
         style="fill:none;stroke:#ffffff;stroke-width:0.80000001"
         d="m 319.731,220.418 0.318,1.149"
         id="path140"
         inkscape:connector-curvature="0" />
      <path
         style="fill:none;stroke:#ffffff;stroke-width:0.80000001"
         d="m 319.858,220.386 0.319,1.149"
         id="path142"
         inkscape:connector-curvature="0" />
      <path
         style="fill:none;stroke:#000000;stroke-width:0.80000001"
         d="m 313.207,205.554 c 0,0 -0.398,-1.659 -0.637,-2.807 -0.431,-2.217 -0.463,-3.333 -0.463,-3.333 0,-0.303 0.08,-0.558 0.351,-0.638 l 1.292,-0.351 c 0.271,-0.08 0.462,0.096 0.638,0.367 0,0 0.51,1.021 1.212,3.11 0.383,1.116 0.733,2.504 0.733,2.504"
         id="path144"
         inkscape:connector-curvature="0" />
      <path
         style="fill:none;stroke:#000000;stroke-width:0.80000001"
         d="m 313.048,204.948 c 1.037,-0.399 2.073,-0.765 3.142,-1.1"
         id="path146"
         inkscape:connector-curvature="0" />
      <path
         style="fill:none;stroke:#ffffff;stroke-width:0.80000001"
         d="m 325.951,205.171 c -2.122,0.303 -4.402,0.782 -6.524,1.372 -2.121,0.59 -4.322,1.34 -6.299,2.169"
         id="path148"
         inkscape:connector-curvature="0" />
      <path
         style="fill:#b7b79d"
         d="m 316.844,220.674 c 0.08,0.287 0.367,0.446 0.654,0.366 l 11.036,-3.046 c 0.287,-0.08 0.447,-0.367 0.367,-0.638 l -1.93,-6.985 c -0.08,-0.287 -0.367,-0.447 -0.638,-0.367 l -11.052,3.046 c -0.287,0.08 -0.447,0.367 -0.367,0.654 l 1.93,6.986 0,-0.016 z"
         id="path150"
         inkscape:connector-curvature="0" />
      <path
         style="fill:none;stroke:#ffffff;stroke-width:0.80000001"
         d="m 316.844,220.674 c 0.08,0.287 0.367,0.446 0.654,0.366 l 11.036,-3.046 c 0.287,-0.08 0.447,-0.367 0.367,-0.638 l -1.93,-6.985 c -0.08,-0.287 -0.367,-0.447 -0.638,-0.367 l -11.052,3.046 c -0.287,0.08 -0.447,0.367 -0.367,0.654 l 1.93,6.986 0,-0.016"
         id="path152"
         inkscape:connector-curvature="0" />
      <path
         style="fill:none;stroke:#ffffff;stroke-width:0.80000001"
         d="m 319.938,207.452 -1.053,-3.812"
         id="path154"
         inkscape:connector-curvature="0" />
      <path
         style="fill:none;stroke:#ffffff;stroke-width:0.80000001"
         d="m 319.587,207.548 -1.053,-3.812"
         id="path156"
         inkscape:connector-curvature="0" />
    </g>
    <text
       font-size="12.7998"
       style="font-size:12.79979992px;font-style:normal;font-weight:normal;text-anchor:middle;fill:#000000;font-family:sans-serif"
       x="329.84201"
       y="207.27756"
       id="text240">
      <tspan
         x="329.84201"
         y="207.27756"
         id="tspan242">UE</tspan>
    </text>
  </g>
  <path
     sodipodi:nodetypes="cc"
     inkscape:connector-curvature="0"
     id="path4437"
     d="m 239.17497,99.844543 43.83811,44.280397"
     style="fill:none;stroke:#008141;stroke-width:1.61807406000000009;stroke-linecap:butt;stroke-linejoin:miter;stroke-miterlimit:4;stroke-opacity:1;stroke-dasharray:none;marker-end:url(#Arrow2Mend)" />
  <path
     sodipodi:nodetypes="cc"
     inkscape:connector-curvature="0"
     id="path5181"
     d="M 139.51034,106.42434 226.0814,96.291743"
     style="fill:none;stroke:#008080;stroke-width:1.61807406000000009;stroke-linecap:butt;stroke-linejoin:miter;stroke-miterlimit:4;stroke-opacity:1;stroke-dasharray:none;marker-end:url(#Arrow2Mend)" />
  <path
     sodipodi:nodetypes="cc"
     inkscape:connector-curvature="0"
     id="path5369"
     d="m 139.51034,110.83024 139.69058,38.2138"
     style="fill:none;stroke:#005682;stroke-width:1.61807406000000009;stroke-linecap:butt;stroke-linejoin:miter;stroke-miterlimit:4;stroke-opacity:1;stroke-dasharray:none;marker-end:url(#Arrow2Mend)" />
  <path
     sodipodi:nodetypes="cc"
     transform="matrix(0.539358,0,0,0.539358,112.06364,89)"
     inkscape:connector-curvature="0"
     id="path3089"
     d="M 212.16422,132.02607 40.273709,189.39016"
     style="fill:none;stroke:#000000;stroke-width:0.5;stroke-linecap:butt;stroke-linejoin:miter;stroke-miterlimit:4;stroke-opacity:1;stroke-dasharray:none;marker-start:url(#Arrow1Lstart);marker-end:url(#Arrow1Lend)" />
  <path
     transform="matrix(0.539358,0,0,0.539358,112.06364,89)"
     inkscape:connector-curvature="0"
     id="path3091"
     d="m 202.25422,127.2963 19.82001,9.45955"
     style="fill:none;stroke:#000000;stroke-width:0.5;stroke-linecap:butt;stroke-linejoin:miter;stroke-opacity:1;stroke-miterlimit:4;stroke-dasharray:none" />
  <path
     inkscape:connector-curvature="0"
     id="path3093"
     d="m 138.54589,194.10174 -7.04574,-4.37322"
     style="fill:none;stroke:#000000;stroke-width:0.269679;stroke-linecap:butt;stroke-linejoin:miter;stroke-opacity:1;stroke-miterlimit:4;stroke-dasharray:none" />
  <path
     sodipodi:nodetypes="cc"
     transform="matrix(0.539358,0,0,0.539358,112.06364,89)"
     style="fill:none;stroke:#000000;stroke-width:0.5;stroke-linecap:butt;stroke-linejoin:miter;stroke-miterlimit:4;stroke-opacity:1;stroke-dasharray:none"
     d="m 202.25422,127.2963 19.82001,9.45955"
     id="path5091"
     inkscape:connector-curvature="0" />
  <path
     sodipodi:nodetypes="cc"
     style="fill:none;stroke:#000000;stroke-width:0.26967901;stroke-linecap:butt;stroke-linejoin:miter;stroke-miterlimit:4;stroke-opacity:1;stroke-dasharray:none"
     d="m 138.54589,194.10174 -7.75285,-4.96247"
     id="path5093"
     inkscape:connector-curvature="0" />
  <path
     sodipodi:nodetypes="cc"
     inkscape:connector-curvature="0"
     id="path5095"
     d="m 248.32473,157.65828 -10.69008,5.10208"
     style="fill:none;stroke:#000000;stroke-width:0.26967901;stroke-linecap:butt;stroke-linejoin:miter;stroke-miterlimit:4;stroke-opacity:1;stroke-dasharray:none" />
  <path
     sodipodi:nodetypes="cc"
     inkscape:connector-curvature="0"
     id="path5097"
     d="m 287.18126,192.55507 7.04574,-4.37322"
     style="fill:none;stroke:#000000;stroke-width:0.26967901;stroke-linecap:butt;stroke-linejoin:miter;stroke-miterlimit:4;stroke-opacity:1;stroke-dasharray:none" />
  <path
     style="fill:none;stroke:#000000;stroke-width:0.5;stroke-linecap:butt;stroke-linejoin:miter;stroke-miterlimit:4;stroke-opacity:1;stroke-dasharray:none;marker-start:url(#Arrow1Lstart);marker-end:url(#Arrow1Lend)"
     d="m 242.7257,132.02608 90.77806,54.38722"
     id="path5099"
     inkscape:connector-curvature="0"
     sodipodi:nodetypes="cc"
     transform="matrix(0.539358,0,0,0.539358,112.06364,89)" />
  <path
     sodipodi:nodetypes="cc"
     inkscape:connector-curvature="0"
     id="path5103"
     d="m 288.20398,196.93068 0,11.84506"
     style="fill:none;stroke:#000000;stroke-width:0.26967901;stroke-linecap:butt;stroke-linejoin:miter;stroke-miterlimit:4;stroke-opacity:1;stroke-dasharray:none" />
  <path
     style="fill:none;stroke:#000000;stroke-width:0.26967901;stroke-linecap:butt;stroke-linejoin:miter;stroke-miterlimit:4;stroke-opacity:1;stroke-dasharray:none;marker-start:url(#Arrow1Lstart);marker-end:url(#Arrow1Lend)"
     d="m 288.20398,202.85321 -146.11183,0"
     id="path5105"
     inkscape:connector-curvature="0"
     sodipodi:nodetypes="cc" />
  <path
     sodipodi:nodetypes="cc"
     style="fill:none;stroke:#000000;stroke-width:0.26967901;stroke-linecap:butt;stroke-linejoin:miter;stroke-miterlimit:4;stroke-opacity:1;stroke-dasharray:none"
     d="m 142.09215,196.93068 0,11.84506"
     id="path5107"
     inkscape:connector-curvature="0" />
  <g
     id="g5237"
     transform="matrix(0.539358,0,0,0.539358,107.3154,94.737797)">
    <g
       word-spacing="normal"
       letter-spacing="normal"
       font-size-adjust="none"
       font-stretch="normal"
       font-weight="normal"
       font-variant="normal"
       font-style="normal"
       stroke-miterlimit="10.433"
       xml:space="preserve"
       transform="matrix(0.48571429,0,0,-0.48571429,-85,360)"
       id="content-7"
       style="font-style:normal;font-variant:normal;font-weight:normal;font-stretch:normal;letter-spacing:normal;word-spacing:normal;text-anchor:start;fill:none;stroke:#000000;stroke-linecap:butt;stroke-linejoin:miter;stroke-miterlimit:10.43299961;stroke-opacity:1;stroke-dasharray:none;stroke-dashoffset:0"><path
         id="path5240"
         d="m 459.91,409.14 -0.02,-0.07 -0.01,-0.08 -0.02,-0.07 -0.01,-0.08 -0.04,-0.16 -0.04,-0.16 -0.03,-0.16 -0.04,-0.16 -0.04,-0.16 -0.04,-0.16 -0.01,-0.08 -0.02,-0.07 -0.02,-0.07 -0.01,-0.07 -0.02,-0.07 -0.01,-0.07 -0.01,-0.06 -0.01,-0.06 -0.01,-0.06 -0.01,-0.05 -0.01,-0.05 -0.01,-0.04 -0.01,-0.04 0,-0.04 0,-0.03 0,-0.02 c 0,-0.89 0.7,-1.35 1.43,-1.35 0.61,0 1.5,0.39 1.85,1.39 0.11,0.21 1.8,6.99 2,7.88 0.39,1.64 1.3,5.12 1.59,6.48 0.21,0.64 1.6,2.99 2.78,4.08 0.41,0.34 1.85,1.64 4,1.64 1.28,0 2.03,-0.59 2.08,-0.59 -1.48,-0.25 -2.58,-1.46 -2.58,-2.74 0,-0.79 0.55,-1.75 1.89,-1.75 1.35,0 2.74,1.14 2.74,2.94 0,1.75 -1.6,3.23 -4.13,3.23 -3.25,0 -5.43,-2.43 -6.39,-3.82 -0.39,2.23 -2.18,3.82 -4.53,3.82 -2.28,0 -3.23,-1.93 -3.69,-2.82 -0.89,-1.71 -1.54,-4.69 -1.54,-4.85 0,-0.5 0.5,-0.5 0.61,-0.5 0.5,0 0.54,0.07 0.84,1.16 0.84,3.53 1.84,5.92 3.64,5.92 0.84,0 1.55,-0.39 1.55,-2.28 0,-1.05 -0.16,-1.61 -0.8,-4.19 z"
         inkscape:connector-curvature="0"
         style="fill:#000000;stroke-width:0" /><path
         id="path5242"
         d="m 486.15,405.79 0,0.02 0,0.01 0.01,0.02 0,0.03 0.01,0.03 0.01,0.03 0,0.03 0.01,0.04 0.01,0.04 0.01,0.05 0.02,0.04 0.01,0.06 0.01,0.05 0.01,0.05 0.03,0.12 0.04,0.13 0.03,0.13 0.04,0.15 0.03,0.14 0.04,0.15 0.04,0.15 0.08,0.32 0.08,0.31 0.04,0.15 0.04,0.15 0.04,0.14 0.03,0.14 0.04,0.14 0.03,0.12 0.03,0.12 0.02,0.05 0.01,0.05 0.01,0.05 0.02,0.05 0.01,0.04 0.01,0.04 0.01,0.04 0.01,0.03 0.01,0.03 0,0.03 0.01,0.02 0.01,0.02 0,0.01 0,0.01 c 0.08,0.29 1.08,2.02 2.21,2.86 0.37,0.27 1.31,0.97 2.81,0.97 0.34,0 1.22,-0.03 1.92,-0.48 -1.12,-0.31 -1.53,-1.3 -1.53,-1.92 0,-0.77 0.59,-1.29 1.39,-1.29 0.8,0 1.95,0.66 1.95,2.13 0,1.81 -1.92,2.53 -3.7,2.53 -1.81,0 -3.37,-0.72 -4.9,-2.47 -0.63,2.13 -2.75,2.47 -3.6,2.47 -1.28,0 -2.15,-0.8 -2.72,-1.76 -0.79,-1.36 -1.28,-3.4 -1.28,-3.57 0,-0.45 0.49,-0.45 0.6,-0.45 0.48,0 0.51,0.11 0.76,1.05 0.52,2.12 1.19,3.76 2.55,3.76 0.9,0 1.14,-0.76 1.14,-1.7 0,-0.67 -0.31,-1.95 -0.56,-2.89 -0.24,-0.95 -0.58,-2.38 -0.77,-3.14 l -1.11,-4.47 c -0.14,-0.44 -0.34,-1.31 -0.34,-1.42 0,-0.77 0.62,-1.11 1.18,-1.11 0.52,0 1.22,0.31 1.49,1 0.08,0.22 0.45,1.75 0.67,2.62 z"
         inkscape:connector-curvature="0"
         style="fill:#000000;stroke-width:0" /></g>  </g>
  <path
     style="font-style:normal;font-variant:normal;font-weight:normal;font-stretch:normal;letter-spacing:normal;word-spacing:normal;text-anchor:start;fill:#000000;stroke:#000000;stroke-width:0;stroke-linecap:butt;stroke-linejoin:miter;stroke-miterlimit:10.43299961;stroke-opacity:1;stroke-dasharray:none;stroke-dashoffset:0"
     inkscape:connector-curvature="0"
     d="m 266.79448,176.78778 0,0 0,-0.003 0,0 0,-0.003 0,-0.005 0,-0.003 0,-0.005 0,-0.005 -0.003,-0.005 0,-0.005 -0.003,-0.005 0,-0.005 -0.003,-0.005 -0.003,-0.008 -0.003,-0.005 -0.003,-0.008 -0.005,-0.005 -0.003,-0.008 -0.005,-0.005 -0.005,-0.005 -0.005,-0.008 -0.005,-0.003 -0.003,-0.003 -0.003,-0.003 -0.005,-0.003 -0.003,-0.003 -0.005,-0.003 -0.003,-0.003 -0.005,-0.003 -0.003,-0.003 -0.005,-0.003 -0.005,0 -0.005,-0.003 -0.005,-0.003 -0.005,0 -0.005,-0.003 -0.008,-0.003 -0.005,0 -0.005,0 -0.008,-0.003 -0.008,0 -0.005,0 -0.008,-0.003 -0.008,0 -0.008,0 c -0.19648,0 -1.43561,0.12051 -1.65829,0.14408 -0.10479,0.0131 -0.18338,0.0786 -0.18338,0.24888 0,0.15718 0.11788,0.15718 0.31437,0.15718 0.62611,0 0.65231,0.0891 0.65231,0.22006 l -0.0367,0.26198 -0.78592,3.09391 c -0.23315,-0.48203 -0.61564,-0.83308 -1.19984,-0.83308 l 0.0131,0.28555 c 0.84618,0 1.02956,1.06886 1.02956,1.14483 0,0.0838 -0.0236,0.1598 -0.0367,0.2253 l -0.65493,2.55948 c -0.0655,0.23316 -0.0655,0.25673 -0.26198,0.48203 -0.5711,0.71781 -1.10815,0.92477 -1.47229,0.92477 -0.65232,0 -0.8357,-0.71519 -0.8357,-1.22604 0,-0.65231 0.41654,-2.25559 0.71781,-2.85813 0.40344,-0.77021 0.99288,-1.25224 1.51421,-1.25224 l -0.0131,-0.28555 c -1.52731,0 -3.14369,1.91503 -3.14369,3.8222 0,1.22866 0.71519,2.08793 1.73427,2.08793 0.25936,0 0.91429,-0.055 1.69497,-0.97978 0.10741,0.55014 0.56063,0.97978 1.18674,0.97978 0.45846,0 0.75973,-0.29865 0.96669,-0.71781 0.22268,-0.46893 0.39296,-1.26795 0.39296,-1.29153 0,-0.13099 -0.11789,-0.13099 -0.15456,-0.13099 -0.13099,0 -0.14409,0.0524 -0.18339,0.23578 -0.22267,0.8488 -0.45845,1.61638 -0.99288,1.61638 -0.35104,0 -0.39296,-0.33795 -0.39296,-0.59992 0,-0.31175 0.0262,-0.40606 0.0786,-0.62612 z"
     id="path5133" />
  <path
     id="path5240-4"
     d="m 213.26627,210.61475 -0.005,0.0183 -0.003,0.021 -0.005,0.0183 -0.003,0.021 -0.0105,0.0419 -0.0105,0.0419 -0.008,0.0419 -0.0105,0.0419 -0.0105,0.0419 -0.0105,0.0419 -0.003,0.021 -0.005,0.0183 -0.005,0.0183 -0.003,0.0183 -0.005,0.0183 -0.003,0.0183 -0.003,0.0157 -0.003,0.0157 -0.003,0.0157 -0.003,0.0131 -0.003,0.0131 -0.003,0.0105 -0.003,0.0105 0,0.0105 0,0.008 0,0.005 c 0,0.23316 0.18338,0.35367 0.37463,0.35367 0.1598,0 0.39296,-0.10217 0.48465,-0.36415 0.0288,-0.055 0.47155,-1.83119 0.52394,-2.06435 0.10218,-0.42963 0.34058,-1.3413 0.41655,-1.69759 0.055,-0.16766 0.41916,-0.7833 0.72829,-1.06885 0.10741,-0.0891 0.48465,-0.42964 1.04789,-0.42964 0.33533,0 0.53181,0.15457 0.54491,0.15457 -0.38772,0.0655 -0.67589,0.38248 -0.67589,0.71781 0,0.20696 0.14408,0.45845 0.49512,0.45845 0.35366,0 0.71781,-0.29865 0.71781,-0.7702 0,-0.45846 -0.41915,-0.84618 -1.08195,-0.84618 -0.85141,0 -1.42251,0.6366 -1.67402,1.00074 -0.0986,-0.58426 -0.5675,-1.0008 -1.18314,-1.0008 -0.5973,0 -0.84618,0.50561 -0.96669,0.73877 -0.23315,0.44797 -0.40344,1.22865 -0.40344,1.27057 0,0.13099 0.13099,0.13099 0.15981,0.13099 0.13099,0 0.14146,-0.0183 0.22006,-0.30389 0.22006,-0.92477 0.48203,-1.55089 0.95358,-1.55089 0.22006,0 0.40606,0.10217 0.40606,0.5973 0,0.27507 -0.0419,0.42178 -0.20958,1.09767 z"
     inkscape:connector-curvature="0"
     style="font-style:normal;font-variant:normal;font-weight:normal;font-stretch:normal;letter-spacing:normal;word-spacing:normal;text-anchor:start;fill:#000000;stroke:#000000;stroke-width:0;stroke-linecap:butt;stroke-linejoin:miter;stroke-miterlimit:10.43299961;stroke-opacity:1;stroke-dasharray:none;stroke-dashoffset:0" />
</svg>
