<?xml version="1.0" encoding="UTF-8" standalone="no"?>
<!-- Created with Inkscape (http://www.inkscape.org/) -->

<svg
   xmlns:dc="http://purl.org/dc/elements/1.1/"
   xmlns:cc="http://creativecommons.org/ns#"
   xmlns:rdf="http://www.w3.org/1999/02/22-rdf-syntax-ns#"
   xmlns:svg="http://www.w3.org/2000/svg"
   xmlns="http://www.w3.org/2000/svg"
   xmlns:sodipodi="http://sodipodi.sourceforge.net/DTD/sodipodi-0.dtd"
   xmlns:inkscape="http://www.inkscape.org/namespaces/inkscape"
   id="svg2"
   version="1.1"
   inkscape:version="0.48.5 r10040"
   width="717.5"
   height="432.5"
   xml:space="preserve"
   sodipodi:docname="LTE_relay_subframe.eps"><metadata
     id="metadata8"><rdf:RDF><cc:Work
         rdf:about=""><dc:format>image/svg+xml</dc:format><dc:type
           rdf:resource="http://purl.org/dc/dcmitype/StillImage" /><dc:title></dc:title></cc:Work></rdf:RDF></metadata><defs
     id="defs6" /><sodipodi:namedview
     pagecolor="#ffffff"
     bordercolor="#666666"
     borderopacity="1"
     objecttolerance="10"
     gridtolerance="10"
     guidetolerance="10"
     inkscape:pageopacity="0"
     inkscape:pageshadow="2"
     inkscape:window-width="1855"
     inkscape:window-height="1176"
     id="namedview4"
     showgrid="false"
     inkscape:zoom="1.4230832"
     inkscape:cx="437.86895"
     inkscape:cy="225.02015"
     inkscape:window-x="1985"
     inkscape:window-y="24"
     inkscape:window-maximized="1"
     inkscape:current-layer="g10" /><g
     id="g10"
     inkscape:groupmode="layer"
     inkscape:label="ink_ext_XXXXXX"
     transform="matrix(1.25,0,0,-1.25,0,432.5)"><g
       id="g12"
       transform="scale(0.1,0.1)"><path
         d="m 19.7695,2911.1 545.4295,0 c 4.25,0 7.731,-3.44 7.731,-7.69 l 0,-545.43 c 0,-4.3 -3.481,-7.74 -7.731,-7.74 l -545.4295,0 c -4.3007,0 -7.7382,3.44 -7.7382,7.74 l 0,545.43 c 0,4.25 3.4375,7.69 7.7382,7.69 z"
         style="fill:#008141;fill-opacity:1;fill-rule:nonzero;stroke:none"
         id="path14" /><path
         d="m 19.7695,2911.11 545.4295,0 c 4.25,0 7.731,-3.45 7.731,-7.7 l 0,-545.43 c 0,-4.3 -3.481,-7.73 -7.731,-7.73 l -545.4295,0 c -4.3007,0 -7.7382,3.43 -7.7382,7.73 l 0,545.43 c 0,4.25 3.4375,7.7 7.7382,7.7 z"
         style="fill:none;stroke:#000000;stroke-opacity:1;stroke-width:8;stroke-linecap:butt;stroke-linejoin:miter;stroke-miterlimit:4;stroke-dasharray:none"
         id="path16" /><path
         d="m 1138.2,2911.1 -545.43,0 c -4.25,0 -7.731,-3.44 -7.731,-7.69 l 0,-545.43 c 0,-4.3 3.481,-7.74 7.731,-7.74 l 545.43,0 c 4.3,0 7.74,3.44 7.74,7.74 l 0,545.43 c 0,4.25 -3.44,7.69 -7.74,7.69 z"
         style="fill:#ffd5d5;fill-opacity:1;fill-rule:nonzero;stroke:none"
         id="path18" /><path
         d="m 1138.2,2911.11 -545.43,0 c -4.25,0 -7.731,-3.45 -7.731,-7.7 l 0,-545.43 c 0,-4.3 3.481,-7.73 7.731,-7.73 l 545.43,0 c 4.3,0 7.74,3.43 7.74,7.73 l 0,545.43 c 0,4.25 -3.44,7.7 -7.74,7.7 z"
         style="fill:none;stroke:#000000;stroke-opacity:1;stroke-width:8;stroke-linecap:butt;stroke-linejoin:miter;stroke-miterlimit:4;stroke-dasharray:none"
         id="path20" /><path
         d="m 1165.82,2911.1 545.43,0 c 4.3,0 7.73,-3.44 7.73,-7.69 l 0,-545.43 c 0,-4.3 -3.43,-7.74 -7.73,-7.74 l -545.43,0 c -4.3,0 -7.73,3.44 -7.73,7.74 l 0,545.43 c 0,4.25 3.43,7.69 7.73,7.69 z"
         style="fill:#40c181;fill-opacity:1;fill-rule:nonzero;stroke:none"
         id="path22" /><path
         d="m 1165.82,2911.11 545.43,0 c 4.3,0 7.73,-3.45 7.73,-7.7 l 0,-545.43 c 0,-4.3 -3.43,-7.73 -7.73,-7.73 l -545.43,0 c -4.3,0 -7.73,3.43 -7.73,7.73 l 0,545.43 c 0,4.25 3.43,7.7 7.73,7.7 z"
         style="fill:none;stroke:#000000;stroke-opacity:1;stroke-width:8;stroke-linecap:butt;stroke-linejoin:miter;stroke-miterlimit:4;stroke-dasharray:none"
         id="path24" /><path
         d="m 2311.88,2911.1 545.42,0 c 4.3,0 7.74,-3.44 7.74,-7.69 l 0,-545.43 c 0,-4.3 -3.44,-7.74 -7.74,-7.74 l -545.42,0 c -4.26,0 -7.74,3.44 -7.74,7.74 l 0,545.43 c 0,4.25 3.48,7.69 7.74,7.69 z"
         style="fill:#0f6095;fill-opacity:1;fill-rule:nonzero;stroke:none"
         id="path26" /><path
         d="m 2311.88,2911.11 545.42,0 c 4.3,0 7.74,-3.45 7.74,-7.7 l 0,-545.43 c 0,-4.3 -3.44,-7.73 -7.74,-7.73 l -545.42,0 c -4.26,0 -7.74,3.43 -7.74,7.73 l 0,545.43 c 0,4.25 3.48,7.7 7.74,7.7 z"
         style="fill:none;stroke:#000000;stroke-opacity:1;stroke-width:8;stroke-linecap:butt;stroke-linejoin:miter;stroke-miterlimit:4;stroke-dasharray:none"
         id="path28" /><path
         d="m 2284.3,2911.1 -545.43,0 c -4.3,0 -7.74,-3.44 -7.74,-7.69 l 0,-545.43 c 0,-4.3 3.44,-7.74 7.74,-7.74 l 545.43,0 c 4.25,0 7.73,3.44 7.73,7.74 l 0,545.43 c 0,4.25 -3.48,7.69 -7.73,7.69 z"
         style="fill:#40c181;fill-opacity:1;fill-rule:nonzero;stroke:none"
         id="path30" /><path
         d="m 2284.3,2911.11 -545.43,0 c -4.3,0 -7.74,-3.45 -7.74,-7.7 l 0,-545.43 c 0,-4.3 3.44,-7.73 7.74,-7.73 l 545.43,0 c 4.25,0 7.73,3.43 7.73,7.73 l 0,545.43 c 0,4.25 -3.48,7.7 -7.73,7.7 z"
         style="fill:none;stroke:#000000;stroke-opacity:1;stroke-width:8;stroke-linecap:butt;stroke-linejoin:miter;stroke-miterlimit:4;stroke-dasharray:none"
         id="path32" /><path
         d="m 5719.57,2912.35 -545.43,0 c -4.3,0 -7.73,-3.44 -7.73,-7.73 l 0,-545.43 c 0,-4.3 3.43,-7.74 7.73,-7.74 l 545.43,0 c 4.3,0 7.73,3.44 7.73,7.74 l 0,545.43 c 0,4.29 -3.43,7.73 -7.73,7.73 z"
         style="fill:#008141;fill-opacity:1;fill-rule:nonzero;stroke:none"
         id="path34" /><path
         d="m 5719.57,2912.36 -545.43,0 c -4.3,0 -7.73,-3.45 -7.73,-7.74 l 0,-545.43 c 0,-4.3 3.43,-7.73 7.73,-7.73 l 545.43,0 c 4.3,0 7.73,3.43 7.73,7.73 l 0,545.43 c 0,4.29 -3.43,7.74 -7.73,7.74 z"
         style="fill:none;stroke:#000000;stroke-opacity:1;stroke-width:8;stroke-linecap:butt;stroke-linejoin:miter;stroke-miterlimit:4;stroke-dasharray:none"
         id="path36" /><path
         d="m 4604.02,2911.1 545.43,0 c 4.3,0 7.74,-3.44 7.74,-7.69 l 0,-545.43 c 0,-4.3 -3.44,-7.74 -7.74,-7.74 l -545.43,0 c -4.29,0 -7.73,3.44 -7.73,7.74 l 0,545.43 c 0,4.25 3.44,7.69 7.73,7.69 z"
         style="fill:#4096c2;fill-opacity:1;fill-rule:nonzero;stroke:none"
         id="path38" /><path
         d="m 4604.02,2911.11 545.43,0 c 4.3,0 7.74,-3.45 7.74,-7.7 l 0,-545.43 c 0,-4.3 -3.44,-7.73 -7.74,-7.73 l -545.43,0 c -4.29,0 -7.73,3.43 -7.73,7.73 l 0,545.43 c 0,4.25 3.44,7.7 7.73,7.7 z"
         style="fill:none;stroke:#000000;stroke-opacity:1;stroke-width:8;stroke-linecap:butt;stroke-linejoin:miter;stroke-miterlimit:4;stroke-dasharray:none"
         id="path40" /><path
         d="m 4576.41,2911.1 -545.43,0 c -4.26,0 -7.74,-3.44 -7.74,-7.69 l 0,-545.43 c 0,-4.3 3.48,-7.74 7.74,-7.74 l 545.43,0 c 4.29,0 7.73,3.44 7.73,7.74 l 0,545.43 c 0,4.25 -3.44,7.69 -7.73,7.69 z"
         style="fill:#40c181;fill-opacity:1;fill-rule:nonzero;stroke:none"
         id="path42" /><path
         d="m 4576.41,2911.11 -545.43,0 c -4.26,0 -7.74,-3.45 -7.74,-7.7 l 0,-545.43 c 0,-4.3 3.48,-7.73 7.74,-7.73 l 545.43,0 c 4.29,0 7.73,3.43 7.73,7.73 l 0,545.43 c 0,4.25 -3.44,7.7 -7.73,7.7 z"
         style="fill:none;stroke:#000000;stroke-opacity:1;stroke-width:8;stroke-linecap:butt;stroke-linejoin:miter;stroke-miterlimit:4;stroke-dasharray:none"
         id="path44" /><path
         d="m 3430.35,2911.1 -545.43,0 c -4.3,0 -7.73,-3.44 -7.73,-7.69 l 0,-545.43 c 0,-4.3 3.43,-7.74 7.73,-7.74 l 545.43,0 c 4.3,0 7.74,3.44 7.74,7.74 l 0,545.43 c 0,4.25 -3.44,7.69 -7.74,7.69 z"
         style="fill:#008141;fill-opacity:1;fill-rule:nonzero;stroke:none"
         id="path46" /><path
         d="m 3430.35,2911.11 -545.43,0 c -4.3,0 -7.73,-3.45 -7.73,-7.7 l 0,-545.43 c 0,-4.3 3.43,-7.73 7.73,-7.73 l 545.43,0 c 4.3,0 7.74,3.43 7.74,7.73 l 0,545.43 c 0,4.25 -3.44,7.7 -7.74,7.7 z"
         style="fill:none;stroke:#000000;stroke-opacity:1;stroke-width:8;stroke-linecap:butt;stroke-linejoin:miter;stroke-miterlimit:4;stroke-dasharray:none"
         id="path48" /><path
         d="m 3457.97,2911.1 545.43,0 c 4.26,0 7.73,-3.44 7.73,-7.69 l 0,-545.43 c 0,-4.3 -3.47,-7.74 -7.73,-7.74 l -545.43,0 c -4.3,0 -7.74,3.44 -7.74,7.74 l 0,545.43 c 0,4.25 3.44,7.69 7.74,7.69 z"
         style="fill:#ffd5d5;fill-opacity:1;fill-rule:nonzero;stroke:none"
         id="path50" /><path
         d="m 3457.97,2911.11 545.43,0 c 4.26,0 7.73,-3.45 7.73,-7.7 l 0,-545.43 c 0,-4.3 -3.47,-7.73 -7.73,-7.73 l -545.43,0 c -4.3,0 -7.74,3.43 -7.74,7.73 l 0,545.43 c 0,4.25 3.44,7.7 7.74,7.7 z"
         style="fill:none;stroke:#000000;stroke-opacity:1;stroke-width:8;stroke-linecap:butt;stroke-linejoin:miter;stroke-miterlimit:4;stroke-dasharray:none"
         id="path52" /><path
         d="m 10.4297,2918.53 0,494.22"
         style="fill:none;stroke:#000000;stroke-opacity:1;stroke-width:5.72216;stroke-linecap:butt;stroke-linejoin:miter;stroke-miterlimit:4;stroke-dasharray:none"
         id="path54" /><path
         d="m 5728.2,2918.53 0,494.22"
         style="fill:none;stroke:#000000;stroke-opacity:1;stroke-width:5.72216;stroke-linecap:butt;stroke-linejoin:miter;stroke-miterlimit:4;stroke-dasharray:none"
         id="path56" /><path
         d="m 10.4297,3257.16 5717.7703,0"
         style="fill:none;stroke:#000000;stroke-opacity:1;stroke-width:5.72216;stroke-linecap:butt;stroke-linejoin:miter;stroke-miterlimit:4;stroke-dasharray:none"
         id="path58" /><path
         d="m 67.6602,3257.16 22.8906,22.89 -80.1211,-22.89 80.1211,-22.89 -22.8906,22.89 z"
         style="fill:#000000;fill-opacity:1;fill-rule:evenodd;stroke:none"
         id="path60" /><path
         d="m 67.6602,3257.16 22.8906,22.89 -80.1211,-22.89 80.1211,-22.89 -22.8906,22.89 z"
         style="fill:none;stroke:#000000;stroke-opacity:1;stroke-width:5.72216;stroke-linecap:butt;stroke-linejoin:miter;stroke-miterlimit:4;stroke-dasharray:none"
         id="path62" /><path
         d="m 5670.98,3257.16 -22.89,-22.89 80.11,22.89 -80.11,22.89 22.89,-22.89 z"
         style="fill:#000000;fill-opacity:1;fill-rule:evenodd;stroke:none"
         id="path64" /><path
         d="m 5670.98,3257.16 -22.89,-22.89 80.11,22.89 -80.11,22.89 22.89,-22.89 z"
         style="fill:none;stroke:#000000;stroke-opacity:1;stroke-width:5.72216;stroke-linecap:butt;stroke-linejoin:miter;stroke-miterlimit:4;stroke-dasharray:none"
         id="path66" /><path
         d="m 574.18,2918.53 0,239.88"
         style="fill:none;stroke:#000000;stroke-opacity:1;stroke-width:5.72216;stroke-linecap:butt;stroke-linejoin:miter;stroke-miterlimit:4;stroke-dasharray:none"
         id="path68" /><path
         d="m 10.4297,3003.8 563.7503,0"
         style="fill:none;stroke:#000000;stroke-opacity:1;stroke-width:5.72216;stroke-linecap:butt;stroke-linejoin:miter;stroke-miterlimit:4;stroke-dasharray:none"
         id="path70" /><path
         d="m 67.6602,3003.8 22.8906,22.89 -80.1211,-22.89 80.1211,-22.89 -22.8906,22.89 z"
         style="fill:#000000;fill-opacity:1;fill-rule:evenodd;stroke:none"
         id="path72" /><path
         d="m 67.6602,3003.8 22.8906,22.89 -80.1211,-22.89 80.1211,-22.89 -22.8906,22.89 z"
         style="fill:none;stroke:#000000;stroke-opacity:1;stroke-width:5.72216;stroke-linecap:butt;stroke-linejoin:miter;stroke-miterlimit:4;stroke-dasharray:none"
         id="path74" /><path
         d="m 516.949,3003.8 -22.89,-22.89 80.121,22.89 -80.121,22.89 22.89,-22.89 z"
         style="fill:#000000;fill-opacity:1;fill-rule:evenodd;stroke:none"
         id="path76" /><path
         d="m 516.949,3003.8 -22.89,-22.89 80.121,22.89 -80.121,22.89 22.89,-22.89 z"
         style="fill:none;stroke:#000000;stroke-opacity:1;stroke-width:5.72216;stroke-linecap:butt;stroke-linejoin:miter;stroke-miterlimit:4;stroke-dasharray:none"
         id="path78" /><path
         d="m 173.012,3196.69 0,2.03 -0.043,0.16 0,0.66 -0.039,0.12 -0.039,0.27 0,0.27 -0.082,0.2 -0.079,0.23 -0.152,0.39 -0.078,0.16 -0.078,0.12 -0.274,0.27 -0.16,0.12 -0.187,0.08 -0.16,0.07 -0.121,0.04 -0.071,0.08 -0.16,0 -0.078,0.04 -0.121,0.04 -0.11,0 -0.16,0.04 -0.121,0 -0.148,0.04 -0.321,0 -0.109,0.04 -0.902,0 -0.199,0.04 -0.86,0 c -13.121,-13.56 -31.75,-13.56 -38.512,-13.56 l 0,-6.6 c 4.262,0 16.68,0 27.653,5.55 l 0,-109.77 c 0,-7.66 -0.582,-10.16 -19.641,-10.16 l -6.801,0 0,-6.6 c 7.461,0.71 25.86,0.71 34.34,0.71 8.473,0 26.871,0 34.289,-0.71 l 0,6.6 -6.758,0 c -19.058,0 -19.718,2.31 -19.718,10.16 l 0,118.87 z"
         style="fill:#000000;fill-opacity:1;fill-rule:nonzero;stroke:none"
         id="path80" /><path
         d="m 235.551,3073.56 -0.082,-0.27 -0.039,-0.35 -0.16,-0.63 -0.149,-0.7 -0.16,-0.66 -0.16,-0.71 -0.313,-1.33 -0.148,-0.7 -0.121,-0.31 -0.039,-0.31 -0.078,-0.32 -0.043,-0.27 -0.079,-0.31 -0.031,-0.31 -0.078,-0.24 -0.043,-0.27 -0.078,-0.24 -0.039,-0.23 -0.039,-0.2 0,-0.15 -0.043,-0.2 0,-0.15 -0.039,-0.12 0,-0.12 c 0,-3.75 3.012,-5.74 6.14,-5.74 2.571,0 6.36,1.68 7.848,5.94 0.274,0.47 2.774,10.35 4.063,15.66 l 4.609,19.06 c 1.289,4.69 2.578,9.3 3.629,14.26 0.859,3.56 2.582,9.69 2.781,10.55 3.16,6.56 14.41,25.86 34.449,25.86 9.571,0 11.481,-7.85 11.481,-14.81 0,-5.31 -1.481,-11.25 -3.16,-17.61 l -5.942,-24.61 -4.258,-16.1 c -0.82,-4.22 -2.73,-11.36 -2.73,-12.46 0,-3.75 2.969,-5.74 6.129,-5.74 6.601,0 7.851,5.35 9.531,12.15 3.012,11.79 10.82,42.77 12.781,51.01 0.579,2.78 11.789,28.17 34.918,28.17 9.063,0 11.411,-7.19 11.411,-14.81 0,-12.15 -8.872,-36.25 -13.129,-47.46 -1.95,-5.12 -2.731,-7.46 -2.731,-11.68 0,-9.92 7.379,-17.38 17.34,-17.38 19.922,0 27.77,30.94 27.77,32.62 0,2.15 -1.95,2.15 -2.54,2.15 -2.14,0 -2.14,-0.67 -3.199,-3.83 -3.16,-11.25 -9.922,-26.25 -21.601,-26.25 -3.59,0 -5.078,2.15 -5.078,6.99 0,5.31 1.918,10.39 3.789,15.04 4.058,10.97 12.968,34.49 12.968,46.6 0,13.75 -8.519,22.62 -24.41,22.62 -15.859,0 -26.648,-9.26 -34.461,-20.51 -0.308,2.77 -0.898,9.96 -6.828,15.04 -5.281,4.41 -12.039,5.47 -17.351,5.47 -19.098,0 -29.45,-13.52 -33.039,-18.36 -1.059,12.07 -9.969,18.36 -19.54,18.36 -9.679,0 -13.75,-8.21 -15.66,-12 -3.789,-7.42 -6.601,-19.92 -6.601,-20.62 0,-2.11 2.109,-2.11 2.582,-2.11 2.148,0 2.34,0.27 3.629,4.92 3.55,15 7.808,25.2 15.468,25.2 3.364,0 6.563,-1.68 6.563,-9.73 0,-4.45 -0.66,-6.83 -3.359,-17.81 l -12.301,-48.95 z"
         style="fill:#000000;fill-opacity:1;fill-rule:nonzero;stroke:none"
         id="path82" /><path
         d="m 485.43,3140.32 -1.09,-0.08 -0.512,-0.08 -0.547,-0.11 -0.511,-0.16 -0.469,-0.15 -0.5,-0.16 -0.473,-0.2 -0.43,-0.19 -0.468,-0.28 -0.43,-0.23 -0.391,-0.27 -0.429,-0.28 -0.391,-0.31 -0.309,-0.31 -0.359,-0.31 -0.351,-0.36 -0.27,-0.35 -0.309,-0.35 -0.242,-0.35 -0.269,-0.39 -0.231,-0.43 -0.238,-0.39 -0.16,-0.43 -0.192,-0.35 -0.16,-0.43 -0.109,-0.43 -0.078,-0.43 -0.121,-0.43 -0.082,-0.47 -0.039,-0.43 0,-0.43 c 0,-2.97 1.878,-6.09 6.609,-6.09 4.601,0 9.68,3.59 9.68,11.79 0,9.57 -9.098,18.21 -25.149,18.21 -28.012,0 -35.859,-21.57 -35.859,-30.86 0,-16.56 15.699,-19.73 21.789,-21.02 11.019,-2.11 22.07,-4.45 22.07,-16.05 0,-5.55 -4.84,-23.32 -30.308,-23.32 -2.973,0 -19.262,0 -24.18,11.25 8.129,-1.1 13.398,5.31 13.398,11.21 0,4.84 -3.398,7.42 -7.89,7.42 -5.508,0 -11.801,-4.45 -11.801,-14.02 0,-12.07 12.07,-20.55 30.32,-20.55 34.25,0 42.531,25.66 42.531,35.19 0,7.62 -4.019,12.93 -6.558,15.47 -5.703,5.9 -11.871,6.96 -21.172,8.87 -7.66,1.68 -16.09,3.2 -16.09,12.74 0,6.17 5.07,19.06 23.75,19.06 5.231,0 15.86,-1.49 19.02,-9.73 z"
         style="fill:#000000;fill-opacity:1;fill-rule:nonzero;stroke:none"
         id="path84" /><path
         d="m 2528.48,3452.31 0,2.07 -0.04,0.16 0,0.62 -0.08,0.16 -0.04,0.27 0,0.28 -0.08,0.19 -0.04,0.24 -0.08,0.19 -0.07,0.16 -0.08,0.19 -0.24,0.24 -0.11,0.16 -0.16,0.11 -0.19,0.08 -0.16,0.08 -0.23,0.08 -0.12,0 -0.08,0.04 -0.12,0.03 -0.15,0 -0.12,0.08 -0.12,0 -0.15,0.04 -0.32,0 -0.11,0.04 -0.9,0 -0.24,0.04 -0.82,0 c -13.16,-13.55 -31.79,-13.55 -38.55,-13.55 l 0,-6.61 c 4.26,0 16.72,0 27.69,5.51 l 0,-109.72 c 0,-7.66 -0.58,-10.16 -19.65,-10.16 l -6.79,0 0,-6.6 c 7.42,0.7 25.86,0.7 34.29,0.7 8.52,0 26.88,0 34.34,-0.7 l 0,6.6 -6.76,0 c -19.06,0 -19.72,2.3 -19.72,10.16 l 0,118.82 z"
         style="fill:#000000;fill-opacity:1;fill-rule:nonzero;stroke:none"
         id="path86" /><path
         d="m 2669.8,3384.5 -0.07,6.33 -0.12,3.2 -0.12,3.17 -0.15,3.16 -0.28,3.16 -0.31,3.13 -0.43,3.12 -0.47,3.09 -0.58,3.13 -0.71,3.04 -0.82,3.05 -0.94,3.08 -1.01,2.97 -1.17,2.97 -0.63,1.49 -0.7,1.44 c -9.69,20.43 -27.11,23.83 -36.02,23.83 -12.65,0 -28.16,-5.55 -36.87,-25.27 -6.8,-14.61 -7.85,-31.18 -7.85,-48.09 0,-15.9 0.9,-34.96 9.57,-51.01 9.1,-17.15 24.61,-21.41 34.96,-21.41 l 0,4.65 c -8.2,0 -20.82,5.31 -24.57,25.62 -2.35,12.7 -2.35,32.15 -2.35,44.77 0,13.51 0,27.46 1.72,38.9 4.03,25.24 19.89,27.11 25.2,27.11 6.95,0 20.97,-3.79 25,-24.8 2.11,-11.8 2.11,-27.97 2.11,-41.21 0,-15.98 0,-30.35 -2.35,-43.91 -3.16,-20.12 -15.23,-26.48 -24.76,-26.48 l 0,-4.65 c 11.44,0 27.5,4.45 36.83,24.61 6.84,14.57 7.89,31.05 7.89,47.81 z"
         style="fill:#000000;fill-opacity:1;fill-rule:nonzero;stroke:none"
         id="path88" /><path
         d="m 2697.11,3329.23 -0.04,-0.32 -0.12,-0.31 -0.04,-0.31 -0.07,-0.35 -0.16,-0.67 -0.12,-0.66 -0.19,-0.7 -0.16,-0.67 -0.19,-0.7 -0.12,-0.66 -0.08,-0.36 -0.08,-0.27 -0.04,-0.31 -0.08,-0.31 -0.07,-0.28 -0.08,-0.31 -0.04,-0.23 -0.04,-0.28 -0.08,-0.47 -0.08,-0.39 0,-0.15 -0.03,-0.16 0,-0.23 c 0,-3.79 2.96,-5.75 6.09,-5.75 2.62,0 6.41,1.68 7.85,5.94 0.27,0.43 2.81,10.35 4.02,15.67 l 4.69,19.06 c 1.29,4.69 2.5,9.29 3.56,14.22 0.89,3.59 2.61,9.72 2.81,10.54 3.2,6.6 14.41,25.86 34.49,25.86 9.57,0 11.49,-7.81 11.49,-14.8 0,-5.31 -1.53,-11.21 -3.21,-17.58 l -5.9,-24.61 -4.25,-16.09 c -0.86,-4.26 -2.78,-11.41 -2.78,-12.46 0,-3.79 2.97,-5.75 6.17,-5.75 6.61,0 7.82,5.32 9.5,12.11 2.97,11.84 10.82,42.78 12.73,51.06 0.63,2.73 11.84,28.12 34.96,28.12 9.1,0 11.45,-7.18 11.45,-14.8 0,-12.11 -8.91,-36.21 -13.13,-47.42 -1.95,-5.12 -2.77,-7.46 -2.77,-11.72 0,-9.89 7.38,-17.35 17.34,-17.35 19.92,0 27.78,30.94 27.78,32.62 0,2.15 -1.92,2.15 -2.5,2.15 -2.15,0 -2.15,-0.66 -3.21,-3.83 -3.2,-11.25 -9.96,-26.25 -21.6,-26.25 -3.67,0 -5.12,2.11 -5.12,6.95 0,5.36 1.92,10.43 3.79,15.08 4.07,10.98 12.97,34.49 12.97,46.6 0,13.71 -8.51,22.62 -24.41,22.62 -15.86,0 -26.6,-9.26 -34.46,-20.51 -0.27,2.78 -0.85,9.96 -6.87,15 -5.23,4.46 -11.99,5.51 -17.3,5.51 -19.07,0 -29.46,-13.51 -33.01,-18.36 -1.1,12.07 -10,18.36 -19.57,18.36 -9.69,0 -13.75,-8.2 -15.67,-11.99 -3.79,-7.46 -6.56,-19.96 -6.56,-20.63 0,-2.11 2.11,-2.11 2.58,-2.11 2.11,0 2.34,0.28 3.55,4.93 3.64,15 7.89,25.15 15.51,25.15 3.4,0 6.56,-1.64 6.56,-9.68 0,-4.46 -0.66,-6.84 -3.36,-17.82 l -12.3,-48.94 z"
         style="fill:#000000;fill-opacity:1;fill-rule:nonzero;stroke:none"
         id="path90" /><path
         d="m 2947.03,3395.99 -1.09,-0.08 -0.59,-0.08 -0.51,-0.16 -0.5,-0.11 -0.51,-0.16 -0.47,-0.2 -0.47,-0.15 -0.47,-0.2 -0.43,-0.27 -0.39,-0.24 -0.43,-0.27 -0.39,-0.31 -0.39,-0.27 -0.7,-0.63 -0.63,-0.7 -0.27,-0.39 -0.31,-0.32 -0.24,-0.39 -0.23,-0.43 -0.2,-0.39 -0.23,-0.43 -0.16,-0.39 -0.12,-0.39 -0.15,-0.43 -0.12,-0.43 -0.08,-0.43 -0.04,-0.47 -0.03,-0.43 0,-0.43 c 0,-2.96 1.87,-6.13 6.52,-6.13 4.69,0 9.72,3.63 9.72,11.84 0,9.57 -9.06,18.2 -25.19,18.2 -27.97,0 -35.78,-21.56 -35.78,-30.86 0,-16.56 15.66,-19.72 21.8,-21.01 11.01,-2.15 22.03,-4.46 22.03,-16.1 0,-5.51 -4.85,-23.28 -30.28,-23.28 -2.97,0 -19.25,0 -24.18,11.21 8.09,-1.05 13.32,5.31 13.32,11.25 0,4.85 -3.39,7.42 -7.81,7.42 -5.51,0 -11.83,-4.45 -11.83,-14.02 0,-12.07 12.1,-20.55 30.27,-20.55 34.33,0 42.62,25.67 42.62,35.16 0,7.62 -4.03,12.93 -6.61,15.51 -5.66,5.9 -11.87,6.95 -21.17,8.86 -7.65,1.68 -16.09,3.21 -16.09,12.74 0,6.13 5.04,19.02 23.71,19.02 5.27,0 15.9,-1.44 19.1,-9.68 z"
         style="fill:#000000;fill-opacity:1;fill-rule:nonzero;stroke:none"
         id="path92" /><path
         d="m 528.91,2466.65 0,3.12 -0.039,3.21 -0.082,3.2 -0.16,3.13 -0.188,3.2 -0.242,3.12 -0.347,3.17 -0.391,3.08 -0.512,3.13 -0.578,3.08 -0.711,3.09 -0.781,3.05 -0.899,3.04 -1.05,3.01 -1.211,2.97 -0.629,1.49 -0.66,1.44 c -9.731,20.39 -27.11,23.79 -36.02,23.79 -12.691,0 -28.16,-5.51 -36.871,-25.23 -6.758,-14.65 -7.809,-31.18 -7.809,-48.09 0,-15.9 0.821,-34.96 9.532,-51.02 9.097,-17.14 24.609,-21.4 34.957,-21.4 l 0,4.65 c -8.239,0 -20.778,5.31 -24.61,25.62 -2.308,12.66 -2.308,32.15 -2.308,44.73 0,13.51 0,27.46 1.719,38.9 3.992,25.28 19.89,27.15 25.199,27.15 6.992,0 20.98,-3.79 24.961,-24.8 2.148,-11.84 2.148,-27.97 2.148,-41.25 0,-15.94 0,-30.32 -2.348,-43.87 -3.199,-20.12 -15.269,-26.48 -24.761,-26.48 l 0,-4.65 c 11.402,0 27.461,4.41 36.871,24.57 6.762,14.61 7.82,31.09 7.82,47.85 z"
         style="fill:#000000;fill-opacity:1;fill-rule:nonzero;stroke:none"
         id="path94" /><path
         d="m 1075.47,2529.81 0,2.07 -0.04,0.16 0,0.62 -0.04,0.12 -0.08,0.31 0,0.28 -0.08,0.19 -0.03,0.2 -0.08,0.23 -0.08,0.16 -0.08,0.19 -0.51,0.51 -0.19,0.08 -0.16,0.08 -0.23,0.08 -0.12,0 -0.08,0.04 -0.12,0.03 -0.15,0 -0.12,0.08 -0.12,0 -0.15,0.04 -0.31,0 -0.12,0.04 -0.9,0 -0.23,0.04 -0.83,0 c -13.16,-13.55 -31.75,-13.55 -38.55,-13.55 l 0,-6.61 c 4.26,0 16.72,0 27.7,5.51 l 0,-109.72 c 0,-7.66 -0.59,-10.16 -19.65,-10.16 l -6.8,0 0,-6.6 c 7.46,0.66 25.86,0.66 34.3,0.66 8.51,0 26.87,0 34.33,-0.66 l 0,6.6 -6.75,0 c -19.07,0 -19.73,2.3 -19.73,10.16 l 0,118.82 z"
         style="fill:#000000;fill-opacity:1;fill-rule:nonzero;stroke:none"
         id="path96" /><path
         d="m 1606.8,2410.56 22.42,21.79 c 33.01,29.22 45.78,40.67 45.78,61.84 0,24.18 -19.06,41.17 -44.92,41.17 -23.99,0 -39.69,-19.57 -39.69,-38.4 0,-11.87 10.66,-11.87 11.25,-11.87 3.63,0 11.06,2.54 11.06,11.25 0,5.5 -3.79,11.05 -11.22,11.05 -1.68,0 -2.14,0 -2.73,-0.23 4.84,13.79 16.29,21.6 28.55,21.6 19.26,0 28.4,-17.23 28.4,-34.57 0,-16.92 -10.62,-33.67 -22.22,-46.8 l -40.63,-45.35 c -2.46,-2.27 -2.46,-2.7 -2.46,-7.81 l 78.63,0 5.98,36.87 -5.35,0 c -1.06,-6.4 -2.5,-15.7 -4.61,-18.9 -1.52,-1.64 -15.47,-1.64 -20.12,-1.64 l -38.12,0 z"
         style="fill:#000000;fill-opacity:1;fill-rule:nonzero;stroke:none"
         id="path98" /><path
         d="m 2212.66,2473.41 1.6,0.54 1.56,0.63 1.56,0.66 1.53,0.71 1.48,0.78 1.45,0.78 1.4,0.86 2.66,1.87 1.33,0.98 1.21,1.02 1.21,1.05 2.26,2.27 1.06,1.17 1.01,1.21 0.94,1.25 0.9,1.25 0.86,1.29 1.56,2.73 0.67,1.33 0.58,1.41 0.63,1.44 0.93,2.89 0.36,1.53 0.31,1.52 0.27,1.52 0.16,1.53 0.08,1.52 0.04,1.6 c 0,17.34 -18.68,29.22 -38.99,29.22 -21.37,0 -37.46,-12.73 -37.46,-28.83 0,-6.99 4.65,-11.05 10.82,-11.05 6.52,0 10.78,4.68 10.78,10.86 0,10.54 -10,10.54 -13.08,10.54 6.48,10.39 20.54,13.17 28.12,13.17 8.63,0 20.35,-4.65 20.35,-23.71 0,-2.58 -0.47,-14.85 -5.97,-24.18 -6.33,-10.2 -13.56,-10.78 -18.79,-11.02 -1.72,-0.23 -6.8,-0.62 -8.32,-0.62 -1.68,-0.2 -3.21,-0.39 -3.21,-2.54 0,-2.31 1.53,-2.31 5.16,-2.31 l 9.26,0 c 17.42,0 25.27,-14.41 25.27,-35.23 0,-28.75 -14.65,-34.92 -23.98,-34.92 -9.11,0 -25,3.59 -32.35,16.09 7.35,-1.02 13.95,3.63 13.95,11.68 0,7.62 -5.71,11.84 -11.92,11.84 -5.03,0 -11.83,-2.93 -11.83,-12.31 0,-19.26 19.69,-33.2 42.81,-33.2 25.82,0 45.12,19.26 45.12,40.82 0,17.42 -13.4,33.9 -35.35,38.36 z"
         style="fill:#000000;fill-opacity:1;fill-rule:nonzero;stroke:none"
         id="path100" /><path
         d="m 2783.52,2429.19 0,-18.44 c 0,-7.62 -0.4,-9.92 -16.1,-9.92 l -4.45,0 0,-6.6 c 8.71,0.66 19.73,0.66 28.67,0.66 8.87,0 20.08,0 28.71,-0.66 l 0,6.6 -4.41,0 c -15.67,0 -16.1,2.3 -16.1,9.92 l 0,18.44 21.21,0 0,6.52 -21.21,0 0,96.45 c 0,4.25 0,5.5 -3.36,5.5 -1.95,0 -2.57,0 -4.25,-2.61 l -65.08,-99.34 6.01,0 51.64,79.03 0,-79.03 -57.65,0 0,-6.52 56.37,0 z"
         style="fill:#000000;fill-opacity:1;fill-rule:nonzero;stroke:none"
         id="path102" /><path
         d="m 3394.06,2441.41 -0.04,2.39 -0.11,2.3 -0.24,2.31 -0.35,2.22 -0.43,2.27 -0.55,2.19 -0.58,2.11 -0.74,2.14 -0.75,2.04 -0.89,1.99 -0.94,1.95 -1.02,1.88 -1.13,1.83 -1.17,1.72 -1.25,1.72 -1.29,1.6 -1.41,1.52 -1.44,1.53 -3.13,2.65 -1.6,1.25 -1.72,1.1 -1.72,1.05 -1.79,0.94 -1.84,0.86 -1.88,0.7 -1.95,0.67 -1.95,0.54 -2.03,0.39 -2.03,0.28 -2.11,0.23 -2.11,0.04 c -10.16,0 -19.3,-3.4 -26.92,-10.78 l 0,41.25 c 4.26,-1.21 11.21,-2.7 17.97,-2.7 26.06,0 40.86,19.26 40.86,22.07 0,1.25 -0.58,2.31 -2.11,2.31 -0.23,0 -0.58,0 -1.68,-0.66 -4.22,-1.92 -14.61,-6.14 -28.83,-6.14 -8.39,0 -18.2,1.49 -28.16,5.94 -1.68,0.59 -2.15,0.59 -2.54,0.59 -2.11,0 -2.11,-1.68 -2.11,-5.04 l 0,-62.7 c 0,-3.79 0,-5.55 2.97,-5.55 1.48,0 1.88,0.71 2.73,1.92 2.35,3.4 10.2,14.84 27.35,14.84 11.01,0 16.33,-9.76 17.97,-13.55 3.43,-7.81 3.86,-16.1 3.86,-26.72 0,-7.38 0,-20.16 -5.11,-29.02 -5.04,-8.25 -12.89,-13.75 -22.66,-13.75 -15.47,0 -27.5,11.25 -31.13,23.71 0.62,-0.2 1.29,-0.39 3.63,-0.39 6.99,0 10.55,5.31 10.55,10.35 0,5.11 -3.56,10.39 -10.55,10.39 -3.01,0 -10.47,-1.49 -10.47,-11.25 0,-18.2 14.65,-38.71 38.44,-38.71 24.49,0 46.13,20.31 46.13,47.18 z"
         style="fill:#000000;fill-opacity:1;fill-rule:nonzero;stroke:none"
         id="path104" /><path
         d="m 3898.28,2468.33 0,5.08 c 0,53.59 26.21,61.25 37.07,61.25 5,0 13.95,-1.25 18.6,-8.48 -3.13,0 -11.61,0 -11.61,-9.53 0,-6.56 5.08,-9.73 9.73,-9.73 3.4,0 9.73,1.92 9.73,10.16 0,12.73 -9.3,22.89 -26.88,22.89 -27.15,0 -55.74,-27.38 -55.74,-74.14 0,-56.6 24.57,-71.6 44.26,-71.6 23.51,0 43.67,19.88 43.67,47.85 0,26.87 -18.87,47.26 -42.38,47.26 l -0.24,-4.92 c 3.44,0 13.17,0 19.77,-13.16 3.75,-7.77 3.75,-18.56 3.75,-28.95 0,-10.15 0,-20.78 -3.56,-28.43 -6.36,-12.66 -16.05,-13.75 -21.01,-13.75 -13.36,0 -19.69,12.69 -20.9,15.86 -3.87,9.96 -3.87,26.91 -3.87,30.74 0,16.52 6.8,37.69 25.82,37.69 l 0.24,4.92 c -14.38,0 -22.19,-10.85 -26.45,-21.01 z"
         style="fill:#000000;fill-opacity:1;fill-rule:nonzero;stroke:none"
         id="path106" /><path
         d="m 4538.28,2527.86 0.16,0.27 0.19,0.2 0.12,0.23 0.12,0.2 0.11,0.15 0.16,0.2 0.12,0.2 0.08,0.19 0.15,0.31 0.12,0.2 0.08,0.15 0.04,0.16 0.07,0.2 0.08,0.31 0.08,0.39 0.08,0.23 0,0.16 0.04,0.27 0,0.2 0.04,0.23 0,1.14 0.04,0.31 0,1.52 -51.45,0 c -25.86,0 -26.33,2.74 -27.19,6.76 l -5.23,0 -6.95,-43.59 5.23,0 c 0.66,3.39 2.58,16.75 5.31,19.25 1.45,1.29 18.01,1.29 20.74,1.29 l 43.87,0 c -2.38,-3.4 -19.02,-26.56 -23.75,-33.51 -19.06,-28.52 -26.01,-58.05 -26.01,-79.65 0,-2.11 0,-11.6 9.72,-11.6 9.77,0 9.77,9.49 9.77,11.6 l 0,10.86 c 0,11.6 0.58,23.28 2.34,34.72 0.78,4.85 3.79,23.05 13.05,36.18 l 28.67,40.27 z"
         style="fill:#000000;fill-opacity:1;fill-rule:nonzero;stroke:none"
         id="path108" /><path
         d="m 5081.8,2475.52 1.4,0.78 1.41,0.7 1.37,0.82 1.32,0.82 1.29,0.78 1.25,0.86 2.43,1.72 2.26,1.8 1.06,0.9 1.05,0.97 0.98,0.94 0.97,1.02 0.9,1.01 0.86,1.02 0.82,1.01 0.78,1.06 0.75,1.05 0.66,1.1 1.25,2.26 0.51,1.17 0.47,1.14 0.39,1.17 0.39,1.21 0.35,1.17 0.27,1.25 0.2,1.25 0.11,1.25 0.08,1.29 0.04,1.33 c 0,19.49 -18.87,31.6 -38.12,31.6 l -0.16,-5.31 c 15.47,0 28.98,-11.06 28.98,-26.29 0,-12.03 -8.28,-22.23 -20.97,-29.65 l -26.25,16.91 c -9.73,6.37 -10.63,13.56 -10.63,17.19 0,12.93 13.79,21.84 28.87,21.84 l 0.16,5.31 c -21.18,0 -38.32,-15.66 -38.32,-35.39 0,-3.79 0.39,-13.36 9.29,-23.36 2.35,-2.5 10.2,-7.81 15.51,-11.41 l 4.84,-3.16 26.1,-16.52 c 5.94,-4.03 15.86,-10.39 15.86,-23.29 0,-15.7 -15.86,-26.71 -33.28,-26.71 -18.21,0 -33.48,13.16 -33.48,30.66 0,12.34 6.8,25.86 24.8,35.86 l -4.84,3.16 c -12.34,-6.09 -30.55,-18 -30.55,-39.02 0,-22.46 21.61,-36.56 43.91,-36.56 23.87,0 44.02,17.61 44.02,40.23 0,7.62 -2.3,17.19 -10.35,26.06 -4.1,4.45 -7.46,6.6 -21.01,15 z"
         style="fill:#000000;fill-opacity:1;fill-rule:nonzero;stroke:none"
         id="path110" /><path
         d="m 5667.11,2466.22 0,-6.76 c 0,-49.57 -21.95,-59.33 -34.26,-59.33 -3.67,0 -15.08,0.46 -20.78,7.61 9.3,0 11.02,6.14 11.02,9.81 0,6.48 -5.12,9.69 -9.81,9.69 -3.36,0 -9.69,-1.88 -9.69,-10.16 0,-14.18 11.45,-22.85 29.46,-22.85 27.3,0 53.16,28.75 53.16,74.33 0,57 -24.41,71.41 -43.2,71.41 -11.68,0 -22.07,-3.87 -31.17,-13.32 -8.72,-9.57 -13.56,-18.52 -13.56,-34.38 0,-26.44 18.67,-47.22 42.38,-47.22 l 0.24,4.84 c -3.4,0 -13.17,0 -19.73,13.36 -3.79,7.81 -3.79,18.44 -3.79,28.83 0,11.41 0,21.37 4.42,29.26 5.74,10.54 13.79,13.32 21.21,13.32 9.69,0 16.76,-7.27 20.31,-16.76 2.54,-6.76 3.44,-20.12 3.44,-29.88 0,-17.54 -7.31,-38.13 -25.86,-38.13 l -0.24,-4.84 c 12.89,0 21.61,8.86 26.45,21.17 z"
         style="fill:#000000;fill-opacity:1;fill-rule:nonzero;stroke:none"
         id="path112" /><g
         id="g114"
         transform="scale(10,10)"><text
           transform="matrix(0.75,0,0,-1,233.581,267.579)"
           id="text116"><tspan
             style="fill:#000000;fill-opacity:1;fill-rule:nonzero;stroke:none;font-family:DejaVu Sans;font-variant:normal;font-weight:normal;font-size:17.3201;writing-mode:lr;-inkscape-font-specification:DejaVuSans"
             x="0 10.6518615 23.6072963 35.4888849 41.741441 53.7789105"
             y="0"
             sodipodi:role="line"
             id="tspan118">eNB-RN</tspan><tspan
             style="fill:#000000;fill-opacity:1;fill-rule:nonzero;stroke:none;font-family:DejaVu Sans;font-variant:normal;font-weight:normal;font-size:17.3201;writing-mode:lr;-inkscape-font-specification:DejaVuSans"
             x="0 13.336477"
             y="21.6504"
             sodipodi:role="line"
             id="tspan120">DL</tspan><tspan
             style="fill:#000000;fill-opacity:1;fill-rule:nonzero;stroke:none;font-family:DejaVu Sans;font-variant:normal;font-weight:normal;font-size:17.3201;writing-mode:lr;-inkscape-font-specification:DejaVuSans"
             x="382.195 392.8468615 405.8022963 417.6838849 423.936441 436.6147542"
             y="0"
             sodipodi:role="line"
             id="tspan122">eNB-UE</tspan><tspan
             style="fill:#000000;fill-opacity:1;fill-rule:nonzero;stroke:none;font-family:DejaVu Sans;font-variant:normal;font-weight:normal;font-size:17.3201;writing-mode:lr;-inkscape-font-specification:DejaVuSans"
             x="382.195 395.531477"
             y="21.6504"
             sodipodi:role="line"
             id="tspan124">DL</tspan><tspan
             style="fill:#000000;fill-opacity:1;fill-rule:nonzero;stroke:none;font-family:DejaVu Sans;font-variant:normal;font-weight:normal;font-size:17.3201;writing-mode:lr;-inkscape-font-specification:DejaVuSans"
             x="305.2757 317.3131695 330.2686043 336.5211604 347.1730219 360.1284567"
             y="0.1438"
             sodipodi:role="line"
             id="tspan126">RN-eNB</tspan><tspan
             style="fill:#000000;fill-opacity:1;fill-rule:nonzero;stroke:none;font-family:DejaVu Sans;font-variant:normal;font-weight:normal;font-size:17.3201;writing-mode:lr;-inkscape-font-specification:DejaVuSans"
             x="305.2757 317.9540132"
             y="21.7942"
             sodipodi:role="line"
             id="tspan128">UL</tspan><tspan
             style="fill:#000000;fill-opacity:1;fill-rule:nonzero;stroke:none;font-family:DejaVu Sans;font-variant:normal;font-weight:normal;font-size:17.3201;writing-mode:lr;-inkscape-font-specification:DejaVuSans"
             x="-152.4753 -139.7969868 -128.8506836 -122.5981275 -111.946266 -98.9908312"
             y="-0.1226"
             sodipodi:role="line"
             id="tspan130">UE-eNB</tspan><tspan
             style="fill:#000000;fill-opacity:1;fill-rule:nonzero;stroke:none;font-family:DejaVu Sans;font-variant:normal;font-weight:normal;font-size:17.3201;writing-mode:lr;-inkscape-font-specification:DejaVuSans"
             x="-152.4753 -139.7969868"
             y="21.5278"
             sodipodi:role="line"
             id="tspan132">UL</tspan><tspan
             style="fill:#000000;fill-opacity:1;fill-rule:nonzero;stroke:none;font-family:DejaVu Sans;font-variant:normal;font-weight:normal;font-size:17.3201;writing-mode:lr;-inkscape-font-specification:DejaVuSans"
             x="-221.942 -208.605523 -199.28727283 -193.03471673 -180.35640353 -170.70910783"
             y="-0.1226"
             sodipodi:role="line"
             id="tspan134">DL-UL </tspan><tspan
             style="fill:#000000;fill-opacity:1;fill-rule:nonzero;stroke:none;font-family:DejaVu Sans;font-variant:normal;font-weight:normal;font-size:17.3201;writing-mode:lr;-inkscape-font-specification:DejaVuSans"
             x="-221.942 -215.1525208 -208.0339597 -197.4167384 -186.38391507"
             y="21.5278"
             sodipodi:role="line"
             id="tspan136">trans</tspan><tspan
             style="fill:#000000;fill-opacity:1;fill-rule:nonzero;stroke:none;font-family:DejaVu Sans;font-variant:normal;font-weight:normal;font-size:17.3201;writing-mode:lr;-inkscape-font-specification:DejaVuSans"
             x="-305.0561 -294.4042385 -281.4488037 -269.5672151 -263.314659 -250.6363458"
             y="0.0001"
             sodipodi:role="line"
             id="tspan138">eNB-UE</tspan><tspan
             style="fill:#000000;fill-opacity:1;fill-rule:nonzero;stroke:none;font-family:DejaVu Sans;font-variant:normal;font-weight:normal;font-size:17.3201;writing-mode:lr;-inkscape-font-specification:DejaVuSans"
             x="-305.0561 -291.719623"
             y="21.6505"
             sodipodi:role="line"
             id="tspan140">DL</tspan><tspan
             style="fill:#000000;fill-opacity:1;fill-rule:nonzero;stroke:none;font-family:DejaVu Sans;font-variant:normal;font-weight:normal;font-size:17.3201;writing-mode:lr;-inkscape-font-specification:DejaVuSans"
             x="159.9059 173.242377 182.56063583 188.81319193 201.49150513"
             y="-0.1225"
             sodipodi:role="line"
             id="tspan142">DL-UL</tspan><tspan
             style="fill:#000000;fill-opacity:1;fill-rule:nonzero;stroke:none;font-family:DejaVu Sans;font-variant:normal;font-weight:normal;font-size:17.3201;writing-mode:lr;-inkscape-font-specification:DejaVuSans"
             x="159.9059 166.6953792 173.8139403 184.4311616 195.46399308"
             y="21.5279"
             sodipodi:role="line"
             id="tspan144">trans</tspan><tspan
             style="fill:#000000;fill-opacity:1;fill-rule:nonzero;stroke:none;font-family:DejaVu Sans;font-variant:normal;font-weight:normal;font-size:17.3201;writing-mode:lr;-inkscape-font-specification:DejaVuSans"
             x="76.7497 87.4015615 100.3569963 112.2385849 118.491141 131.1694542"
             y="0.0002"
             sodipodi:role="line"
             id="tspan146">eNB-UE</tspan><tspan
             style="fill:#000000;fill-opacity:1;fill-rule:nonzero;stroke:none;font-family:DejaVu Sans;font-variant:normal;font-weight:normal;font-size:17.3201;writing-mode:lr;-inkscape-font-specification:DejaVuSans"
             x="76.7497 90.086177"
             y="21.6506"
             sodipodi:role="line"
             id="tspan148">DL</tspan><tspan
             style="fill:#000000;fill-opacity:1;fill-rule:nonzero;stroke:none;font-family:DejaVu Sans;font-variant:normal;font-weight:normal;font-size:17.3201;writing-mode:lr;-inkscape-font-specification:DejaVuSans"
             x="-76.0713 -63.3929868 -52.4466836 -46.1941275 -35.542266 -22.5868312"
             y="-0.1224"
             sodipodi:role="line"
             id="tspan150">UE-eNB</tspan><tspan
             style="fill:#000000;fill-opacity:1;fill-rule:nonzero;stroke:none;font-family:DejaVu Sans;font-variant:normal;font-weight:normal;font-size:17.3201;writing-mode:lr;-inkscape-font-specification:DejaVuSans"
             x="-76.0713 -63.3929868"
             y="21.528"
             sodipodi:role="line"
             id="tspan152">UL</tspan><tspan
             style="fill:#000000;fill-opacity:1;fill-rule:nonzero;stroke:none;font-family:DejaVu Sans;font-variant:normal;font-weight:normal;font-size:17.3201;writing-mode:lr;-inkscape-font-specification:DejaVuSans"
             x="229.5467 242.2250132 253.1713164 259.4238725 270.075734 283.0311688"
             y="-0.1224"
             sodipodi:role="line"
             id="tspan154">UE-eNB</tspan><tspan
             style="fill:#000000;fill-opacity:1;fill-rule:nonzero;stroke:none;font-family:DejaVu Sans;font-variant:normal;font-weight:normal;font-size:17.3201;writing-mode:lr;-inkscape-font-specification:DejaVuSans"
             x="229.5467 242.2250132"
             y="21.528"
             sodipodi:role="line"
             id="tspan156">UL</tspan></text>
</g><path
         d="m 407.93,65.0039 0,1666.0261 c 0,12.68 10.23,22.93 22.968,22.93 l 5032.622,0 c 12.73,0 22.96,-10.25 22.96,-22.93 l 0,-1666.0261"
         style="fill:none;stroke:#000000;stroke-opacity:1;stroke-width:8;stroke-linecap:butt;stroke-linejoin:miter;stroke-miterlimit:4;stroke-dasharray:none"
         id="path158" /><path
         d="m 407.93,19.3789 c 3.55,0 6.41,-2.8476 6.41,-6.3984 0,-3.51956 -2.86,-6.37112 -6.41,-6.37112 -3.52,0 -6.41,2.85156 -6.41,6.37112 0,3.5508 2.89,6.3984 6.41,6.3984 z"
         style="fill:#000000;fill-opacity:1;fill-rule:nonzero;stroke:none"
         id="path160" /><path
         d="m 407.93,47.3906 c 3.55,0 6.41,-2.8515 6.41,-6.4023 0,-3.5195 -2.86,-6.4102 -6.41,-6.4102 -3.52,0 -6.41,2.8907 -6.41,6.4102 0,3.5508 2.89,6.4023 6.41,6.4023 z"
         style="fill:#000000;fill-opacity:1;fill-rule:nonzero;stroke:none"
         id="path162" /><path
         d="m 5486.48,34.5781 c -3.55,0 -6.4,2.8907 -6.4,6.4102 0,3.5508 2.85,6.4023 6.4,6.4023 3.52,0 6.37,-2.8515 6.37,-6.4023 0,-3.5195 -2.85,-6.4102 -6.37,-6.4102 z"
         style="fill:#000000;fill-opacity:1;fill-rule:nonzero;stroke:none"
         id="path164" /><path
         d="m 5486.48,6.60938 c -3.55,0 -6.4,2.85156 -6.4,6.37112 0,3.5508 2.85,6.3984 6.4,6.3984 3.52,0 6.37,-2.8476 6.37,-6.3984 0,-3.51956 -2.85,-6.37112 -6.37,-6.37112 z"
         style="fill:#000000;fill-opacity:1;fill-rule:nonzero;stroke:none"
         id="path166" /><path
         d="m 2871.13,1745.91 0,-1757.6248"
         style="fill:none;stroke:#000000;stroke-opacity:1;stroke-width:8;stroke-linecap:butt;stroke-linejoin:miter;stroke-miterlimit:4;stroke-dasharray:8,24;stroke-dashoffset:0"
         id="path168" /><path
         d="m 5479.65,1614.62 -5067.81,0"
         style="fill:none;stroke:#000000;stroke-opacity:1;stroke-width:8;stroke-linecap:butt;stroke-linejoin:miter;stroke-miterlimit:4;stroke-dasharray:8,24;stroke-dashoffset:0"
         id="path170" /><path
         d="m 5479.65,1475.32 -5067.81,0"
         style="fill:none;stroke:#000000;stroke-opacity:1;stroke-width:8;stroke-linecap:butt;stroke-linejoin:miter;stroke-miterlimit:4;stroke-dasharray:8,24;stroke-dashoffset:0"
         id="path172" /><path
         d="m 5479.65,1335.98 -5067.81,0"
         style="fill:none;stroke:#000000;stroke-opacity:1;stroke-width:8;stroke-linecap:butt;stroke-linejoin:miter;stroke-miterlimit:4;stroke-dasharray:8,24;stroke-dashoffset:0"
         id="path174" /><path
         d="m 5479.65,1196.64 -5067.81,0"
         style="fill:none;stroke:#000000;stroke-opacity:1;stroke-width:8;stroke-linecap:butt;stroke-linejoin:miter;stroke-miterlimit:4;stroke-dasharray:8,24;stroke-dashoffset:0"
         id="path176" /><path
         d="m 5479.65,1057.32 -5067.81,0"
         style="fill:none;stroke:#000000;stroke-opacity:1;stroke-width:8;stroke-linecap:butt;stroke-linejoin:miter;stroke-miterlimit:4;stroke-dasharray:8,24;stroke-dashoffset:0"
         id="path178" /><path
         d="m 5479.65,917.977 -5067.81,0"
         style="fill:none;stroke:#000000;stroke-opacity:1;stroke-width:8;stroke-linecap:butt;stroke-linejoin:miter;stroke-miterlimit:4;stroke-dasharray:8,24;stroke-dashoffset:0"
         id="path180" /><path
         d="m 5479.65,778.645 -5067.81,0"
         style="fill:none;stroke:#000000;stroke-opacity:1;stroke-width:8;stroke-linecap:butt;stroke-linejoin:miter;stroke-miterlimit:4;stroke-dasharray:8,24;stroke-dashoffset:0"
         id="path182" /><path
         d="m 5479.65,639.344 -5067.81,0"
         style="fill:none;stroke:#000000;stroke-opacity:1;stroke-width:8;stroke-linecap:butt;stroke-linejoin:miter;stroke-miterlimit:4;stroke-dasharray:8,24;stroke-dashoffset:0"
         id="path184" /><path
         d="m 5479.65,500.004 -5067.81,0"
         style="fill:none;stroke:#000000;stroke-opacity:1;stroke-width:8;stroke-linecap:butt;stroke-linejoin:miter;stroke-miterlimit:4;stroke-dasharray:8,24;stroke-dashoffset:0"
         id="path186" /><path
         d="m 5479.65,360.676 -5067.81,0"
         style="fill:none;stroke:#000000;stroke-opacity:1;stroke-width:8;stroke-linecap:butt;stroke-linejoin:miter;stroke-miterlimit:4;stroke-dasharray:8,24;stroke-dashoffset:0"
         id="path188" /><path
         d="m 5479.65,221.336 -5067.81,0"
         style="fill:none;stroke:#000000;stroke-opacity:1;stroke-width:8;stroke-linecap:butt;stroke-linejoin:miter;stroke-miterlimit:4;stroke-dasharray:8,24;stroke-dashoffset:0"
         id="path190" /><path
         d="m 5479.65,82.0039 -5067.81,0"
         style="fill:none;stroke:#000000;stroke-opacity:1;stroke-width:8;stroke-linecap:butt;stroke-linejoin:miter;stroke-miterlimit:4;stroke-dasharray:8,24;stroke-dashoffset:0"
         id="path192" /><path
         d="m 466.02,1714.39 4959.57,0 c 5.78,0 10.43,-4.66 10.43,-10.43 l 0,-736.022 c 0,-5.782 -4.65,-10.434 -10.43,-10.434 l -4959.57,0 c -5.79,0 -10.43,4.652 -10.43,10.434 l 0,736.022 c 0,5.77 4.64,10.43 10.43,10.43 z"
         style="fill:none;stroke:#008080;stroke-opacity:1;stroke-width:27.6922;stroke-linecap:butt;stroke-linejoin:miter;stroke-miterlimit:4;stroke-dasharray:none"
         id="path194" /><path
         d="m 402.031,1740.82 0,261.25"
         style="fill:none;stroke:#000000;stroke-opacity:1;stroke-width:5.72216;stroke-linecap:butt;stroke-linejoin:miter;stroke-miterlimit:4;stroke-dasharray:none"
         id="path196" /><path
         d="m 2871.64,1740.82 0,261.25"
         style="fill:none;stroke:#000000;stroke-opacity:1;stroke-width:5.72216;stroke-linecap:butt;stroke-linejoin:miter;stroke-miterlimit:4;stroke-dasharray:none"
         id="path198" /><path
         d="m 402.031,1846.5 2460.819,0"
         style="fill:none;stroke:#000000;stroke-opacity:1;stroke-width:5.72216;stroke-linecap:butt;stroke-linejoin:miter;stroke-miterlimit:4;stroke-dasharray:none"
         id="path200" /><path
         d="m 459.262,1846.49 22.886,22.89 -80.117,-22.89 80.117,-22.89 -22.886,22.89 z"
         style="fill:#000000;fill-opacity:1;fill-rule:evenodd;stroke:none"
         id="path202" /><path
         d="m 459.262,1846.5 22.886,22.89 -80.117,-22.89 80.117,-22.89 -22.886,22.89 z"
         style="fill:none;stroke:#000000;stroke-opacity:1;stroke-width:5.72216;stroke-linecap:butt;stroke-linejoin:miter;stroke-miterlimit:4;stroke-dasharray:none"
         id="path204" /><path
         d="m 2805.62,1846.49 -22.89,-22.89 80.12,22.89 -80.12,22.89 22.89,-22.89 z"
         style="fill:#000000;fill-opacity:1;fill-rule:evenodd;stroke:none"
         id="path206" /><path
         d="m 2805.62,1846.5 -22.89,-22.89 80.12,22.89 -80.12,22.89 22.89,-22.89 z"
         style="fill:none;stroke:#000000;stroke-opacity:1;stroke-width:5.72216;stroke-linecap:butt;stroke-linejoin:miter;stroke-miterlimit:4;stroke-dasharray:none"
         id="path208" /><path
         d="m 466.02,887.664 4959.57,0 c 5.78,0 10.43,-4.648 10.43,-10.43 l 0,-736.019 c 0,-5.777 -4.65,-10.43 -10.43,-10.43 l -4959.57,0 c -5.79,0 -10.43,4.653 -10.43,10.43 l 0,736.019 c 0,5.782 4.64,10.43 10.43,10.43 z"
         style="fill:none;stroke:#008080;stroke-opacity:1;stroke-width:27.6922;stroke-linecap:butt;stroke-linejoin:miter;stroke-miterlimit:4;stroke-dasharray:none"
         id="path210" /><path
         d="m 152.23,1892.78 17.649,0 c 4.101,0 6.172,0 6.172,4.14 0,2.27 -2.071,2.27 -5.539,2.27 l -17.071,0 4.289,23.47 c 0.86,4.3 3.75,18.87 5,21.33 1.84,3.91 5.321,7 9.649,7 0.781,0 6.141,0 10.082,-3.75 -9.063,-0.75 -11.09,-7.93 -11.09,-11.06 0,-4.69 3.668,-7.15 7.609,-7.15 5.321,0 11.25,4.53 11.25,12.31 0,9.45 -9.492,14.18 -17.851,14.18 -7.027,0 -19.957,-3.68 -26.09,-24.03 -1.211,-4.33 -1.879,-6.4 -6.801,-32.3 l -14.136,0 c -3.942,0 -6.172,0 -6.172,-3.87 0,-2.54 1.84,-2.54 5.742,-2.54 l 13.558,0 -15.468,-81.13 c -3.672,-19.92 -7.153,-38.67 -17.852,-38.67 -0.82,0 -5.8983,0 -9.8905,3.75 9.5005,0.58 11.3325,8.01 11.3325,11.09 0,4.69 -3.672,7.23 -7.6528,7.23 -5.3203,0 -11.25,-4.53 -11.25,-12.39 0,-9.25 9.0196,-14.17 17.4608,-14.17 11.289,0 19.531,12.1 23.199,19.96 6.563,12.93 11.371,37.77 11.563,39.25 l 12.308,65.08 z"
         style="fill:#000000;fill-opacity:1;fill-rule:nonzero;stroke:none"
         id="path212" /><path
         d="m 240.23,1835.01 -0.46,-0.12 -0.43,-0.08 -0.469,-0.11 -0.43,-0.2 -0.39,-0.12 -0.391,-0.15 -0.39,-0.2 -0.36,-0.23 -0.351,-0.2 -0.309,-0.19 -0.309,-0.28 -0.32,-0.23 -0.269,-0.24 -0.274,-0.31 -0.238,-0.23 -0.231,-0.28 -0.199,-0.31 -0.39,-0.54 -0.192,-0.36 -0.117,-0.27 -0.16,-0.35 -0.11,-0.27 -0.121,-0.36 -0.082,-0.27 -0.117,-0.31 -0.07,-0.35 -0.039,-0.28 -0.043,-0.35 -0.039,-0.27 -0.039,-0.35 0,-0.28 c 0,-3.86 3.05,-5.27 5.629,-5.27 3.16,0 8.199,2.26 8.199,9.14 0,9.8 -11.207,12.5 -18.989,12.5 -21.558,0 -41.519,-19.8 -41.519,-39.77 0,-12.34 8.59,-25 26.598,-25 24.3,0 35.632,14.22 35.632,16.25 0,0.86 -1.293,2.47 -2.421,2.47 -0.86,0 -1.219,-0.36 -2.348,-1.49 -11.25,-13.2 -28.012,-13.2 -30.621,-13.2 -10.321,0 -14.93,6.99 -14.93,15.94 0,4.14 2.078,19.8 9.539,29.72 5.391,7.07 12.852,11.1 20.07,11.1 2.04,0 8.911,-0.24 12.5,-4.3 z"
         style="fill:#000000;fill-opacity:1;fill-rule:nonzero;stroke:none"
         id="path214" /><path
         d="m 1453.98,1963.56 0,3.13 -0.03,3.2 -0.08,3.17 -0.16,3.12 -0.19,3.16 -0.24,3.13 -0.35,3.12 -0.39,3.09 -0.51,3.09 -0.58,3.08 -0.67,3.05 -0.82,3.05 -0.86,3.04 -1.05,2.97 -1.21,2.97 -0.63,1.48 -0.66,1.41 c -9.65,20.31 -26.96,23.71 -35.82,23.71 -12.62,0 -28.01,-5.51 -36.68,-25.12 -6.72,-14.57 -7.78,-31.01 -7.78,-47.85 0,-15.82 0.86,-34.76 9.53,-50.74 9.03,-17.03 24.42,-21.25 34.73,-21.25 l 0,4.61 c -8.2,0 -20.66,5.27 -24.45,25.51 -2.31,12.58 -2.31,31.95 -2.31,44.45 0,13.48 0,27.35 1.72,38.71 3.95,25.12 19.77,26.96 25.04,26.96 6.95,0 20.86,-3.75 24.85,-24.65 2.1,-11.76 2.1,-27.82 2.1,-41.02 0,-15.86 0,-30.15 -2.34,-43.63 -3.16,-20 -15.16,-26.33 -24.61,-26.33 l 0,-4.61 c 11.37,0 27.35,4.38 36.68,24.42 6.72,14.53 7.77,30.93 7.77,47.57 z"
         style="fill:#000000;fill-opacity:1;fill-rule:nonzero;stroke:none"
         id="path216" /><path
         d="m 1503.05,1907.35 0,0.55 -0.04,0.59 -0.08,0.54 -0.12,0.55 -0.11,0.51 -0.16,0.54 -0.16,0.51 -0.23,0.51 -0.2,0.51 -0.27,0.47 -0.23,0.46 -0.32,0.47 -0.35,0.39 -0.31,0.43 -0.35,0.43 -0.39,0.39 -0.35,0.39 -0.4,0.32 -0.43,0.35 -0.46,0.31 -0.43,0.27 -0.51,0.32 -0.47,0.23 -0.51,0.24 -0.47,0.19 -0.5,0.16 -0.51,0.19 -0.59,0.12 -1.09,0.16 -0.59,0.04 -0.54,0 c -6.1,0 -11.18,-5.08 -11.18,-11.14 0,-6.09 5.08,-11.17 11.18,-11.17 6.13,0 11.17,5.08 11.17,11.17 z"
         style="fill:#000000;fill-opacity:1;fill-rule:nonzero;stroke:none"
         id="path218" /><path
         d="m 1615.55,1938.49 -0.04,2.38 -0.16,2.26 -0.27,2.31 -0.31,2.22 -0.43,2.27 -0.55,2.15 -0.59,2.11 -0.74,2.11 -0.74,2.03 -0.9,1.99 -0.94,1.95 -1.01,1.84 -1.1,1.84 -1.17,1.71 -1.25,1.72 -1.29,1.61 -1.4,1.52 -1.45,1.48 -1.44,1.33 -1.61,1.33 -1.64,1.21 -1.64,1.09 -1.72,1.06 -1.79,0.94 -1.84,0.86 -1.87,0.7 -1.96,0.62 -1.95,0.59 -1.99,0.35 -2.07,0.31 -2.07,0.2 -2.11,0.04 c -10.08,0 -19.14,-3.36 -26.76,-10.71 l 0,41.02 c 4.22,-1.21 11.17,-2.69 17.93,-2.69 25.86,0 40.62,19.17 40.62,21.95 0,1.25 -0.62,2.34 -2.1,2.34 -0.2,0 -0.63,0 -1.68,-0.7 -4.22,-1.88 -14.5,-6.09 -28.68,-6.09 -8.36,0 -18.08,1.48 -28,5.89 -1.64,0.59 -2.11,0.59 -2.54,0.59 -2.11,0 -2.11,-1.64 -2.11,-5 l 0,-62.34 c 0,-3.79 0,-5.51 3.01,-5.51 1.44,0 1.87,0.66 2.69,1.91 2.34,3.36 10.12,14.73 27.15,14.73 10.98,0 16.25,-9.73 17.89,-13.48 3.48,-7.77 3.87,-15.97 3.87,-26.56 0,-7.34 0,-20.04 -5.08,-28.87 -5.04,-8.2 -12.81,-13.67 -22.54,-13.67 -15.39,0 -27.34,11.17 -31.02,23.56 0.71,-0.16 1.33,-0.4 3.68,-0.4 6.91,0 10.5,5.32 10.5,10.36 0,5.04 -3.59,10.31 -10.5,10.31 -2.97,0 -10.39,-1.49 -10.39,-11.21 0,-18.09 14.57,-38.48 38.2,-38.48 24.33,0 45.9,20.2 45.9,46.92 z"
         style="fill:#000000;fill-opacity:1;fill-rule:nonzero;stroke:none"
         id="path220" /><path
         d="m 1645.04,1908.6 -0.04,-0.31 -0.08,-0.31 -0.12,-0.32 -0.03,-0.31 -0.16,-0.7 -0.31,-1.33 -0.16,-0.7 -0.16,-0.67 -0.11,-0.66 -0.12,-0.35 -0.08,-0.31 -0.04,-0.28 -0.08,-0.31 -0.03,-0.27 -0.08,-0.32 -0.04,-0.23 -0.04,-0.27 -0.08,-0.24 -0.04,-0.23 -0.08,-0.39 0,-0.16 -0.04,-0.16 0,-0.23 c 0,-3.75 2.97,-5.7 6.06,-5.7 2.62,0 6.33,1.64 7.81,5.9 0.28,0.46 2.78,10.31 4.03,15.58 l 4.64,18.95 c 1.25,4.64 2.5,9.25 3.56,14.18 0.86,3.55 2.58,9.64 2.81,10.46 3.17,6.57 14.3,25.71 34.22,25.71 9.53,0 11.48,-7.78 11.48,-14.69 0,-5.31 -1.52,-11.17 -3.2,-17.54 l -5.86,-24.45 -4.22,-15.98 c -0.86,-4.26 -2.81,-11.37 -2.81,-12.42 0,-3.75 3.01,-5.7 6.17,-5.7 6.53,0 7.81,5.31 9.46,12.07 2.96,11.75 10.78,42.54 12.69,50.74 0.59,2.73 11.72,27.97 34.73,27.97 9.06,0 11.33,-7.15 11.33,-14.69 0,-12.07 -8.83,-36.05 -13.05,-47.19 -1.92,-5.08 -2.7,-7.42 -2.7,-11.64 0,-9.84 7.31,-17.26 17.23,-17.26 19.84,0 27.62,30.74 27.62,32.42 0,2.15 -1.92,2.15 -2.5,2.15 -2.11,0 -2.11,-0.67 -3.17,-3.83 -3.16,-11.17 -9.92,-26.09 -21.48,-26.09 -3.63,0 -5.12,2.1 -5.12,6.95 0,5.27 1.95,10.35 3.83,14.96 4.02,10.9 12.85,34.3 12.85,46.33 0,13.67 -8.48,22.5 -24.26,22.5 -15.78,0 -26.48,-9.22 -34.25,-20.35 -0.28,2.73 -0.86,9.88 -6.84,14.92 -5.23,4.37 -11.95,5.43 -17.23,5.43 -18.94,0 -29.25,-13.44 -32.81,-18.24 -1.05,11.99 -9.96,18.24 -19.45,18.24 -9.65,0 -13.67,-8.17 -15.59,-11.92 -3.79,-7.38 -6.52,-19.84 -6.52,-20.5 0,-2.11 2.11,-2.11 2.58,-2.11 2.11,0 2.26,0.31 3.51,4.88 3.63,14.96 7.85,25.04 15.43,25.04 3.36,0 6.52,-1.64 6.52,-9.61 0,-4.45 -0.66,-6.84 -3.35,-17.74 l -12.23,-48.67 z"
         style="fill:#000000;fill-opacity:1;fill-rule:nonzero;stroke:none"
         id="path222" /><path
         d="m 1893.59,1975.01 -0.58,-0.08 -0.51,-0.04 -0.55,-0.08 -1.01,-0.23 -0.51,-0.2 -0.94,-0.31 -0.47,-0.23 -0.43,-0.24 -0.43,-0.27 -0.43,-0.24 -0.35,-0.31 -0.39,-0.27 -0.39,-0.31 -0.66,-0.67 -0.32,-0.35 -0.27,-0.39 -0.27,-0.31 -0.24,-0.39 -0.23,-0.43 -0.2,-0.39 -0.23,-0.39 -0.16,-0.39 -0.15,-0.43 -0.24,-0.86 -0.08,-0.39 -0.03,-0.47 -0.08,-0.86 c 0,-2.97 1.87,-6.1 6.56,-6.1 4.65,0 9.65,3.6 9.65,11.76 0,9.53 -9.06,18.09 -25.04,18.09 -27.85,0 -35.63,-21.41 -35.63,-30.71 0,-16.44 15.63,-19.61 21.68,-20.86 10.98,-2.1 21.92,-4.45 21.92,-15.97 0,-5.51 -4.81,-23.2 -30.08,-23.2 -3.01,0 -19.18,0 -24.06,11.17 8.04,-1.06 13.28,5.27 13.28,11.17 0,4.8 -3.4,7.38 -7.85,7.38 -5.43,0 -11.76,-4.41 -11.76,-13.94 0,-12 12.07,-20.43 30.16,-20.43 34.1,0 42.38,25.5 42.38,34.96 0,7.58 -4.06,12.89 -6.56,15.39 -5.71,5.9 -11.84,6.95 -21.1,8.87 -7.58,1.64 -15.97,3.16 -15.97,12.61 0,6.14 5.03,18.95 23.59,18.95 5.23,0 15.82,-1.41 18.98,-9.61 z"
         style="fill:#000000;fill-opacity:1;fill-rule:nonzero;stroke:none"
         id="path224" /><g
         id="g226"
         transform="scale(10,10)"><text
           transform="matrix(1,0,0,-1,262.214,121.932)"
           id="text228"><tspan
             style="fill:#008080;fill-opacity:1;fill-rule:nonzero;stroke:none;font-family:DejaVu Sans;font-variant:normal;font-weight:normal;font-size:32;writing-mode:lr;-inkscape-font-specification:DejaVuSans"
             x="0 22.24 44.192"
             y="0"
             sodipodi:role="line"
             id="tspan230">RB1</tspan></text>
</g><path
         d="m 393.75,1612.82 -261.25,0"
         style="fill:none;stroke:#000000;stroke-opacity:1;stroke-width:5.72216;stroke-linecap:butt;stroke-linejoin:miter;stroke-miterlimit:4;stroke-dasharray:none"
         id="path232" /><path
         d="m 393.75,1744.96 -261.25,0"
         style="fill:none;stroke:#000000;stroke-opacity:1;stroke-width:5.72216;stroke-linecap:butt;stroke-linejoin:miter;stroke-miterlimit:4;stroke-dasharray:none"
         id="path234" /><path
         d="m 288.09,1632.59 0,103.59"
         style="fill:none;stroke:#000000;stroke-opacity:1;stroke-width:5.72216;stroke-linecap:butt;stroke-linejoin:miter;stroke-miterlimit:4;stroke-dasharray:none"
         id="path236" /><path
         d="m 288.09,1575.36 22.89,-22.89 -22.89,80.12 -22.891,-80.12 22.891,22.89 z"
         style="fill:#000000;fill-opacity:1;fill-rule:evenodd;stroke:none"
         id="path238" /><path
         d="m 288.09,1575.36 22.89,-22.9 -22.89,80.13 -22.891,-80.13 22.891,22.9 z"
         style="fill:none;stroke:#000000;stroke-opacity:1;stroke-width:5.72216;stroke-linecap:butt;stroke-linejoin:miter;stroke-miterlimit:4;stroke-dasharray:none"
         id="path240" /><path
         d="m 288.09,1793.41 -22.891,22.89 22.891,-80.12 22.89,80.12 -22.89,-22.89 z"
         style="fill:#000000;fill-opacity:1;fill-rule:evenodd;stroke:none"
         id="path242" /><path
         d="m 288.09,1793.41 -22.891,22.89 22.891,-80.12 22.89,80.12 -22.89,-22.89 z"
         style="fill:none;stroke:#000000;stroke-opacity:1;stroke-width:5.72216;stroke-linecap:butt;stroke-linejoin:miter;stroke-miterlimit:4;stroke-dasharray:none"
         id="path244" /><g
         id="g246"
         transform="scale(10,10)"><text
           transform="matrix(1,0,0,-1,262.339,39.0492)"
           id="text248"><tspan
             style="fill:#008080;fill-opacity:1;fill-rule:nonzero;stroke:none;font-family:DejaVu Sans;font-variant:normal;font-weight:normal;font-size:32;writing-mode:lr;-inkscape-font-specification:DejaVuSans"
             x="0 22.24 44.192"
             y="0"
             sodipodi:role="line"
             id="tspan250">RB2</tspan></text>
</g><path
         d="M 413.629,1750.98 2303.91,2346.93"
         style="fill:none;stroke:#000000;stroke-opacity:1;stroke-width:8;stroke-linecap:butt;stroke-linejoin:miter;stroke-miterlimit:4;stroke-dasharray:8,32;stroke-dashoffset:0"
         id="path252" /><path
         d="M 2871.91,2342.28 5483.87,1764.96"
         style="fill:none;stroke:#000000;stroke-opacity:1;stroke-width:8;stroke-linecap:butt;stroke-linejoin:miter;stroke-miterlimit:4;stroke-dasharray:8,32;stroke-dashoffset:0"
         id="path254" /></g></g></svg>