<?xml version="1.0" encoding="UTF-8" standalone="no"?>
<svg
   xmlns:dc="http://purl.org/dc/elements/1.1/"
   xmlns:cc="http://creativecommons.org/ns#"
   xmlns:rdf="http://www.w3.org/1999/02/22-rdf-syntax-ns#"
   xmlns:svg="http://www.w3.org/2000/svg"
   xmlns="http://www.w3.org/2000/svg"
   xmlns:sodipodi="http://sodipodi.sourceforge.net/DTD/sodipodi-0.dtd"
   xmlns:inkscape="http://www.inkscape.org/namespaces/inkscape"
   id="svg1"
   sodipodi:docname="mono-slideshow.svg"
   viewBox="0 0 60 60"
   sodipodi:version="0.32"
   _SVGFile__filename="oldscale/apps/aktion.svg"
   version="1.0"
   y="0"
   x="0"
   inkscape:version="0.48.5 r10040"
   width="100%"
   height="100%">
  <defs
     id="defs22" />
  <sodipodi:namedview
     id="base"
     bordercolor="#666666"
     inkscape:pageshadow="2"
     inkscape:window-y="248"
     pagecolor="#ffffff"
     inkscape:window-height="698"
     inkscape:zoom="4.9119411"
     inkscape:window-x="2348"
     borderopacity="1.0"
     inkscape:current-layer="svg1"
     inkscape:cx="50.443474"
     inkscape:cy="13.608829"
     inkscape:window-width="1024"
     inkscape:pageopacity="0.0"
     showgrid="false"
     inkscape:window-maximized="0" />
  <g
     id="g1745"
     style="stroke:#ffffff">
    <path
       id="path1102"
       sodipodi:nodetypes="ccccc"
       style="stroke-linejoin:round;stroke:#ffffff;stroke-width:5;fill:none"
       d="m4.3693 4.384v51.232h51.262v-51.232h-51.262z" />
    <path
       id="path1103"
       style="stroke-linejoin:round;stroke:#ffffff;stroke-linecap:round;stroke-width:7.5;fill:none"
       d="m4.3748 4.3748v51.25m51.25 0v-51.25" />
  </g>
  <path
     id="path851"
     style="fill-rule:evenodd;fill:#808080"
     transform="matrix(.93521 0 0 .93521 1.9436 1.7244)"
     d="m2.5938 2.8438v54.781h13.25v-2.844c0-1.108 0.892-2 2-2h24.062c1.108 0 2 0.892 2 2v2.844h13.5v-54.781l-13.5-0.0002v2.8437c0 1.108-0.892 2-2 2h-24.062c-1.108 0-2-0.892-2-2v-2.8437h-13.25z" />
  <path
     id="path852"
     style="stroke-linejoin:round;stroke:#808080;stroke-linecap:round;stroke-width:2.67320000000000002;fill:#4d4d4d"
     d="m2.4307 2.9895v54.8m54.8 0v-54.8"
     transform="matrix(.93521 0 0 .93521 2.1016 1.579)" />
  <path
     id="rect858"
     style="stroke-linejoin:round;fill-rule:evenodd;fill:#ffffff;stroke-width:1.25"
     d="m9.2812 7.8053c-0.746 0-1.3467 0.6006-1.3467 1.3467v17.993c0 0.746 0.6007 1.346 1.3467 1.346h2.0788c0.746 0 1.347-0.6 1.347-1.346v-17.993c0-0.7461-0.601-1.3467-1.347-1.3467h-2.0788z" />
  <path
     id="path864"
     style="fill-rule:evenodd;fill:#ffffff"
     transform="matrix(.93521 0 0 .93521 1.9436 1.7244)"
     d="m17.858 12.336c-1.108 0-2 0.892-2 2v31.355c0 1.108 0.892 2 2 2h24.063c1.108 0 2-0.892 2-2v-31.355c0-1.108-0.892-2-2-2h-24.063z" />
  <path
     id="path868"
     style="stroke-linejoin:round;stroke-linecap:round;fill:none"
     transform="matrix(.93521 0 0 .93521 1.895 1.579)"
     d="m15.91 2.6304v3.2162c0 1.108 0.892 2 2 2h24.063c1.108 0 2-0.892 2-2v-3.2162" />
  <path
     id="path870"
     style="stroke-linejoin:round;stroke-linecap:round;fill:none"
     transform="matrix(.93521 0 0 .93521 1.895 1.579)"
     d="m15.91 58.003v-3.216c0-1.108 0.892-2 2-2h24.063c1.108 0 2 0.892 2 2v3.216" />
  <path
     id="path1541"
     style="stroke-linejoin:round;fill-rule:evenodd;fill:#ffffff;stroke-width:1.25"
     d="m9.2812 31.715c-0.746 0-1.3467 0.601-1.3467 1.347v17.993c0 0.746 0.6007 1.346 1.3467 1.346h2.0788c0.746 0 1.347-0.6 1.347-1.346v-17.993c0-0.746-0.601-1.347-1.347-1.347h-2.0788z" />
  <path
     id="path1542"
     style="stroke-linejoin:round;fill-rule:evenodd;fill:#ffffff;stroke-width:1.25"
     d="m48.584 7.8053c-0.746 0-1.347 0.6006-1.347 1.3467v17.993c0 0.746 0.601 1.346 1.347 1.346h2.078c0.746 0 1.347-0.6 1.347-1.346v-17.993c0-0.7461-0.601-1.3467-1.347-1.3467h-2.078z" />
  <path
     id="path1543"
     style="stroke-linejoin:round;fill-rule:evenodd;fill:#ffffff;stroke-width:1.25"
     d="m48.584 31.715c-0.746 0-1.347 0.601-1.347 1.347v17.993c0 0.746 0.601 1.346 1.347 1.346h2.078c0.746 0 1.347-0.6 1.347-1.346v-17.993c0-0.746-0.601-1.347-1.347-1.347h-2.078z" />
  <path
     id="path867"
     style="fill-rule:evenodd;fill:#ffffff"
     transform="matrix(.93521 0 0 .93521 1.895 1.579)"
     d="m15.91 2.9429v2.9037c0 1.108 0.892 2 2 2h24.063c1.108 0 2-0.892 2-2v-2.9037h-28.063z" />
  <path
     id="path869"
     style="fill-rule:evenodd;fill:#ffffff"
     transform="matrix(.93521 0 0 .93521 1.9436 1.7244)"
     d="m15.858 57.691v-2.904c0-1.108 0.892-2 2-2h24.063c1.108 0 2 0.892 2 2v2.904h-28.063z" />
  <path
     id="path1106"
     style="stroke-linejoin:round;stroke-linecap:round;fill:none"
     transform="matrix(.93521 0 0 .93521 76.895 1.579)"
     d="m15.91 2.6304v3.2162c0 1.108 0.892 2 2 2h24.063c1.108 0 2-0.892 2-2v-3.2162" />
  <path
     id="path1107"
     style="stroke-linejoin:round;stroke-linecap:round;fill:none"
     transform="matrix(.93521 0 0 .93521 76.895 1.579)"
     d="m15.91 58.003v-3.216c0-1.108 0.892-2 2-2h24.063c1.108 0 2 0.892 2 2v3.216" />
  <metadata
     id="metadata20">
    <rdf:RDF>
      <cc:Work>
        <dc:format>image/svg+xml</dc:format>
        <dc:type
           rdf:resource="http://purl.org/dc/dcmitype/StillImage" />
        <cc:license
           rdf:resource="http://creativecommons.org/licenses/publicdomain/" />
        <dc:publisher>
          <cc:Agent
             rdf:about="http://openclipart.org/">
            <dc:title>Openclipart</dc:title>
          </cc:Agent>
        </dc:publisher>
      </cc:Work>
      <cc:License
         rdf:about="http://creativecommons.org/licenses/publicdomain/">
        <cc:permits
           rdf:resource="http://creativecommons.org/ns#Reproduction" />
        <cc:permits
           rdf:resource="http://creativecommons.org/ns#Distribution" />
        <cc:permits
           rdf:resource="http://creativecommons.org/ns#DerivativeWorks" />
      </cc:License>
    </rdf:RDF>
  </metadata>
</svg>
